{"glyphs":{"0":{"ha":806,"x_min":60,"x_max":763,"o":"m 763 614 q 730 338 763 456 q 641 143 697 221 q 509 27 585 65 q 348 -11 433 -11 q 231 14 284 -11 q 140 90 178 40 q 81 216 102 140 q 60 393 60 292 q 93 669 60 551 q 181 864 125 786 q 313 980 238 941 q 474 1018 388 1018 q 591 993 538 1018 q 683 917 644 968 q 742 791 721 867 q 763 614 763 715 m 574 624 q 564 740 574 693 q 538 815 554 787 q 500 855 522 843 q 455 867 478 867 q 380 844 417 867 q 314 764 343 820 q 267 615 285 708 q 249 382 249 522 q 259 266 249 313 q 284 191 268 219 q 322 151 301 163 q 366 140 343 140 q 441 163 403 140 q 507 242 478 186 q 555 391 537 297 q 574 624 574 484 z "},"1":{"ha":806,"x_min":126,"x_max":667,"o":"m 667 135 l 650 0 l 126 0 l 144 135 l 325 135 l 394 701 q 399 736 396 719 q 405 772 401 753 l 276 661 q 249 648 262 651 q 224 648 235 646 q 205 656 213 650 q 194 667 197 661 l 145 746 l 465 1008 l 617 1008 l 510 135 l 667 135 z "},"2":{"ha":806,"x_min":22,"x_max":748,"o":"m 626 169 q 672 152 656 169 q 683 108 687 135 l 669 0 l 22 0 l 30 60 q 42 99 33 78 q 72 135 51 119 l 381 438 q 460 520 426 482 q 515 596 493 559 q 547 670 536 633 q 557 751 557 708 q 531 835 557 806 q 456 865 506 865 q 410 857 431 865 q 371 834 389 849 q 340 800 353 819 q 317 757 326 780 q 279 713 301 724 q 221 708 258 701 l 125 724 q 180 853 144 798 q 262 944 215 908 q 366 1000 309 981 q 486 1018 423 1018 q 596 1000 547 1018 q 678 948 644 981 q 730 869 712 915 q 748 767 748 823 q 730 651 748 703 q 680 552 711 599 q 607 461 649 505 q 519 372 565 418 l 287 144 q 362 162 324 156 q 431 169 400 169 l 626 169 z "},"3":{"ha":806,"x_min":46,"x_max":745,"o":"m 129 724 q 184 853 149 798 q 266 944 219 908 q 370 1000 313 981 q 490 1018 427 1018 q 600 1000 552 1018 q 680 951 647 982 q 728 877 712 919 q 745 788 745 835 q 734 690 745 732 q 700 617 722 648 q 645 565 678 586 q 569 531 613 544 q 707 335 707 479 q 693 231 707 278 q 654 145 679 184 q 595 78 629 107 q 520 29 560 49 q 435 -1 480 9 q 343 -11 390 -11 q 226 6 276 -11 q 140 56 176 23 q 82 140 104 90 q 46 256 59 190 l 132 290 q 193 297 166 303 q 228 267 219 290 q 251 219 239 242 q 278 179 263 196 q 313 152 293 162 q 360 142 333 142 q 428 157 398 142 q 480 200 459 173 q 512 261 501 226 q 523 334 523 296 q 515 381 523 360 q 487 418 508 402 q 431 442 467 433 q 338 451 395 451 l 355 581 q 454 592 414 581 q 518 625 494 603 q 552 679 542 647 q 562 752 562 711 q 536 836 562 806 q 460 865 510 865 q 414 857 435 865 q 375 834 393 849 q 343 800 357 819 q 322 757 330 780 q 283 713 305 724 q 224 708 261 701 l 129 724 z "},"4":{"ha":806,"x_min":26,"x_max":738,"o":"m 474 383 l 512 694 q 518 735 515 714 q 527 780 522 757 l 217 383 l 474 383 m 738 383 l 725 278 q 713 252 724 263 q 684 242 701 242 l 618 242 l 588 0 l 428 0 l 457 242 l 77 242 q 47 253 60 242 q 33 281 35 264 l 26 374 l 537 1008 l 712 1008 l 635 383 l 738 383 z "},"5":{"ha":806,"x_min":38,"x_max":748,"o":"m 748 1007 l 738 930 q 706 867 733 891 q 619 842 678 842 l 388 842 l 333 646 q 388 654 362 651 q 438 657 414 657 q 555 636 505 657 q 637 579 604 615 q 687 494 670 543 q 703 391 703 446 q 673 228 703 302 q 588 101 642 154 q 461 18 534 48 q 304 -11 388 -11 q 220 -1 259 -11 q 148 26 181 9 q 87 64 115 42 q 38 110 60 86 l 105 188 q 155 212 126 212 q 188 201 173 212 q 223 176 203 190 q 268 152 242 163 q 334 141 294 141 q 417 160 382 141 q 474 210 451 178 q 507 282 497 241 q 517 367 517 323 q 482 471 517 433 q 380 508 447 508 q 250 482 315 508 l 139 514 l 278 1007 l 748 1007 z "},"6":{"ha":741,"x_min":65,"x_max":733,"o":"m 368 138 q 436 153 404 138 q 493 196 469 169 q 531 261 517 224 q 545 344 545 299 q 509 455 545 415 q 410 495 474 495 q 344 480 375 495 q 289 437 313 465 q 253 370 266 409 q 240 285 240 332 q 248 225 240 253 q 272 178 256 198 q 311 148 288 159 q 368 138 335 138 m 383 610 q 435 626 408 620 q 492 631 463 631 q 582 615 539 631 q 659 566 626 599 q 713 485 692 534 q 733 373 733 437 q 704 224 733 294 q 624 102 675 154 q 504 19 574 49 q 353 -11 435 -11 q 230 11 284 -11 q 140 74 176 33 q 84 170 103 114 q 65 292 65 226 q 74 383 65 339 q 102 470 83 427 q 148 557 120 513 q 213 647 176 601 l 465 964 q 507 994 480 982 q 568 1007 535 1007 l 733 1007 l 413 644 l 383 610 z "},"7":{"ha":806,"x_min":94,"x_max":803,"o":"m 803 1007 l 794 928 q 778 872 789 893 q 759 835 768 850 l 333 62 q 292 18 317 36 q 228 0 267 0 l 94 0 l 526 756 q 560 803 543 782 q 596 842 576 824 l 176 842 q 148 855 160 842 q 139 884 137 868 l 154 1007 l 803 1007 z "},"8":{"ha":806,"x_min":54,"x_max":742,"o":"m 366 131 q 436 145 406 131 q 487 185 467 160 q 517 246 507 210 q 526 323 526 281 q 497 417 526 384 q 405 449 467 449 q 288 404 331 449 q 245 261 245 358 q 252 210 245 233 q 275 168 260 186 q 312 141 290 151 q 366 131 335 131 m 458 881 q 396 867 422 881 q 353 830 370 853 q 329 776 337 807 q 321 712 321 746 q 326 667 321 689 q 342 629 331 646 q 374 602 354 613 q 422 592 393 592 q 484 606 458 592 q 527 643 510 619 q 553 698 544 666 q 561 765 561 729 q 555 809 561 788 q 537 846 549 830 q 505 872 524 863 q 458 881 485 881 m 579 524 q 683 444 651 497 q 716 321 716 392 q 689 184 716 245 q 612 79 661 122 q 496 13 563 36 q 349 -11 428 -11 q 227 7 281 -11 q 134 60 172 26 q 75 142 96 94 q 54 249 54 190 q 65 342 54 299 q 100 422 76 386 q 161 484 124 457 q 251 527 199 510 q 169 602 196 555 q 142 713 142 650 q 167 834 142 778 q 238 931 193 890 q 344 995 283 972 q 475 1018 405 1018 q 584 999 535 1018 q 668 948 633 981 q 723 872 703 916 q 742 776 742 827 q 701 622 742 687 q 579 524 660 558 z "},"9":{"ha":806,"x_min":92,"x_max":751,"o":"m 293 671 q 323 571 293 606 q 412 536 353 536 q 480 551 450 536 q 532 591 510 565 q 564 653 553 617 q 576 729 576 688 q 542 833 576 796 q 451 870 508 870 q 387 856 416 870 q 337 814 358 841 q 305 751 316 788 q 293 671 293 715 m 432 388 q 454 414 444 401 q 474 438 464 426 q 329 400 408 400 q 247 416 287 400 q 175 463 206 431 q 125 540 144 494 q 106 649 106 587 q 133 792 106 724 q 210 909 161 859 q 326 989 259 960 q 472 1018 393 1018 q 591 997 539 1018 q 679 938 643 976 q 733 847 715 899 q 751 731 751 794 q 741 629 751 677 q 712 537 731 581 q 666 451 693 493 q 606 365 639 409 l 363 42 q 321 12 348 24 q 263 0 294 0 l 92 0 l 432 388 z "},"\u0000":{"ha":0,"x_min":0,"x_max":0,"o":""}," ":{"ha":295,"x_min":0,"x_max":0,"o":""},"A":{"ha":913,"x_min":-60,"x_max":868,"o":"m 589 381 l 529 700 q 518 759 524 725 q 506 833 512 793 q 476 759 491 793 q 451 699 462 725 l 314 381 l 589 381 m 868 0 l 713 0 q 672 13 686 0 q 651 45 657 25 l 615 242 l 254 242 l 169 45 q 142 14 160 27 q 99 0 123 0 l -60 0 l 425 1008 l 631 1008 l 868 0 z "},"Ą":{"ha":913,"x_min":-60,"x_max":883,"o":"m 589 381 l 529 700 q 518 759 524 725 q 506 833 512 793 q 476 759 491 793 q 451 699 462 725 l 314 381 l 589 381 m 883 -205 q 824 -230 858 -220 q 753 -240 790 -240 q 658 -214 690 -240 q 627 -148 627 -188 q 653 -71 627 -108 q 735 0 679 -33 l 713 0 q 672 13 686 0 q 651 45 657 25 l 615 242 l 254 242 l 169 45 q 142 14 160 27 q 99 0 123 0 l -60 0 l 425 1008 l 631 1008 l 868 0 l 848 0 q 820 -18 833 -8 q 798 -41 808 -28 q 782 -67 788 -53 q 776 -97 776 -81 q 783 -122 776 -112 q 807 -131 791 -131 q 823 -130 817 -131 q 833 -127 829 -129 q 840 -125 838 -126 q 847 -124 843 -124 q 863 -135 860 -124 l 883 -205 z "},"Æ":{"ha":1213,"x_min":-58,"x_max":1233,"o":"m 591 381 l 591 846 q 564 784 578 813 q 536 730 551 755 l 352 381 l 591 381 m 781 850 l 781 582 l 1092 582 l 1074 431 l 781 431 l 781 158 l 1128 158 l 1108 0 l 591 0 l 591 242 l 278 242 l 175 45 q 144 14 165 27 q 99 0 124 0 l -58 0 l 518 1008 l 1233 1008 l 1213 850 l 781 850 z "},"B":{"ha":860,"x_min":47,"x_max":826,"o":"m 428 154 q 505 167 473 154 q 557 202 537 180 q 587 257 578 225 q 597 326 597 288 q 589 372 597 351 q 566 407 582 392 q 524 430 549 422 q 460 438 498 438 l 301 438 l 267 154 l 428 154 m 353 855 l 318 574 l 440 574 q 516 583 483 574 q 574 613 550 592 q 609 665 597 633 q 622 742 622 697 q 589 829 622 803 q 486 855 556 855 l 353 855 m 505 1008 q 651 991 590 1008 q 751 944 713 974 q 808 871 790 914 q 826 776 826 828 q 815 695 826 734 q 780 623 804 656 q 719 564 756 590 q 631 519 683 537 q 755 449 715 497 q 795 328 795 401 q 769 199 795 259 q 693 95 742 139 q 573 25 644 51 q 412 0 501 0 l 47 0 l 172 1008 l 505 1008 z "},"C":{"ha":860,"x_min":51,"x_max":894,"o":"m 478 157 q 549 163 519 157 q 600 179 578 169 q 638 200 622 189 q 665 221 653 211 q 686 237 677 231 q 706 243 696 243 q 723 240 716 243 q 733 232 729 236 l 803 146 q 648 29 738 69 q 444 -11 558 -11 q 277 22 350 -11 q 153 114 203 56 q 77 253 103 173 q 51 428 51 333 q 70 592 51 515 q 124 735 90 669 q 208 853 159 801 q 317 943 257 906 q 446 999 377 979 q 590 1019 515 1019 q 691 1008 645 1019 q 774 980 737 998 q 841 935 812 961 q 894 878 871 909 l 824 795 q 806 779 816 786 q 780 772 796 772 q 750 784 764 772 q 716 811 736 797 q 664 837 696 825 q 580 849 632 849 q 452 821 511 849 q 350 740 393 792 q 282 613 306 688 q 257 444 257 538 q 274 323 257 376 q 320 233 290 270 q 390 176 350 196 q 478 157 431 157 z "},"Ç":{"ha":860,"x_min":51,"x_max":894,"o":"m 395 -8 q 249 36 313 0 q 141 130 185 72 q 74 264 97 188 q 51 428 51 340 q 70 592 51 515 q 124 735 90 669 q 208 853 159 801 q 317 943 257 906 q 446 999 377 979 q 590 1019 515 1019 q 691 1008 645 1019 q 774 980 737 998 q 841 935 812 961 q 894 878 871 909 l 824 795 q 806 779 816 786 q 780 772 796 772 q 750 784 764 772 q 716 811 736 797 q 664 837 696 825 q 580 849 632 849 q 452 821 511 849 q 350 740 393 792 q 282 613 306 688 q 257 444 257 538 q 274 323 257 376 q 320 233 290 270 q 390 176 350 196 q 478 157 431 157 q 549 163 519 157 q 600 179 578 169 q 638 200 622 189 q 665 221 653 211 q 686 237 677 231 q 706 243 696 243 q 723 240 716 243 q 733 232 729 236 l 803 146 q 672 41 747 80 q 504 -8 597 1 l 492 -40 q 566 -77 545 -53 q 586 -132 586 -101 q 573 -181 586 -159 q 535 -217 559 -202 q 477 -239 511 -231 q 404 -247 444 -247 q 356 -244 378 -247 q 311 -234 333 -241 l 336 -175 q 345 -163 340 -167 q 360 -158 350 -158 q 378 -162 369 -158 q 401 -166 386 -166 q 428 -157 419 -166 q 436 -137 436 -149 q 417 -114 436 -122 q 354 -99 398 -106 l 395 -8 z "},"D":{"ha":984,"x_min":47,"x_max":951,"o":"m 951 570 q 932 413 951 488 q 880 275 914 338 q 797 160 845 211 q 687 74 748 110 q 555 19 626 38 q 406 0 484 0 l 47 0 l 172 1008 l 530 1008 q 705 975 627 1008 q 838 883 783 942 q 922 745 892 825 q 951 570 951 665 m 744 565 q 729 683 744 631 q 683 773 713 736 q 610 831 653 810 q 510 851 567 851 l 354 851 l 269 158 l 425 158 q 557 186 498 158 q 658 267 616 215 q 722 395 699 320 q 744 565 744 471 z "},"Ð":{"ha":994,"x_min":4,"x_max":961,"o":"m 437 158 q 568 186 510 158 q 669 267 627 215 q 733 395 710 320 q 755 565 755 471 q 739 683 755 631 q 694 773 724 736 q 620 831 664 810 q 521 851 577 851 l 365 851 l 330 562 l 553 562 l 539 449 l 316 449 l 281 158 l 437 158 m 540 1008 q 716 975 638 1008 q 849 883 794 942 q 932 745 903 825 q 961 570 961 665 q 943 413 961 488 q 890 275 924 338 q 807 160 856 211 q 698 74 758 110 q 567 19 638 38 q 417 0 496 0 l 58 0 l 113 449 l 4 449 l 19 562 l 127 562 l 182 1008 l 540 1008 z "},"E":{"ha":744,"x_min":47,"x_max":765,"o":"m 354 850 l 322 583 l 625 583 l 605 431 l 303 431 l 269 158 l 661 158 l 642 0 l 47 0 l 172 1008 l 765 1008 l 744 850 l 354 850 z "},"Ę":{"ha":744,"x_min":47,"x_max":765,"o":"m 354 850 l 322 583 l 625 583 l 605 431 l 303 431 l 269 158 l 661 158 l 642 0 l 610 0 q 583 -18 596 -8 q 560 -41 570 -28 q 544 -67 550 -53 q 538 -97 538 -81 q 546 -122 538 -112 q 569 -131 553 -131 q 586 -130 580 -131 q 596 -127 592 -129 q 603 -125 600 -126 q 609 -124 606 -124 q 625 -135 623 -124 l 645 -205 q 587 -230 621 -220 q 515 -240 553 -240 q 421 -214 452 -240 q 390 -148 390 -188 q 416 -71 390 -108 q 498 0 442 -33 l 47 0 l 172 1008 l 765 1008 l 744 850 l 354 850 z "},"F":{"ha":738,"x_min":47,"x_max":765,"o":"m 354 850 l 319 563 l 647 563 l 626 405 l 299 405 l 249 0 l 47 0 l 172 1008 l 765 1008 l 744 850 l 354 850 z "},"G":{"ha":940,"x_min":51,"x_max":930,"o":"m 560 510 l 885 510 l 833 97 q 753 49 794 69 q 667 15 713 28 q 572 -5 622 1 q 465 -11 522 -11 q 295 23 372 -11 q 165 116 219 56 q 81 258 111 176 q 51 437 51 340 q 70 598 51 522 q 124 738 89 674 q 208 855 159 803 q 317 943 257 906 q 447 999 377 979 q 594 1019 517 1019 q 707 1007 656 1019 q 799 977 758 996 q 873 932 840 958 q 930 879 905 907 l 865 797 q 826 770 849 775 q 781 781 804 765 q 738 808 758 795 q 694 830 717 821 q 643 844 671 839 q 579 849 615 849 q 449 820 508 849 q 347 738 390 791 q 281 610 304 685 q 257 444 257 535 q 275 319 257 374 q 324 226 292 264 q 400 167 356 188 q 499 147 445 147 q 588 156 549 147 q 662 182 626 165 l 683 362 l 583 362 q 555 372 565 362 q 547 397 545 381 l 560 510 z "},"H":{"ha":1001,"x_min":47,"x_max":973,"o":"m 973 1008 l 849 0 l 646 0 l 699 436 l 303 436 l 249 0 l 47 0 l 172 1008 l 374 1008 l 320 576 l 717 576 l 770 1008 l 973 1008 z "},"Ħ":{"ha":1015,"x_min":53,"x_max":1052,"o":"m 742 719 l 346 719 l 328 576 l 725 576 l 742 719 m 1038 719 l 946 719 l 857 0 l 654 0 l 708 436 l 311 436 l 258 0 l 56 0 l 144 719 l 53 719 l 67 835 l 158 835 l 180 1008 l 382 1008 l 360 835 l 757 835 l 778 1008 l 981 1008 l 960 835 l 1052 835 l 1038 719 z "},"I":{"ha":401,"x_min":47,"x_max":372,"o":"m 249 0 l 47 0 l 170 1008 l 372 1008 l 249 0 z "},"Į":{"ha":401,"x_min":-5,"x_max":372,"o":"m 216 0 q 189 -18 201 -8 q 166 -41 176 -28 q 150 -67 156 -53 q 144 -97 144 -81 q 151 -122 144 -112 q 175 -131 159 -131 q 191 -130 185 -131 q 201 -127 197 -129 q 208 -125 206 -126 q 215 -124 211 -124 q 231 -135 228 -124 l 251 -205 q 192 -230 226 -220 q 121 -240 158 -240 q 26 -214 58 -240 q -5 -148 -5 -188 q 21 -71 -5 -108 q 103 0 47 -33 l 47 0 l 170 1008 l 372 1008 l 249 0 l 216 0 z "},"J":{"ha":573,"x_min":-24,"x_max":553,"o":"m 473 355 q 435 203 463 271 q 363 88 408 135 q 257 15 319 40 q 117 -11 196 -11 q 46 -7 81 -11 q -24 8 12 -2 l -10 124 q 1 150 -8 140 q 31 161 10 161 q 67 157 47 161 q 117 152 88 152 q 173 163 147 152 q 218 198 199 174 q 252 259 238 222 q 272 350 265 297 l 351 1008 l 553 1008 l 473 355 z "},"K":{"ha":905,"x_min":47,"x_max":963,"o":"m 319 588 l 356 588 q 428 620 403 588 l 696 966 q 736 999 714 990 q 790 1008 759 1008 l 963 1008 l 624 590 q 592 557 608 570 q 559 535 576 544 q 598 511 581 526 q 626 470 614 495 l 863 0 l 684 0 q 634 10 649 0 q 610 38 619 20 l 426 404 q 400 431 417 424 q 354 439 384 439 l 301 439 l 247 0 l 47 0 l 170 1008 l 372 1008 l 319 588 z "},"L":{"ha":675,"x_min":47,"x_max":622,"o":"m 622 163 l 602 0 l 47 0 l 172 1008 l 372 1008 l 268 163 l 622 163 z "},"Ł":{"ha":703,"x_min":-9,"x_max":649,"o":"m 649 163 l 629 0 l 74 0 l 119 363 l -9 301 l 8 437 q 33 472 10 462 l 139 526 l 199 1008 l 399 1008 l 351 622 l 576 736 l 559 603 q 531 564 556 574 l 331 458 l 295 163 l 649 163 z "},"Ľ":{"ha":676,"x_min":47,"x_max":667,"o":"m 640 1036 q 663 1029 658 1036 q 667 1014 667 1022 q 665 999 667 1008 q 654 970 663 990 q 627 916 645 950 q 578 825 609 882 q 550 799 565 804 q 510 793 534 793 l 445 793 l 516 1036 l 640 1036 m 622 163 l 602 0 l 47 0 l 172 1008 l 372 1008 l 268 163 l 622 163 z "},"M":{"ha":1231,"x_min":47,"x_max":1203,"o":"m 1203 1008 l 1078 0 l 902 0 l 978 624 q 985 665 981 642 q 994 710 989 687 l 667 160 q 635 128 654 139 q 592 117 615 117 l 564 117 q 524 128 541 117 q 499 160 506 139 l 304 712 q 302 667 303 689 q 299 628 301 646 l 225 0 l 47 0 l 172 1008 l 324 1008 q 345 1007 337 1008 q 361 1002 354 1006 q 374 992 368 999 q 387 976 380 986 l 581 421 q 594 381 588 401 q 604 340 599 360 q 625 381 614 360 q 647 421 635 401 l 978 976 q 995 992 988 986 q 1010 1002 1002 999 q 1027 1007 1018 1006 q 1049 1008 1036 1008 l 1203 1008 z "},"N":{"ha":1001,"x_min":47,"x_max":973,"o":"m 973 1008 l 849 0 l 744 0 q 706 8 721 0 q 678 34 692 16 l 306 692 q 302 657 304 674 q 299 626 301 640 l 225 0 l 47 0 l 172 1008 l 277 1008 q 299 1007 290 1008 q 315 1002 308 1006 q 327 993 322 999 q 339 976 333 987 l 714 317 q 717 360 715 340 q 722 399 719 381 l 795 1008 l 973 1008 z "},"Ŋ":{"ha":1000,"x_min":47,"x_max":972,"o":"m 868 160 l 855 50 l 854 50 l 852 32 q 825 -81 844 -29 q 771 -169 806 -132 q 687 -227 737 -206 q 570 -248 638 -248 q 536 -246 552 -248 q 506 -241 521 -244 q 477 -232 492 -237 q 447 -219 463 -227 l 477 -140 q 497 -112 485 -119 q 522 -106 508 -106 q 541 -110 532 -106 q 569 -114 551 -114 q 639 -83 614 -114 q 672 11 665 -53 l 676 38 l 303 683 q 300 638 301 660 q 296 597 299 616 l 224 0 l 47 0 l 171 1007 l 276 1007 q 298 1006 289 1007 q 314 1001 307 1005 q 327 992 321 998 q 340 975 333 985 l 717 324 q 719 372 718 349 q 724 416 721 396 l 794 1007 l 972 1007 l 875 213 l 868 160 z "},"O":{"ha":1051,"x_min":51,"x_max":1019,"o":"m 1019 570 q 1000 412 1019 488 q 947 272 981 337 q 863 156 913 208 q 753 66 814 103 q 621 9 692 29 q 472 -11 550 -11 q 296 23 374 -11 q 164 118 218 58 q 81 260 110 178 q 51 437 51 342 q 70 595 51 519 q 123 735 89 670 q 207 852 158 799 q 317 941 256 904 q 449 999 378 978 q 599 1019 520 1019 q 774 984 697 1019 q 906 889 852 949 q 990 747 960 828 q 1019 570 1019 665 m 813 565 q 797 684 813 631 q 750 776 781 738 q 675 835 719 814 q 574 856 631 856 q 443 826 501 856 q 343 742 384 796 q 279 611 301 688 q 257 442 257 535 q 273 323 257 376 q 319 231 289 269 q 393 173 349 193 q 494 152 438 152 q 626 182 567 152 q 726 265 685 211 q 790 395 767 319 q 813 565 813 472 z "},"Ø":{"ha":1051,"x_min":15,"x_max":1058,"o":"m 374 183 q 494 152 425 152 q 626 182 567 152 q 726 265 685 211 q 790 395 767 319 q 813 565 813 472 q 788 709 813 647 l 374 183 m 715 810 q 651 844 686 833 q 574 856 616 856 q 443 826 501 856 q 343 742 384 796 q 279 611 301 688 q 257 442 257 535 q 292 274 257 342 l 715 810 m 919 875 q 993 738 967 815 q 1019 570 1019 660 q 1000 412 1019 488 q 947 272 981 337 q 863 156 913 208 q 753 66 814 103 q 621 9 692 29 q 472 -11 550 -11 q 358 2 410 -11 q 261 40 306 16 l 210 -24 q 153 -66 185 -53 q 94 -78 122 -78 l 15 -78 l 167 115 q 81 258 110 176 q 51 437 51 340 q 70 595 51 519 q 123 735 89 670 q 207 852 158 799 q 317 941 256 904 q 449 999 378 978 q 599 1019 520 1019 q 723 1002 666 1019 q 828 956 781 986 l 867 1003 q 888 1026 878 1017 q 906 1041 897 1035 q 927 1049 916 1047 q 956 1052 939 1052 l 1058 1052 l 919 875 z "},"Œ":{"ha":1388,"x_min":53,"x_max":1408,"o":"m 465 147 q 586 177 532 147 q 678 265 640 208 q 736 399 716 321 q 757 572 757 478 q 744 690 757 636 q 705 781 731 743 q 641 841 678 819 q 553 862 603 862 q 431 831 485 862 q 338 743 376 799 q 279 608 300 686 q 258 435 258 529 q 272 318 258 371 q 311 226 285 265 q 376 167 338 188 q 465 147 415 147 m 997 850 l 965 582 l 1267 582 l 1249 431 l 946 431 l 913 158 l 1303 158 l 1283 0 l 714 0 l 727 108 q 590 21 666 52 q 426 -10 515 -10 q 269 23 338 -10 q 152 116 200 57 q 78 256 104 175 q 53 430 53 336 q 70 589 53 513 q 118 731 87 665 q 195 850 150 797 q 295 940 240 903 q 415 998 351 978 q 551 1019 480 1019 q 709 983 642 1019 q 823 883 777 947 l 838 1008 l 1408 1008 l 1388 850 l 997 850 z "},"P":{"ha":818,"x_min":47,"x_max":821,"o":"m 427 503 q 515 518 478 503 q 574 561 551 533 q 608 626 597 588 q 619 710 619 664 q 610 768 619 742 q 582 815 601 795 q 536 844 564 834 q 469 855 508 855 l 353 855 l 309 503 l 427 503 m 489 1008 q 639 986 576 1008 q 742 928 701 965 q 802 839 783 890 q 821 727 821 788 q 795 576 821 645 q 719 457 770 507 q 590 378 668 406 q 408 349 513 349 l 290 349 l 247 0 l 47 0 l 170 1008 l 489 1008 z "},"Þ":{"ha":814,"x_min":47,"x_max":801,"o":"m 407 333 q 495 349 458 333 q 554 391 531 364 q 588 457 577 419 q 599 540 599 494 q 562 644 599 606 q 449 683 526 683 l 331 683 l 288 333 l 407 333 m 469 836 q 618 815 556 836 q 721 757 681 794 q 781 669 762 720 q 801 558 801 618 q 775 406 801 476 q 699 286 750 337 q 569 208 647 236 q 388 180 492 180 l 269 180 l 247 0 l 47 0 l 170 1008 l 372 1008 l 351 836 l 469 836 z "},"Q":{"ha":1051,"x_min":51,"x_max":1019,"o":"m 257 442 q 273 323 257 376 q 319 231 289 269 q 393 173 349 193 q 494 152 438 152 q 626 182 567 152 q 726 265 685 211 q 790 395 767 319 q 813 565 813 472 q 797 684 813 631 q 750 776 781 738 q 675 835 719 814 q 574 856 631 856 q 443 826 501 856 q 343 742 384 796 q 279 611 301 688 q 257 442 257 535 m 596 3 q 472 -11 535 -11 q 296 23 374 -11 q 164 118 218 58 q 81 260 110 178 q 51 437 51 342 q 70 595 51 519 q 123 735 89 670 q 207 852 158 799 q 317 941 256 904 q 449 999 378 978 q 599 1019 520 1019 q 774 984 697 1019 q 906 889 852 949 q 990 747 960 828 q 1019 570 1019 665 q 1002 420 1019 492 q 953 285 985 348 q 877 171 922 223 q 776 81 832 119 l 978 -194 l 813 -194 q 750 -185 778 -194 q 703 -150 723 -175 l 596 3 z "},"R":{"ha":842,"x_min":47,"x_max":801,"o":"m 406 528 q 495 544 458 528 q 556 585 532 559 q 590 647 579 612 q 601 722 601 683 q 564 819 601 784 q 447 855 526 855 l 353 855 l 313 528 l 406 528 m 465 1008 q 618 989 555 1008 q 723 936 682 969 q 782 855 763 902 q 801 753 801 808 q 786 646 801 697 q 740 553 770 595 q 668 480 710 512 q 570 428 625 448 q 603 403 588 418 q 629 366 618 388 l 794 0 l 613 0 q 544 39 560 0 l 415 353 q 394 379 406 371 q 356 388 381 388 l 295 388 l 247 0 l 47 0 l 170 1008 l 465 1008 z "},"S":{"ha":721,"x_min":-7,"x_max":718,"o":"m 658 817 q 636 795 647 802 q 610 788 626 788 q 581 798 596 788 q 545 822 565 809 q 499 846 525 835 q 435 857 472 857 q 373 847 399 857 q 328 819 346 837 q 301 776 310 801 q 292 724 292 752 q 308 674 292 694 q 350 639 324 654 q 409 611 376 624 q 478 585 443 599 q 546 553 513 572 q 606 509 580 535 q 648 444 632 482 q 664 353 664 407 q 638 213 664 279 q 564 97 612 147 q 447 18 515 47 q 292 -11 378 -11 q 205 -1 248 -11 q 122 26 161 8 q 50 67 83 43 q -7 122 17 92 l 65 217 q 86 234 73 226 q 112 241 99 241 q 148 227 130 241 q 188 196 165 213 q 241 165 210 179 q 317 151 272 151 q 429 191 389 151 q 469 304 469 231 q 453 359 469 338 q 411 394 437 380 q 352 420 385 409 q 285 444 319 431 q 217 474 250 457 q 158 518 184 491 q 117 584 133 545 q 101 681 101 624 q 125 808 101 747 q 196 916 150 869 q 307 990 242 963 q 453 1018 372 1018 q 534 1009 495 1018 q 608 984 574 1000 q 670 947 642 969 q 718 901 698 926 l 658 817 z "},"Ş":{"ha":721,"x_min":-7,"x_max":718,"o":"m 658 817 q 636 795 647 802 q 610 788 626 788 q 581 798 596 788 q 545 822 565 809 q 499 846 525 835 q 435 857 472 857 q 373 847 399 857 q 328 819 346 837 q 301 776 310 801 q 292 724 292 752 q 308 674 292 694 q 350 639 324 654 q 409 611 376 624 q 478 585 443 599 q 546 553 513 572 q 606 509 580 535 q 648 444 632 482 q 664 353 664 407 q 642 223 664 285 q 578 112 619 160 q 476 32 536 63 q 342 -8 417 0 l 330 -40 q 403 -77 383 -53 q 424 -132 424 -101 q 410 -181 424 -159 q 373 -217 397 -202 q 315 -239 349 -231 q 242 -247 281 -247 q 193 -244 215 -247 q 149 -234 171 -241 l 174 -175 q 182 -163 177 -167 q 197 -158 188 -158 q 215 -162 207 -158 q 238 -166 224 -166 q 265 -157 257 -166 q 274 -137 274 -149 q 255 -114 274 -122 q 192 -99 235 -106 l 233 -6 q 163 10 197 -1 q 97 38 128 22 q 39 76 66 55 q -7 122 13 97 l 65 217 q 86 234 73 226 q 112 241 99 241 q 148 227 130 241 q 188 196 165 213 q 241 165 210 179 q 317 151 272 151 q 429 191 389 151 q 469 304 469 231 q 453 359 469 338 q 411 394 437 380 q 352 420 385 409 q 285 444 319 431 q 217 474 250 457 q 158 518 184 491 q 117 584 133 545 q 101 681 101 624 q 125 808 101 747 q 196 916 150 869 q 307 990 242 963 q 453 1018 372 1018 q 534 1009 495 1018 q 608 984 574 1000 q 670 947 642 969 q 718 901 698 926 l 658 817 z "},"T":{"ha":780,"x_min":73,"x_max":829,"o":"m 808 845 l 542 845 l 438 0 l 238 0 l 340 845 l 73 845 l 92 1008 l 829 1008 l 808 845 z "},"Ŧ":{"ha":799,"x_min":82,"x_max":838,"o":"m 551 845 l 519 592 l 714 592 l 700 480 l 506 480 l 447 0 l 247 0 l 305 480 l 110 480 l 124 592 l 319 592 l 349 845 l 82 845 l 101 1008 l 838 1008 l 817 845 l 551 845 z "},"U":{"ha":965,"x_min":75,"x_max":947,"o":"m 449 159 q 533 176 495 159 q 600 226 572 194 q 647 304 628 258 q 672 405 666 349 l 747 1008 l 947 1008 l 874 405 q 826 238 863 315 q 731 107 789 162 q 597 20 674 51 q 428 -11 520 -11 q 268 20 337 -11 q 155 107 199 51 q 93 238 110 162 q 86 405 75 315 l 158 1008 l 360 1008 l 286 405 q 287 304 279 349 q 315 226 294 258 q 370 176 336 194 q 449 159 403 159 z "},"Ų":{"ha":965,"x_min":76,"x_max":947,"o":"m 947 1008 l 874 405 q 835 260 864 327 q 762 139 807 192 q 658 50 717 86 q 526 -1 598 14 l 529 -1 q 502 -19 515 -9 q 479 -42 489 -30 q 463 -68 469 -54 q 457 -98 457 -83 q 465 -123 457 -114 q 488 -133 472 -133 q 505 -132 499 -133 q 515 -129 510 -131 q 522 -126 519 -127 q 528 -125 524 -125 q 544 -137 542 -125 l 564 -206 q 506 -232 540 -222 q 434 -242 472 -242 q 340 -216 371 -242 q 308 -149 308 -190 q 331 -77 308 -112 q 402 -10 353 -42 q 253 27 317 -6 q 148 115 189 60 q 92 244 108 170 q 86 405 76 318 l 158 1008 l 360 1008 l 286 405 q 287 304 279 349 q 315 226 294 258 q 370 176 336 194 q 449 159 403 159 q 533 176 495 159 q 600 226 572 194 q 647 304 628 258 q 672 405 666 349 l 747 1008 l 947 1008 z "},"V":{"ha":913,"x_min":63,"x_max":992,"o":"m 992 1008 l 495 0 l 313 0 l 63 1008 l 225 1008 q 267 995 251 1008 q 285 963 282 982 l 407 368 q 422 300 415 337 q 434 222 429 263 q 494 368 462 305 l 757 963 q 784 993 765 979 q 829 1008 804 1008 l 992 1008 z "},"W":{"ha":1353,"x_min":74,"x_max":1418,"o":"m 1418 1008 l 1006 0 l 824 0 l 720 670 q 715 701 717 684 q 712 738 713 719 q 686 670 698 700 l 419 0 l 238 0 l 74 1008 l 231 1008 q 273 995 258 1008 q 292 963 289 983 l 372 378 q 376 327 374 354 q 380 270 378 300 q 400 327 390 300 q 419 378 410 355 l 650 963 q 661 980 654 972 q 677 994 667 988 q 697 1004 686 1000 q 721 1008 708 1008 l 768 1008 q 809 995 794 1008 q 830 963 824 982 l 920 378 q 927 330 924 356 q 933 274 931 303 q 950 330 941 303 q 966 378 958 356 l 1187 963 q 1213 994 1192 981 q 1259 1008 1234 1008 l 1418 1008 z "},"X":{"ha":888,"x_min":-63,"x_max":938,"o":"m 599 547 l 847 0 l 666 0 q 635 10 646 0 q 618 33 624 21 l 456 422 q 450 412 453 417 q 443 402 447 407 l 199 33 q 172 8 188 15 q 138 0 156 0 l -63 0 l 321 538 l 98 1008 l 281 1008 q 309 1002 301 1008 q 324 983 318 997 l 468 649 q 476 664 472 657 q 485 678 480 670 l 683 981 q 702 1001 692 994 q 727 1008 713 1008 l 938 1008 l 599 547 z "},"Y":{"ha":858,"x_min":63,"x_max":938,"o":"m 526 391 l 477 0 l 276 0 l 324 388 l 63 1008 l 242 1008 q 283 995 268 1008 q 304 963 297 983 l 419 635 q 435 581 428 607 q 447 531 442 556 q 473 581 459 556 q 504 635 488 606 l 701 963 q 729 993 711 979 q 772 1008 747 1008 l 938 1008 l 526 391 z "},"Z":{"ha":782,"x_min":-28,"x_max":822,"o":"m 813 947 q 805 922 810 933 q 791 899 799 911 l 256 158 l 704 158 l 685 0 l -28 0 l -22 60 q -14 84 -19 74 q 0 107 -8 95 l 536 850 l 109 850 l 128 1008 l 822 1008 l 813 947 z "},"a":{"ha":730,"x_min":19,"x_max":691,"o":"m 490 592 q 478 593 484 593 q 465 593 472 593 q 363 568 410 593 q 283 500 317 543 q 230 400 249 457 q 211 280 211 343 q 233 175 211 208 q 292 143 256 143 q 343 162 317 143 q 390 213 368 181 q 431 290 413 246 q 464 384 450 334 l 490 592 m 443 135 q 341 28 397 67 q 216 -10 284 -10 q 141 5 176 -10 q 78 52 105 21 q 35 132 51 84 q 19 245 19 181 q 35 370 19 310 q 81 485 51 431 q 154 583 111 538 q 249 660 197 628 q 363 709 301 692 q 492 727 424 727 q 592 720 542 727 q 691 694 642 713 l 605 0 l 503 0 q 473 5 485 0 q 453 18 460 10 q 443 38 446 26 q 440 62 440 49 l 443 135 z "},"ą":{"ha":731,"x_min":20,"x_max":692,"o":"m 491 592 q 478 593 485 593 q 466 593 472 593 q 364 568 410 593 q 284 500 317 543 q 231 400 250 457 q 212 280 212 343 q 234 175 212 208 q 292 143 256 143 q 343 162 318 143 q 391 213 369 181 q 432 290 413 246 q 465 384 451 334 l 491 592 m 583 0 q 555 -18 568 -8 q 532 -41 542 -28 q 516 -67 522 -53 q 510 -97 510 -81 q 518 -122 510 -112 q 542 -131 526 -131 q 558 -130 552 -131 q 568 -127 564 -129 q 575 -125 572 -126 q 581 -124 578 -124 q 597 -135 595 -124 l 617 -205 q 559 -230 593 -220 q 488 -240 525 -240 q 393 -214 424 -240 q 362 -148 362 -188 q 389 -69 362 -108 q 476 3 417 -30 q 449 26 456 10 q 441 62 441 42 l 444 135 q 341 28 398 67 q 217 -10 285 -10 q 141 5 177 -10 q 78 52 106 21 q 36 132 51 84 q 20 245 20 181 q 36 370 20 310 q 82 485 52 431 q 155 583 112 538 q 250 660 197 628 q 364 709 302 692 q 493 727 425 727 q 593 720 543 727 q 692 694 643 713 l 606 0 l 583 0 z "},"æ":{"ha":1040,"x_min":-2,"x_max":994,"o":"m 403 315 q 291 301 335 312 q 222 272 247 290 q 186 233 196 255 q 176 185 176 210 q 195 131 176 149 q 247 113 213 113 q 300 123 275 113 q 346 155 326 133 q 381 210 367 176 q 401 292 395 244 l 403 315 m 747 596 q 687 583 713 596 q 641 548 660 571 q 608 492 621 525 q 588 419 595 460 q 706 437 661 426 q 776 462 751 448 q 810 493 801 476 q 819 529 819 510 q 802 577 819 558 q 747 596 785 596 m 994 133 q 922 68 957 95 q 848 24 886 42 q 768 -2 810 6 q 676 -10 726 -10 q 555 22 611 -10 q 466 122 499 54 q 412 61 442 87 q 349 20 382 36 q 280 -3 315 4 q 210 -11 244 -11 q 50 34 103 -11 q -2 162 -2 79 q 18 253 -2 208 q 85 336 38 299 q 214 398 133 374 q 418 426 295 423 l 421 450 q 407 552 428 519 q 339 584 386 584 q 278 575 303 584 q 235 554 254 565 q 198 534 215 543 q 158 524 180 524 q 128 534 140 524 q 109 557 115 543 l 83 615 q 216 700 148 672 q 360 728 283 728 q 476 702 432 728 q 541 627 520 675 q 642 700 585 674 q 771 726 699 726 q 856 711 817 726 q 924 671 895 697 q 969 611 953 645 q 986 539 986 577 q 970 462 986 501 q 909 391 953 424 q 785 338 864 359 q 580 313 706 316 q 616 177 581 220 q 715 135 651 135 q 767 140 744 135 q 806 154 789 146 q 836 171 823 162 q 861 189 849 181 q 885 202 873 197 q 912 208 897 208 q 930 203 922 208 q 946 191 939 199 l 994 133 z "},"b":{"ha":754,"x_min":22,"x_max":713,"o":"m 229 172 q 280 141 251 150 q 334 133 308 133 q 411 159 376 133 q 471 230 446 186 q 510 328 496 273 q 524 439 524 383 q 501 545 524 511 q 439 579 478 579 q 386 561 413 579 q 334 510 360 542 q 288 434 309 478 q 251 341 266 391 l 229 172 m 281 589 q 389 690 330 653 q 515 727 449 727 q 596 711 560 727 q 659 662 633 695 q 699 578 685 629 q 713 458 713 528 q 700 338 713 397 q 664 227 688 279 q 609 132 641 175 q 538 57 576 88 q 455 7 499 25 q 365 -10 411 -10 q 269 11 310 -10 q 198 67 227 32 l 194 51 q 172 13 185 25 q 127 0 158 0 l 22 0 l 148 1035 l 336 1035 l 281 589 z "},"c":{"ha":629,"x_min":26,"x_max":619,"o":"m 581 126 q 514 61 547 88 q 448 19 482 35 q 377 -3 415 3 q 294 -10 340 -10 q 182 11 232 -10 q 98 71 133 32 q 44 166 63 110 q 26 290 26 222 q 54 457 26 378 q 133 595 83 535 q 254 691 184 656 q 406 726 324 726 q 528 701 478 726 q 619 625 579 676 l 557 553 q 542 541 551 546 q 522 535 533 535 q 500 542 510 535 q 478 556 490 549 q 449 570 466 564 q 403 577 431 577 q 333 557 367 577 q 274 499 299 537 q 233 409 248 462 q 217 289 217 356 q 250 174 217 213 q 336 135 283 135 q 397 145 373 135 q 437 168 420 156 q 467 191 453 181 q 499 201 481 201 q 517 197 508 201 q 533 185 526 192 l 581 126 l 581 126 z "},"ç":{"ha":629,"x_min":26,"x_max":619,"o":"m 557 553 q 542 541 551 546 q 522 535 533 535 q 500 542 510 535 q 478 556 490 549 q 449 570 466 564 q 403 577 431 577 q 333 557 367 577 q 274 499 299 537 q 233 409 248 462 q 217 289 217 356 q 250 174 217 213 q 336 135 283 135 q 397 145 373 135 q 437 168 420 156 q 467 191 453 181 q 499 201 481 201 q 517 197 508 201 q 533 185 526 192 l 581 126 q 522 68 551 92 q 465 28 494 44 q 405 3 435 12 q 338 -9 374 -6 l 326 -40 q 399 -77 378 -53 q 419 -132 419 -101 q 406 -181 419 -159 q 368 -217 392 -202 q 311 -239 344 -231 q 238 -247 277 -247 q 189 -244 211 -247 q 144 -234 167 -241 l 169 -175 q 178 -163 173 -167 q 193 -158 183 -158 q 211 -162 203 -158 q 234 -166 219 -166 q 261 -157 253 -166 q 269 -137 269 -149 q 250 -114 269 -122 q 188 -99 231 -106 l 231 -4 q 144 31 183 6 q 80 93 106 56 q 40 181 53 131 q 26 290 26 231 q 54 457 26 378 q 133 595 83 535 q 254 691 184 656 q 406 726 324 726 q 528 701 478 726 q 619 625 579 676 l 557 553 z "},"d":{"ha":756,"x_min":24,"x_max":757,"o":"m 508 546 q 458 575 486 567 q 403 584 430 584 q 327 557 362 584 q 267 487 292 531 q 228 389 242 444 q 215 277 215 333 q 237 172 215 206 q 299 138 259 138 q 351 156 324 138 q 403 206 378 174 q 450 281 428 238 q 487 374 472 324 l 508 546 m 757 1035 l 628 0 l 526 0 q 496 5 508 0 q 477 18 484 10 q 467 38 470 26 q 465 62 465 49 l 468 143 q 355 31 417 72 q 223 -10 293 -10 q 142 6 178 -10 q 79 55 105 22 q 39 138 53 88 q 24 258 24 189 q 37 378 24 319 q 73 489 50 437 q 129 585 97 541 q 200 660 161 628 q 282 709 238 692 q 374 727 326 727 q 458 711 420 727 q 524 667 495 695 l 569 1035 l 757 1035 z "},"ď":{"ha":756,"x_min":24,"x_max":954,"o":"m 927 1036 q 949 1029 944 1036 q 954 1014 954 1022 q 952 999 954 1008 q 941 970 949 990 q 914 916 932 950 q 865 825 896 882 q 836 799 852 804 q 797 793 821 793 l 750 793 l 822 1036 l 927 1036 m 508 546 q 458 575 486 567 q 403 584 430 584 q 327 557 362 584 q 267 487 292 531 q 228 389 242 444 q 215 277 215 333 q 237 172 215 206 q 299 138 259 138 q 351 156 324 138 q 403 206 378 174 q 450 281 428 238 q 487 374 472 324 l 508 546 m 757 1035 l 628 0 l 526 0 q 496 5 508 0 q 477 18 484 10 q 467 38 470 26 q 465 62 465 49 l 468 143 q 355 31 417 72 q 223 -10 293 -10 q 142 6 178 -10 q 79 55 105 22 q 39 138 53 88 q 24 258 24 189 q 37 378 24 319 q 73 489 50 437 q 129 585 97 541 q 200 660 161 628 q 282 709 238 692 q 374 727 326 727 q 458 711 420 727 q 524 667 495 695 l 569 1035 l 757 1035 z "},"đ":{"ha":755,"x_min":24,"x_max":825,"o":"m 506 525 q 456 553 483 545 q 403 561 429 561 q 327 538 362 561 q 267 476 292 515 q 228 385 242 437 q 215 277 215 333 q 237 172 215 206 q 299 138 259 138 q 351 156 324 138 q 403 206 378 174 q 450 281 428 238 q 487 374 472 324 l 506 525 m 812 784 l 726 784 l 628 0 l 526 0 q 496 5 508 0 q 477 18 484 10 q 467 38 470 26 q 465 62 465 49 l 468 143 q 355 31 417 72 q 223 -10 293 -10 q 142 6 178 -10 q 79 55 105 22 q 39 138 53 88 q 24 258 24 189 q 52 432 24 351 q 128 574 81 513 q 240 669 176 634 q 374 704 303 704 q 456 689 419 704 q 521 647 493 674 l 538 784 l 462 784 q 410 799 424 784 q 402 849 397 814 l 410 897 l 552 897 l 569 1035 l 757 1035 l 740 897 l 825 897 l 812 784 z "},"ð":{"ha":742,"x_min":22,"x_max":700,"o":"m 326 128 q 388 141 358 128 q 443 185 417 154 q 487 267 468 216 q 517 392 506 317 q 499 438 510 417 q 472 476 488 460 q 432 501 455 492 q 381 510 410 510 q 307 493 340 510 q 252 447 275 476 q 218 377 230 417 q 206 292 206 338 q 215 222 206 253 q 240 171 224 192 q 278 139 256 150 q 326 128 300 128 m 594 828 q 672 688 644 768 q 700 505 700 608 q 673 290 700 385 q 596 128 647 194 q 472 25 545 61 q 304 -10 398 -10 q 190 10 242 -10 q 101 68 138 30 q 43 160 64 106 q 22 283 22 215 q 48 423 22 357 q 119 540 74 490 q 226 619 164 590 q 360 648 288 648 q 472 623 424 648 q 552 551 519 599 q 528 673 549 620 q 464 766 508 725 l 316 675 l 281 735 q 277 762 274 749 q 292 781 281 774 l 369 828 q 326 847 349 838 q 276 865 303 856 q 240 893 245 874 q 248 939 235 913 l 276 997 q 404 961 344 985 q 515 901 464 938 l 644 978 l 675 919 q 680 892 682 906 q 661 869 678 878 l 594 828 z "},"e":{"ha":681,"x_min":25,"x_max":642,"o":"m 399 594 q 342 582 369 594 q 293 545 315 569 q 254 490 271 522 q 227 417 238 457 q 352 441 304 428 q 425 468 399 453 q 460 501 451 483 q 469 538 469 518 q 465 558 469 548 q 452 576 460 568 q 431 589 444 584 q 399 594 417 594 m 212 294 q 346 135 212 135 q 418 146 390 135 q 467 171 447 158 q 504 196 487 185 q 543 208 521 208 q 561 203 553 208 q 577 191 570 199 l 626 133 q 553 68 588 95 q 479 24 517 42 q 399 -2 441 6 q 308 -10 358 -10 q 192 11 244 -10 q 103 72 140 33 q 45 166 66 111 q 25 290 25 222 q 38 401 25 347 q 74 503 50 455 q 131 593 97 552 q 208 663 165 633 q 302 709 251 692 q 410 726 353 726 q 510 709 467 726 q 583 667 553 693 q 627 609 612 641 q 642 545 642 577 q 622 457 642 497 q 554 385 603 417 q 422 331 506 353 q 212 296 339 308 l 212 294 z "},"ę":{"ha":681,"x_min":25,"x_max":642,"o":"m 399 594 q 342 582 369 594 q 293 545 315 569 q 254 490 271 522 q 227 417 238 457 q 352 441 304 428 q 425 468 399 453 q 460 501 451 483 q 469 538 469 518 q 465 558 469 548 q 452 576 460 568 q 431 589 444 584 q 399 594 417 594 m 626 133 q 521 46 572 79 q 409 0 469 13 l 410 0 q 383 -18 396 -8 q 360 -41 370 -28 q 344 -67 350 -53 q 338 -97 338 -81 q 346 -122 338 -112 q 369 -131 353 -131 q 386 -130 380 -131 q 396 -127 392 -129 q 403 -125 400 -126 q 409 -124 406 -124 q 425 -135 423 -124 l 445 -205 q 387 -230 421 -220 q 315 -240 353 -240 q 221 -214 252 -240 q 190 -148 190 -188 q 212 -76 190 -111 q 283 -10 235 -41 q 177 17 225 -6 q 96 80 130 40 q 43 172 62 119 q 25 290 25 225 q 38 401 25 347 q 74 503 50 455 q 131 593 97 552 q 208 663 165 633 q 302 709 251 692 q 410 726 353 726 q 510 709 467 726 q 583 667 553 693 q 627 609 612 641 q 642 545 642 577 q 622 457 642 497 q 554 385 603 417 q 422 331 506 353 q 212 296 339 308 l 212 294 q 346 135 212 135 q 418 146 390 135 q 467 171 447 158 q 504 196 487 185 q 543 208 521 208 q 561 203 553 208 q 577 191 570 199 l 626 133 z "},"f":{"ha":466,"x_min":48,"x_max":544,"o":"m 326 578 l 260 32 l 224 -94 q 189 -151 212 -131 q 125 -172 167 -172 l 48 -172 l 138 578 l 89 588 q 60 604 71 593 q 51 635 49 615 l 61 712 l 155 712 l 160 759 q 193 870 168 820 q 258 954 219 919 q 349 1007 297 988 q 460 1026 400 1026 q 503 1023 483 1026 q 544 1013 524 1019 l 526 915 q 507 894 523 899 q 473 890 491 890 q 423 883 446 890 q 384 859 401 876 q 356 817 367 843 q 341 753 345 791 l 336 712 l 490 712 l 472 578 l 326 578 z "},"ﬀ":{"ha":890,"x_min":48,"x_max":962,"o":"m 754 712 l 915 712 l 899 583 l 744 583 l 678 32 l 642 -94 q 607 -151 630 -131 q 543 -172 585 -172 l 466 -172 l 556 583 l 327 583 l 260 32 l 224 -94 q 190 -151 213 -131 q 126 -172 167 -172 l 48 -172 l 140 583 l 92 593 q 60 607 72 597 q 51 638 49 618 l 61 712 l 156 712 l 160 747 q 192 857 167 808 q 256 941 217 907 q 344 994 294 976 q 453 1013 394 1013 q 497 1010 476 1013 q 537 1000 517 1006 l 519 902 q 500 881 516 885 q 466 877 484 877 q 418 872 440 877 q 382 852 397 867 q 356 814 366 838 q 341 752 345 790 l 335 712 l 572 712 l 578 771 q 611 882 586 832 q 676 966 637 931 q 766 1019 715 1000 q 877 1038 817 1038 q 921 1034 901 1038 q 962 1025 942 1031 l 944 926 q 925 906 940 910 q 891 901 909 901 q 841 894 863 901 q 803 871 819 888 q 776 829 786 855 q 760 765 765 803 l 754 712 z "},"ﬁ":{"ha":797,"x_min":47,"x_max":751,"o":"m 751 712 l 665 0 l 477 0 l 549 578 l 326 578 l 259 31 l 223 -96 q 188 -152 211 -132 q 124 -173 165 -173 l 47 -173 l 139 578 l 93 588 q 61 602 72 592 q 51 633 49 613 l 60 712 l 156 712 l 158 729 q 193 851 165 794 q 268 948 220 907 q 384 1013 315 990 q 542 1037 452 1037 q 601 1034 570 1037 q 652 1024 631 1031 l 633 930 q 614 909 630 913 q 579 906 599 906 q 470 894 515 906 q 398 861 426 883 q 356 805 370 839 q 336 726 342 772 l 335 712 l 751 712 z "},"ﬃ":{"ha":1215,"x_min":48,"x_max":1170,"o":"m 335 712 l 576 712 l 578 729 q 614 851 586 794 q 689 948 641 907 q 805 1013 736 990 q 963 1037 873 1037 q 1021 1034 990 1037 q 1072 1024 1051 1031 l 1054 930 q 1035 909 1051 913 q 1000 906 1019 906 q 891 894 935 906 q 818 861 847 883 q 776 805 790 839 q 756 726 762 772 l 755 712 l 1170 712 l 1083 0 l 899 0 l 970 583 l 746 583 l 679 31 l 643 -96 q 609 -152 631 -132 q 544 -173 586 -173 l 467 -173 l 560 583 l 327 583 l 260 32 l 224 -94 q 190 -151 213 -131 q 126 -172 167 -172 l 48 -172 l 140 583 l 92 593 q 60 607 72 597 q 51 638 49 618 l 61 712 l 156 712 l 160 747 q 192 857 167 808 q 256 941 217 907 q 344 994 294 976 q 453 1013 394 1013 q 497 1010 476 1013 q 537 1000 517 1006 l 519 902 q 500 881 516 885 q 466 877 484 877 q 418 872 440 877 q 382 852 397 867 q 356 814 366 838 q 341 752 345 790 l 335 712 z "},"ﬂ":{"ha":807,"x_min":47,"x_max":805,"o":"m 326 578 l 259 31 l 223 -96 q 188 -152 211 -132 q 124 -173 165 -173 l 47 -173 l 139 578 l 93 588 q 60 602 72 592 q 51 633 49 613 l 60 712 l 156 712 l 159 741 q 189 849 166 797 q 250 940 211 901 q 345 1004 290 980 q 474 1028 401 1028 q 581 1024 531 1028 q 682 1019 631 1020 l 805 1019 l 679 0 l 494 0 l 601 885 q 543 892 572 889 q 488 895 515 895 q 385 857 424 895 q 339 741 347 818 l 336 712 l 481 712 l 465 578 l 326 578 z "},"ﬄ":{"ha":1225,"x_min":45,"x_max":1222,"o":"m 333 710 l 572 710 l 576 741 q 606 849 583 797 q 668 940 629 901 q 764 1004 708 980 q 892 1028 819 1028 q 1007 1024 953 1028 q 1117 1019 1061 1019 l 1222 1019 l 1097 0 l 912 0 l 1019 885 q 961 892 990 889 q 906 895 932 895 q 803 857 842 895 q 757 741 765 818 l 753 710 l 915 710 l 899 581 l 744 581 l 676 31 l 640 -96 q 606 -152 628 -132 q 542 -173 583 -173 l 465 -173 l 557 581 l 324 581 l 258 32 l 221 -94 q 186 -151 209 -131 q 122 -172 164 -172 l 45 -172 l 137 582 l 92 591 q 60 606 72 595 q 51 636 49 616 l 61 710 l 152 710 l 157 747 q 190 857 165 808 q 253 941 215 907 q 342 994 292 976 q 450 1013 392 1013 q 493 1010 473 1013 q 534 1000 514 1006 l 517 902 q 497 881 513 885 q 463 877 481 877 q 416 872 437 877 q 379 852 394 867 q 353 814 363 838 q 338 752 342 790 l 333 710 z "},"g":{"ha":708,"x_min":-46,"x_max":722,"o":"m 262 -119 q 327 -110 298 -119 q 378 -85 357 -101 q 411 -46 399 -69 q 423 3 423 -24 q 423 17 423 10 q 422 30 422 24 q 290 42 344 43 q 201 29 235 40 q 151 0 167 18 q 135 -40 135 -19 q 166 -99 135 -79 q 262 -119 196 -119 m 323 340 q 373 354 351 340 q 409 391 394 368 q 431 442 424 413 q 440 499 439 470 q 418 574 440 547 q 353 601 396 601 q 303 588 324 601 q 267 553 281 575 q 245 504 252 532 q 238 446 238 476 q 259 368 238 396 q 323 340 281 340 m 722 690 l 713 629 q 676 581 708 593 l 609 560 q 615 506 615 534 q 601 427 615 460 q 572 365 588 394 q 542 307 556 337 q 529 238 529 278 q 540 186 529 210 q 563 137 551 162 q 586 83 576 112 q 597 18 597 55 q 573 -84 597 -36 q 504 -169 549 -133 q 394 -227 459 -206 q 246 -248 328 -248 q 124 -234 178 -248 q 32 -195 70 -220 q -26 -137 -6 -171 q -46 -64 -46 -103 q -24 23 -46 -13 q 34 84 -2 60 q 116 123 69 109 q 211 143 163 138 q 308 147 260 149 q 396 138 356 145 q 392 178 392 157 q 413 265 392 217 q 352 237 386 247 q 268 227 317 227 q 190 241 227 227 q 125 281 153 254 q 80 350 97 308 q 63 447 63 391 q 83 550 63 499 q 142 640 103 600 q 240 703 181 679 q 374 727 298 727 q 451 718 415 727 q 519 690 488 709 l 722 690 z "},"h":{"ha":758,"x_min":22,"x_max":701,"o":"m 288 608 q 396 698 338 669 q 515 727 454 727 q 597 709 560 727 q 657 656 633 691 q 691 571 681 622 q 692 455 701 520 l 638 0 l 447 0 l 501 455 q 494 547 509 519 q 442 574 480 574 q 391 560 417 574 q 341 520 365 547 q 295 458 316 494 q 260 376 274 422 l 214 0 l 22 0 l 148 1035 l 340 1035 l 288 608 z "},"ĥ":{"ha":758,"x_min":1,"x_max":701,"o":"m 186 1088 q 165 1080 177 1083 q 140 1076 152 1076 l 1 1076 l 176 1230 l 360 1230 l 497 1076 l 357 1076 q 335 1080 347 1076 q 315 1088 323 1084 l 267 1130 l 256 1138 l 244 1130 l 186 1088 m 288 608 q 396 698 338 669 q 515 727 454 727 q 597 709 560 727 q 657 656 633 691 q 691 571 681 622 q 692 455 701 520 l 638 0 l 447 0 l 501 455 q 494 547 509 519 q 442 574 480 574 q 391 560 417 574 q 341 520 365 547 q 295 458 316 494 q 260 376 274 422 l 214 0 l 22 0 l 148 1035 l 340 1035 l 288 608 z "},"ħ":{"ha":758,"x_min":21,"x_max":698,"o":"m 285 583 q 393 674 335 644 q 513 703 451 703 q 594 685 558 703 q 655 633 631 667 q 688 547 678 598 q 690 431 698 497 l 638 0 l 447 0 l 499 431 q 492 523 506 496 q 439 551 477 551 q 388 536 415 551 q 337 496 362 522 q 291 432 313 469 q 256 349 270 395 l 214 0 l 22 0 l 117 783 l 21 783 l 37 899 l 131 899 l 148 1035 l 340 1035 l 323 899 l 497 899 l 488 831 q 468 796 484 809 q 427 783 453 783 l 309 783 l 285 583 z "},"i":{"ha":349,"x_min":29,"x_max":345,"o":"m 303 716 l 218 0 l 29 0 l 115 716 l 303 716 m 345 919 q 335 874 345 895 q 309 838 325 853 q 271 813 292 822 q 228 803 250 803 q 185 813 206 803 q 149 838 165 822 q 124 874 133 853 q 115 919 115 895 q 124 964 115 943 q 150 1001 134 985 q 186 1027 165 1017 q 228 1036 206 1036 q 273 1027 251 1036 q 310 1002 294 1018 q 335 965 326 986 q 345 919 345 944 z "},"į":{"ha":349,"x_min":-32,"x_max":345,"o":"m 189 0 q 161 -18 174 -8 q 139 -41 149 -28 q 123 -67 128 -53 q 117 -97 117 -81 q 124 -122 117 -112 q 148 -131 132 -131 q 164 -130 158 -131 q 174 -127 170 -129 q 181 -125 178 -126 q 188 -124 184 -124 q 203 -135 201 -124 l 224 -205 q 165 -230 199 -220 q 94 -240 131 -240 q -1 -214 31 -240 q -32 -148 -32 -188 q -6 -71 -32 -108 q 76 0 20 -33 l 29 0 l 115 716 l 303 716 l 218 0 l 189 0 m 228 1036 q 273 1027 251 1036 q 310 1002 294 1018 q 335 965 326 986 q 345 919 345 944 q 335 874 345 895 q 309 838 325 853 q 271 813 292 822 q 228 803 250 803 q 185 813 206 803 q 149 838 165 822 q 124 874 133 853 q 115 919 115 895 q 124 964 115 943 q 150 1001 134 985 q 186 1027 165 1017 q 228 1036 206 1036 z "},"ı":{"ha":349,"x_min":29,"x_max":303,"o":"m 303 716 l 218 0 l 29 0 l 115 716 l 303 716 z "},"j":{"ha":348,"x_min":-128,"x_max":338,"o":"m 303 716 l 214 -14 q 190 -105 208 -62 q 140 -180 172 -148 q 65 -231 109 -212 q -37 -249 20 -249 q -87 -246 -67 -249 q -128 -236 -108 -242 l -110 -135 q -97 -115 -106 -121 q -65 -110 -87 -110 q -26 -105 -42 -110 q 0 -90 -10 -101 q 17 -60 10 -78 q 26 -14 23 -42 l 115 716 l 303 716 m 338 919 q 328 874 338 895 q 301 838 318 853 q 264 813 285 822 q 220 803 242 803 q 177 813 198 803 q 141 838 157 822 q 116 874 126 853 q 107 919 107 895 q 117 964 107 943 q 142 1001 126 985 q 179 1027 158 1017 q 222 1036 199 1036 q 265 1027 244 1036 q 302 1002 286 1018 q 328 965 319 986 q 338 919 338 944 z "},"ȷ":{"ha":348,"x_min":-128,"x_max":303,"o":"m 303 716 l 214 -14 q 190 -105 208 -62 q 140 -180 172 -148 q 65 -231 109 -212 q -37 -249 20 -249 q -87 -246 -67 -249 q -128 -236 -108 -242 l -110 -135 q -97 -115 -106 -121 q -65 -110 -87 -110 q -26 -105 -42 -110 q 0 -90 -10 -101 q 17 -60 10 -78 q 26 -14 23 -42 l 115 716 l 303 716 z "},"k":{"ha":710,"x_min":21,"x_max":735,"o":"m 337 1035 l 265 448 l 281 448 q 308 453 298 448 q 331 472 319 458 l 501 683 q 528 708 514 699 q 564 716 543 716 l 735 716 l 515 455 q 487 426 501 439 q 457 403 473 413 q 480 378 471 392 q 498 345 490 363 l 660 0 l 494 0 q 459 7 473 0 q 438 33 445 15 l 317 297 q 301 318 309 313 q 272 323 292 323 l 249 323 l 210 0 l 21 0 l 149 1035 l 337 1035 z "},"ĸ":{"ha":710,"x_min":22,"x_max":735,"o":"m 299 716 l 265 448 l 282 448 q 309 453 298 448 q 331 472 319 458 l 501 683 q 529 708 515 699 q 565 716 543 716 l 735 716 l 519 455 q 460 403 491 422 q 482 377 472 392 q 499 345 491 363 l 660 0 l 495 0 q 460 7 474 0 q 440 33 447 15 l 317 297 q 301 318 310 313 q 273 323 292 323 l 250 323 l 210 0 l 22 0 l 110 716 l 299 716 z "},"ł":{"ha":433,"x_min":28,"x_max":438,"o":"m 438 696 l 438 587 q 413 547 438 556 l 325 510 l 263 0 l 74 0 l 128 442 l 28 403 l 28 515 q 51 550 28 540 l 146 590 l 200 1035 l 389 1035 l 343 658 l 438 696 z "},"ľ":{"ha":340,"x_min":24,"x_max":540,"o":"m 513 1036 q 535 1029 531 1036 q 540 1014 540 1022 q 538 999 540 1008 q 527 970 536 990 q 500 916 518 950 q 451 825 482 882 q 423 799 438 804 q 383 793 407 793 l 336 793 l 408 1036 l 513 1036 m 24 0 l 149 1035 l 338 1035 l 212 0 l 24 0 z "},"m":{"ha":1105,"x_min":22,"x_max":1047,"o":"m 22 0 l 109 717 l 208 717 q 254 702 238 717 q 271 656 271 688 l 269 594 q 369 694 316 662 q 482 727 423 727 q 584 685 545 727 q 632 564 624 644 q 740 688 681 648 q 870 727 799 727 q 950 709 915 727 q 1008 656 985 691 q 1039 571 1031 622 q 1039 455 1047 520 l 985 0 l 797 0 l 850 455 q 846 546 858 519 q 801 573 834 573 q 754 560 776 573 q 711 523 731 547 q 674 464 691 499 q 644 386 656 430 l 598 0 l 409 0 l 463 455 q 460 546 471 519 q 415 573 449 573 q 367 559 390 573 q 323 521 344 546 q 286 460 303 496 q 256 380 269 424 l 210 0 l 22 0 z "},"n":{"ha":758,"x_min":23,"x_max":701,"o":"m 268 580 q 385 691 322 655 q 517 727 449 727 q 598 709 562 727 q 658 656 634 691 q 692 571 682 622 q 693 455 701 520 l 639 0 l 448 0 l 501 455 q 495 546 510 519 q 444 573 481 573 q 390 557 417 573 q 336 513 362 542 q 289 444 310 485 q 254 355 267 404 l 215 0 l 23 0 l 109 717 l 207 717 q 253 702 237 717 q 270 656 270 688 l 268 580 z "},"ŋ":{"ha":759,"x_min":23,"x_max":701,"o":"m 268 580 q 385 691 322 655 q 517 727 449 727 q 598 709 562 727 q 658 656 634 691 q 692 571 682 622 q 693 455 701 520 l 650 82 l 644 31 q 616 -83 636 -31 q 561 -172 596 -135 q 476 -230 526 -209 q 357 -250 426 -250 q 325 -249 339 -250 q 299 -247 311 -249 q 274 -243 287 -246 q 247 -236 262 -240 l 263 -147 q 268 -128 265 -136 q 275 -116 270 -121 q 287 -109 279 -111 q 306 -107 294 -107 q 326 -109 317 -107 q 354 -111 335 -111 q 419 -83 397 -111 q 449 9 442 -55 l 456 63 l 501 455 q 495 546 510 519 q 444 573 481 573 q 390 557 417 573 q 336 513 362 542 q 289 444 310 485 q 254 355 267 404 l 215 0 l 23 0 l 109 717 l 207 717 q 253 702 237 717 q 270 656 270 688 l 268 580 z "},"o":{"ha":729,"x_min":26,"x_max":688,"o":"m 323 133 q 395 157 363 133 q 449 220 427 181 q 484 313 472 260 q 496 425 496 366 q 470 545 496 508 q 390 583 444 583 q 318 559 351 583 q 264 497 286 536 q 230 404 242 457 q 217 292 217 351 q 243 172 217 210 q 323 133 269 133 m 306 -10 q 195 9 247 -10 q 106 67 144 29 q 48 162 69 106 q 26 290 26 218 q 57 464 26 384 q 140 603 88 544 q 261 694 192 661 q 408 727 331 727 q 518 707 467 727 q 607 649 569 688 q 666 554 644 610 q 688 426 688 498 q 657 253 688 333 q 574 115 626 173 q 452 23 522 56 q 306 -10 383 -10 z "},"ø":{"ha":728,"x_min":-17,"x_max":730,"o":"m 633 617 q 673 532 659 580 q 687 426 687 485 q 656 253 687 333 q 573 115 626 173 q 452 23 521 56 q 306 -10 383 -10 q 167 22 228 -10 q 113 -20 144 -8 q 52 -33 82 -33 l -17 -33 l 80 99 q 40 184 53 136 q 26 290 26 231 q 56 464 26 384 q 139 603 87 544 q 260 694 191 661 q 407 727 330 727 q 546 694 485 727 l 549 699 q 568 722 560 713 q 586 737 576 731 q 607 746 595 743 q 635 749 619 749 l 730 749 l 633 617 m 444 581 q 390 594 420 594 q 316 573 350 594 q 257 512 282 551 q 219 416 233 472 q 205 292 205 360 q 207 251 205 270 l 444 581 m 267 137 q 323 122 290 122 q 397 143 363 122 q 455 206 431 165 q 494 301 480 246 q 508 425 508 357 q 506 466 508 447 l 267 137 z "},"œ":{"ha":1113,"x_min":24,"x_max":1067,"o":"m 494 420 q 477 543 500 499 q 398 588 453 588 q 319 564 353 588 q 260 497 284 540 q 224 394 236 454 q 211 262 211 335 q 216 211 211 235 q 233 169 222 188 q 264 140 244 151 q 311 129 283 129 q 388 150 355 129 q 442 209 420 171 q 477 301 465 247 q 494 420 490 354 m 823 597 q 716 549 761 597 q 653 410 670 501 q 780 435 731 421 q 857 466 829 450 q 896 500 885 483 q 907 536 907 518 q 887 579 907 560 q 823 597 867 597 m 1061 133 q 988 68 1024 95 q 915 24 953 42 q 835 -2 876 6 q 743 -10 793 -10 q 625 20 679 -10 q 537 116 570 51 q 416 22 485 55 q 265 -10 347 -10 q 162 11 207 -10 q 87 68 117 32 q 40 151 56 103 q 24 251 24 199 q 57 457 24 368 q 144 606 90 546 q 269 697 199 666 q 415 727 340 727 q 531 700 482 727 q 609 624 579 674 q 715 700 654 672 q 853 727 776 727 q 941 714 901 727 q 1009 676 981 700 q 1052 618 1037 651 q 1067 543 1067 584 q 1048 456 1067 496 q 981 385 1029 417 q 852 332 933 354 q 647 297 771 309 q 685 174 650 213 q 781 135 720 135 q 833 140 811 135 q 873 154 856 146 q 903 171 890 162 q 928 189 916 181 q 952 202 940 197 q 978 208 964 208 q 997 203 988 208 q 1013 191 1006 199 l 1061 133 z "},"p":{"ha":755,"x_min":-6,"x_max":713,"o":"m 230 171 q 280 141 252 150 q 334 133 308 133 q 411 159 376 133 q 471 230 446 186 q 510 328 496 273 q 524 439 524 383 q 501 545 524 511 q 440 579 478 579 q 387 561 414 579 q 335 511 360 542 q 288 436 310 479 q 251 344 267 393 l 230 171 m 268 571 q 381 685 319 643 q 515 727 444 727 q 596 711 560 727 q 659 662 633 695 q 699 578 685 629 q 713 458 713 528 q 700 338 713 397 q 665 227 688 279 q 609 132 642 175 q 538 57 577 88 q 455 7 499 25 q 365 -10 411 -10 q 281 6 318 -10 q 215 49 243 22 l 181 -231 l -6 -231 l 110 717 l 208 717 q 254 702 238 717 q 271 656 271 688 l 268 571 z "},"þ":{"ha":755,"x_min":-6,"x_max":713,"o":"m 230 171 q 280 141 252 150 q 334 133 308 133 q 411 159 376 133 q 471 230 446 186 q 510 328 496 273 q 524 439 524 383 q 501 545 524 511 q 440 579 478 579 q 387 561 414 579 q 335 511 360 543 q 289 437 310 480 q 251 345 267 394 l 230 171 m 282 590 q 390 690 331 653 q 515 727 449 727 q 596 711 560 727 q 659 662 633 695 q 699 578 685 629 q 713 458 713 528 q 700 338 713 397 q 665 227 688 279 q 609 132 642 175 q 538 57 577 88 q 455 7 499 25 q 365 -10 411 -10 q 281 6 318 -10 q 215 49 243 22 l 188 -169 q 181 -192 187 -181 q 165 -212 175 -203 q 142 -226 156 -221 q 113 -231 129 -231 l -6 -231 l 149 1035 l 337 1035 l 282 590 z "},"q":{"ha":731,"x_min":20,"x_max":692,"o":"m 491 592 q 478 593 484 593 q 466 593 472 593 q 364 568 410 593 q 284 500 317 543 q 231 400 250 457 q 212 280 212 343 q 234 175 212 208 q 292 143 256 143 q 343 162 318 143 q 391 213 368 181 q 432 289 413 245 q 464 383 450 333 l 491 592 m 430 115 q 333 23 386 56 q 217 -10 280 -10 q 141 5 177 -10 q 78 52 106 21 q 36 132 51 84 q 20 245 20 181 q 36 370 20 310 q 82 485 52 431 q 155 583 112 538 q 250 660 197 628 q 364 709 302 692 q 493 727 425 727 q 593 720 543 727 q 692 694 643 713 l 576 -231 l 451 -231 q 421 -225 433 -231 q 403 -208 410 -218 q 395 -186 397 -198 q 394 -162 393 -174 l 430 115 z "},"r":{"ha":497,"x_min":22,"x_max":524,"o":"m 268 556 q 325 642 295 606 q 388 697 356 677 q 455 720 421 717 q 524 708 489 723 l 489 528 q 412 542 448 545 q 346 515 376 540 q 292 442 316 490 q 249 321 267 394 l 210 0 l 22 0 l 109 717 l 208 717 q 254 702 238 717 q 271 656 271 688 l 268 556 z "},"s":{"ha":566,"x_min":-17,"x_max":556,"o":"m 506 574 q 490 557 498 563 q 470 552 482 552 q 444 559 457 552 q 415 574 431 566 q 379 589 399 582 q 331 596 358 596 q 253 574 278 596 q 228 518 228 551 q 248 475 228 491 q 299 445 268 458 q 365 419 329 433 q 431 385 400 406 q 481 332 461 365 q 501 249 501 299 q 481 149 501 196 q 420 66 460 101 q 326 10 381 31 q 201 -11 270 -11 q 135 -5 167 -11 q 74 14 103 2 q 22 42 45 26 q -17 77 -1 58 l 30 149 q 50 168 38 161 q 78 175 62 175 q 106 166 94 175 q 134 148 119 158 q 170 129 149 138 q 226 120 192 120 q 271 127 251 120 q 305 145 291 133 q 325 172 318 156 q 331 203 331 187 q 311 251 331 234 q 261 280 291 267 q 195 304 231 292 q 130 336 160 316 q 79 388 99 356 q 59 474 59 420 q 77 568 59 522 q 131 649 96 613 q 219 706 167 684 q 340 727 272 727 q 465 703 410 727 q 556 642 519 679 l 506 574 z "},"ş":{"ha":566,"x_min":-17,"x_max":556,"o":"m 506 574 q 490 557 498 563 q 470 552 482 552 q 444 559 457 552 q 415 574 431 566 q 379 589 399 582 q 331 596 358 596 q 253 574 278 596 q 228 518 228 551 q 248 475 228 491 q 299 445 268 458 q 365 419 329 433 q 431 385 400 406 q 481 332 461 365 q 501 249 501 299 q 485 159 501 201 q 437 82 468 117 q 361 25 406 48 q 260 -7 316 1 l 247 -40 q 320 -77 300 -53 q 341 -132 341 -101 q 327 -181 341 -159 q 290 -217 314 -202 q 232 -239 266 -231 q 159 -247 199 -247 q 110 -244 133 -247 q 66 -234 88 -241 l 91 -175 q 100 -163 94 -167 q 115 -158 105 -158 q 133 -162 124 -158 q 156 -166 141 -166 q 183 -157 174 -166 q 191 -137 191 -149 q 172 -114 191 -122 q 109 -99 153 -106 l 151 -7 q 53 24 97 1 q -17 77 8 47 l 30 149 q 50 168 38 161 q 78 175 62 175 q 106 166 94 175 q 134 148 119 158 q 170 129 149 138 q 226 120 192 120 q 271 127 251 120 q 305 145 291 133 q 325 172 318 156 q 331 203 331 187 q 311 251 331 234 q 261 280 291 267 q 195 304 231 292 q 130 336 160 316 q 79 388 99 356 q 59 474 59 420 q 77 568 59 522 q 131 649 96 613 q 219 706 167 684 q 340 727 272 727 q 465 703 410 727 q 556 642 519 679 l 506 574 z "},"ß":{"ha":860,"x_min":43,"x_max":815,"o":"m 172 710 q 227 828 191 772 q 311 929 263 885 q 421 998 360 972 q 551 1024 481 1024 q 676 1002 626 1024 q 757 948 726 981 q 802 876 788 915 q 815 804 815 838 q 801 727 815 758 q 766 672 787 695 q 719 633 744 649 q 673 601 694 616 q 638 569 652 585 q 624 531 624 553 q 637 497 624 512 q 671 467 651 482 q 715 435 691 452 q 759 394 739 418 q 793 339 779 371 q 806 263 806 307 q 782 143 806 194 q 716 58 757 92 q 623 6 676 24 q 515 -11 571 -11 q 458 -5 486 -11 q 404 14 430 2 q 356 42 378 26 q 316 77 333 58 l 368 146 q 389 165 376 158 q 418 172 401 172 q 447 163 434 172 q 474 143 460 154 q 505 124 488 133 q 547 115 522 115 q 578 123 563 115 q 605 144 593 131 q 623 175 616 157 q 630 214 630 193 q 615 260 630 241 q 577 295 599 279 q 527 326 554 310 q 478 362 501 342 q 440 410 456 382 q 425 478 425 438 q 441 558 425 525 q 480 615 456 591 q 531 659 503 640 q 581 698 558 678 q 620 741 605 717 q 636 799 636 765 q 630 836 636 819 q 610 866 624 853 q 576 886 597 878 q 527 893 556 893 q 454 869 486 893 q 398 807 422 846 q 359 718 374 767 q 338 616 344 668 l 267 32 l 231 -94 q 196 -151 219 -131 q 132 -172 174 -172 l 55 -172 l 146 578 l 88 590 q 55 605 67 595 q 46 635 43 615 l 55 710 l 172 710 z "},"ſ":{"ha":415,"x_min":43,"x_max":544,"o":"m 167 759 q 199 869 175 820 q 260 953 223 919 q 348 1006 298 988 q 459 1024 399 1024 q 503 1020 483 1024 q 544 1010 524 1017 l 527 917 q 508 897 524 901 q 475 893 493 893 q 427 886 448 893 q 392 862 407 878 q 368 818 377 845 q 354 753 358 792 l 267 32 l 231 -94 q 196 -151 219 -131 q 132 -172 174 -172 l 55 -172 l 146 578 l 88 590 q 55 605 67 595 q 46 635 43 615 l 55 710 l 161 710 l 167 759 z "},"t":{"ha":515,"x_min":40,"x_max":505,"o":"m 85 150 q 85 161 85 155 q 86 181 85 168 q 89 215 87 194 q 96 270 92 236 l 134 578 l 72 578 q 49 588 58 578 q 43 617 40 598 l 52 692 l 160 713 l 219 899 q 262 930 229 930 l 365 930 l 338 712 l 505 712 l 489 578 l 322 578 l 285 281 q 279 235 281 252 q 276 210 277 219 q 275 198 275 201 q 275 193 275 194 q 286 155 275 169 q 319 140 297 140 q 341 143 332 140 q 357 150 350 147 q 369 157 363 154 q 381 160 374 160 q 394 157 390 160 q 402 144 398 153 l 444 52 q 356 5 403 21 q 259 -11 308 -11 q 134 32 180 -11 q 85 150 88 74 z "},"ť":{"ha":514,"x_min":40,"x_max":606,"o":"m 579 1036 q 601 1029 596 1036 q 606 1014 606 1022 q 603 999 606 1008 q 592 970 601 990 q 565 916 583 950 q 516 825 547 882 q 488 799 504 804 q 449 793 472 793 l 402 793 l 473 1036 l 579 1036 m 85 150 q 85 161 85 155 q 86 181 85 168 q 89 215 87 194 q 96 270 92 236 l 134 578 l 72 578 q 49 588 58 578 q 43 617 40 598 l 52 692 l 160 713 l 219 899 q 262 930 229 930 l 365 930 l 338 712 l 505 712 l 489 578 l 322 578 l 285 281 q 279 235 281 252 q 276 210 277 219 q 275 198 275 201 q 275 193 275 194 q 286 155 275 169 q 319 140 297 140 q 341 143 332 140 q 357 150 350 147 q 369 157 363 154 q 381 160 374 160 q 394 157 390 160 q 402 144 398 153 l 444 52 q 356 5 403 21 q 259 -11 308 -11 q 134 32 180 -11 q 85 150 88 74 z "},"ŧ":{"ha":520,"x_min":15,"x_max":510,"o":"m 90 150 q 90 161 90 155 q 91 181 90 168 q 94 215 92 194 q 101 270 97 236 l 113 367 l 49 367 q 25 377 35 367 q 16 407 15 388 l 26 483 l 127 483 l 139 578 l 76 578 q 54 588 63 578 q 48 617 45 598 l 57 692 l 165 713 l 224 899 q 267 930 234 930 l 369 930 l 342 712 l 510 712 l 494 578 l 326 578 l 315 483 l 481 483 l 465 367 l 300 367 l 290 281 q 284 235 286 252 q 281 210 282 219 q 280 198 280 201 q 280 193 280 194 q 291 155 280 169 q 324 140 302 140 q 346 143 337 140 q 361 150 355 147 q 374 157 368 154 q 385 160 379 160 q 399 157 394 160 q 407 144 403 153 l 449 52 q 360 5 408 21 q 264 -11 313 -11 q 139 32 185 -11 q 90 150 92 74 z "},"u":{"ha":758,"x_min":40,"x_max":718,"o":"m 718 716 l 631 0 l 534 0 q 466 65 466 0 l 468 129 q 353 24 415 58 q 224 -10 291 -10 q 143 8 179 -10 q 83 60 107 26 q 50 145 60 95 q 49 261 40 196 l 102 716 l 294 716 l 240 261 q 246 170 232 197 q 298 143 260 143 q 350 157 323 143 q 401 198 376 172 q 447 261 426 224 q 482 344 468 299 l 527 716 l 718 716 z "},"ų":{"ha":758,"x_min":40,"x_max":718,"o":"m 605 0 q 577 -18 590 -8 q 555 -41 565 -28 q 539 -67 544 -53 q 533 -97 533 -81 q 540 -122 533 -112 q 564 -131 548 -131 q 580 -130 574 -131 q 590 -127 586 -129 q 597 -125 594 -126 q 603 -124 600 -124 q 619 -135 617 -124 l 640 -205 q 581 -230 615 -220 q 510 -240 547 -240 q 415 -214 447 -240 q 384 -148 384 -188 q 412 -68 384 -107 q 501 5 440 -28 q 466 65 466 19 l 468 129 q 353 24 415 58 q 224 -10 291 -10 q 143 8 179 -10 q 83 60 107 26 q 50 145 60 95 q 49 261 40 196 l 102 716 l 294 716 l 240 261 q 246 170 232 197 q 298 143 260 143 q 350 157 323 143 q 401 198 376 172 q 447 261 426 224 q 482 344 468 299 l 527 716 l 718 716 l 631 0 l 605 0 z "},"v":{"ha":690,"x_min":37,"x_max":726,"o":"m 726 716 l 375 0 l 214 0 l 37 716 l 194 716 q 226 706 215 716 q 241 681 238 697 l 303 327 q 313 254 309 290 q 319 182 317 218 q 372 327 342 253 l 522 681 q 543 706 529 697 q 574 716 557 716 l 726 716 z "},"w":{"ha":1033,"x_min":40,"x_max":1059,"o":"m 1059 716 l 765 0 l 617 0 q 598 8 605 0 q 588 33 591 15 l 526 421 q 520 477 522 449 q 510 448 515 463 q 499 419 504 434 l 344 33 q 303 0 330 0 l 160 0 l 40 716 l 187 716 q 218 706 206 716 q 233 681 230 697 l 265 327 q 272 200 269 261 q 295 263 283 231 q 321 327 307 294 l 460 683 q 480 707 466 697 q 512 717 494 717 l 594 717 q 626 707 614 717 q 640 683 638 697 l 691 327 q 700 263 696 294 q 707 201 703 232 q 726 263 716 232 q 747 327 735 294 l 868 681 q 888 706 874 697 q 919 716 901 716 l 1059 716 z "},"x":{"ha":690,"x_min":-60,"x_max":711,"o":"m 461 388 l 642 0 l 468 0 q 438 10 449 0 q 421 34 426 20 l 321 271 q 305 242 314 256 l 160 34 q 139 10 151 21 q 108 0 126 0 l -60 0 l 222 388 l 58 716 l 233 716 q 260 711 252 716 q 274 693 269 706 l 364 492 q 373 510 368 501 q 385 527 378 518 l 496 689 q 538 716 513 716 l 711 716 l 461 388 z "},"y":{"ha":690,"x_min":38,"x_max":728,"o":"m 728 716 l 259 -192 q 199 -231 239 -231 l 56 -231 l 217 59 l 38 716 l 199 716 q 230 706 219 716 q 244 681 240 695 l 320 339 q 327 301 324 320 q 332 264 330 283 q 348 302 340 283 q 366 340 357 321 l 522 682 q 544 706 530 697 q 574 716 559 716 l 728 716 z "},"z":{"ha":606,"x_min":-19,"x_max":603,"o":"m 603 716 l 592 638 q 582 600 591 618 q 561 568 572 582 l 226 144 l 526 144 l 508 0 l -19 0 l -10 79 q 0 109 -8 91 q 22 143 8 128 l 360 572 l 69 572 l 86 716 l 603 716 z "},"ª":{"ha":477,"x_min":80,"x_max":465,"o":"m 321 756 q 266 750 288 755 q 231 737 244 745 q 213 719 218 729 q 208 696 208 708 q 216 674 208 680 q 242 667 225 667 q 279 675 263 667 q 314 701 295 683 l 321 756 m 131 953 q 220 1005 173 988 q 319 1021 267 1021 q 382 1007 354 1021 q 428 970 410 994 q 456 917 447 947 q 460 852 465 886 l 428 584 l 366 584 q 340 589 348 584 q 325 610 331 594 l 319 633 q 288 609 303 619 q 258 592 274 599 q 226 582 243 585 q 189 578 209 578 q 109 605 138 578 q 80 680 80 631 q 91 733 80 706 q 130 782 101 760 q 206 819 158 804 q 330 836 255 834 l 332 852 q 331 876 333 865 q 325 897 330 888 q 313 911 321 906 q 290 917 304 917 q 256 912 269 917 q 232 901 243 907 q 210 891 221 896 q 185 886 199 886 q 163 894 171 886 q 150 910 155 901 l 131 953 z "},"º":{"ha":520,"x_min":86,"x_max":522,"o":"m 333 1019 q 411 1006 376 1019 q 470 968 446 993 q 509 909 495 944 q 522 830 522 874 q 504 725 522 772 q 453 644 485 678 q 375 593 420 611 q 278 576 331 576 q 199 589 235 576 q 139 628 164 603 q 100 688 113 653 q 86 768 86 724 q 105 873 86 826 q 157 952 124 919 q 235 1002 190 985 q 333 1019 281 1019 m 292 682 q 359 720 339 682 q 379 830 379 759 q 320 914 379 914 q 275 903 292 914 q 247 873 257 892 q 234 826 238 853 q 230 765 230 799 q 245 703 230 724 q 292 682 260 682 z "},"ⁿ":{"ha":428,"x_min":69,"x_max":446,"o":"m 216 963 q 241 983 228 974 q 268 998 254 992 q 298 1009 282 1005 q 334 1013 315 1013 q 387 1002 365 1013 q 423 972 409 991 q 441 927 436 953 q 442 872 446 901 l 413 638 l 285 638 l 315 872 q 281 914 318 914 q 255 909 267 914 q 228 894 242 903 l 197 638 l 69 638 l 115 1007 l 183 1007 q 202 1001 195 1007 q 213 983 209 996 l 216 963 z "},"`":{"ha":511,"x_min":152,"x_max":447,"o":"m 317 1019 q 357 1009 344 1019 q 378 980 370 999 l 447 810 l 347 810 q 316 816 327 810 q 293 837 304 822 l 152 1019 l 317 1019 z "},"´":{"ha":511,"x_min":258,"x_max":606,"o":"m 606 1019 l 424 837 q 396 816 409 822 q 363 810 383 810 l 258 810 l 365 980 q 393 1009 378 999 q 435 1019 408 1019 l 606 1019 z "},"ˆ":{"ha":511,"x_min":117,"x_max":577,"o":"m 577 811 l 460 811 q 441 815 450 811 q 422 829 431 819 l 374 895 q 367 903 370 899 q 361 913 365 908 q 353 903 357 908 q 344 895 349 899 l 280 829 q 238 811 260 811 l 117 811 l 286 1008 l 452 1008 l 577 811 z "},"ˇ":{"ha":511,"x_min":139,"x_max":600,"o":"m 600 1008 l 430 811 l 264 811 l 139 1008 l 260 1008 q 280 1004 271 1008 q 294 995 289 1000 l 347 924 q 354 916 351 920 q 360 906 357 911 q 377 924 369 916 l 446 995 q 462 1003 452 999 q 483 1008 472 1008 l 600 1008 z "},"̕":{"ha":0,"x_min":258,"x_max":488,"o":"m 460 1037 q 482 1030 477 1037 q 488 1015 488 1022 q 485 1000 488 1008 q 474 972 483 992 q 447 918 465 953 q 397 825 428 883 q 367 798 383 804 q 326 792 350 792 l 258 792 l 331 1037 l 460 1037 z "},"˜":{"ha":511,"x_min":138,"x_max":581,"o":"m 431 953 q 459 963 448 953 q 474 1002 471 973 l 581 1002 q 562 928 576 961 q 527 871 548 894 q 479 835 506 848 q 422 822 452 822 q 380 831 399 822 q 344 850 360 840 q 314 868 328 860 q 289 877 301 877 q 260 866 271 877 q 247 826 250 856 l 138 826 q 157 901 142 867 q 193 958 172 934 q 241 994 215 981 q 297 1007 268 1007 q 340 999 321 1007 q 376 980 360 990 q 405 961 392 969 q 431 953 419 953 z "},"¯":{"ha":511,"x_min":156,"x_max":558,"o":"m 169 959 l 558 959 l 544 840 l 156 840 l 169 959 z "},"˘":{"ha":511,"x_min":165,"x_max":569,"o":"m 347 806 q 253 822 290 806 q 196 865 217 838 q 170 930 176 893 q 169 1008 165 967 l 292 1008 q 291 972 290 988 q 300 945 293 956 q 322 929 308 935 q 360 924 337 924 q 399 929 383 924 q 424 945 415 935 q 439 972 434 956 q 447 1008 444 988 l 569 1008 q 551 930 565 967 q 510 865 537 893 q 444 822 484 838 q 347 806 403 806 z "},"˚":{"ha":511,"x_min":208,"x_max":513,"o":"m 211 923 q 230 984 215 956 q 268 1030 245 1011 q 318 1060 290 1049 q 376 1071 347 1071 q 432 1060 406 1071 q 476 1030 458 1049 q 504 984 495 1011 q 510 923 513 956 q 490 864 506 890 q 452 819 475 838 q 401 790 429 800 q 342 779 372 779 q 288 790 313 779 q 244 819 262 800 q 217 864 226 838 q 211 923 208 890 m 306 923 q 315 880 303 897 q 354 864 327 864 q 395 880 378 864 q 414 923 411 897 q 405 967 417 951 q 367 983 392 983 q 325 967 340 983 q 306 923 310 951 z "},"˝":{"ha":511,"x_min":177,"x_max":690,"o":"m 458 1019 l 310 837 q 283 816 297 821 q 249 810 269 810 l 177 810 l 274 980 q 301 1009 286 999 q 344 1019 316 1019 l 458 1019 m 690 1019 l 506 837 q 478 816 491 822 q 446 810 465 810 l 362 810 l 494 980 q 508 996 501 989 q 522 1008 515 1003 q 540 1016 530 1013 q 564 1019 550 1019 l 690 1019 z "},"˙":{"ha":511,"x_min":246,"x_max":477,"o":"m 477 919 q 467 874 477 895 q 440 838 457 853 q 402 813 424 822 q 359 803 381 803 q 317 813 337 803 q 281 838 297 822 q 255 874 265 853 q 246 919 246 895 q 256 964 246 943 q 281 1001 265 985 q 318 1027 297 1017 q 360 1036 338 1036 q 405 1027 383 1036 q 442 1002 426 1018 q 467 965 458 986 q 477 919 477 944 z "},"¸":{"ha":511,"x_min":111,"x_max":386,"o":"m 292 -40 q 366 -77 345 -53 q 386 -132 386 -101 q 373 -181 386 -159 q 335 -217 359 -202 q 277 -239 311 -231 q 204 -247 244 -247 q 156 -244 178 -247 q 111 -234 133 -241 l 136 -175 q 145 -163 140 -167 q 160 -158 150 -158 q 178 -162 169 -158 q 201 -166 186 -166 q 228 -157 219 -166 q 236 -137 236 -149 q 217 -114 236 -122 q 154 -99 198 -106 l 211 27 l 317 27 l 292 -40 z "},"˛":{"ha":511,"x_min":110,"x_max":366,"o":"m 330 -124 q 346 -135 344 -124 l 366 -205 q 308 -230 342 -220 q 236 -240 274 -240 q 142 -214 173 -240 q 110 -148 110 -188 q 140 -66 110 -106 q 234 8 169 -26 l 331 0 q 304 -18 317 -8 q 281 -41 291 -28 q 265 -67 271 -53 q 259 -97 259 -81 q 267 -122 259 -112 q 290 -131 274 -131 q 307 -130 301 -131 q 317 -127 313 -129 q 324 -125 321 -126 q 330 -124 326 -124 z "},"Γ":{"ha":720,"x_min":47,"x_max":763,"o":"m 744 855 l 353 855 l 248 0 l 47 0 l 170 1007 l 763 1007 l 744 855 z "},"Δ":{"ha":933,"x_min":-62,"x_max":889,"o":"m 217 156 l 649 156 l 533 700 q 523 747 528 720 q 513 805 517 774 q 489 747 501 774 q 466 699 476 719 l 217 156 m 889 0 l -62 0 l 447 1007 l 629 1007 l 889 0 z "},"Θ":{"ha":1051,"x_min":51,"x_max":1019,"o":"m 380 584 l 710 584 l 690 426 l 360 426 l 380 584 m 1019 570 q 1000 412 1019 488 q 947 272 981 337 q 863 156 913 208 q 753 66 814 103 q 621 9 692 29 q 472 -11 550 -11 q 296 23 374 -11 q 164 118 218 58 q 81 260 110 178 q 51 437 51 342 q 70 595 51 519 q 123 735 89 670 q 207 852 158 799 q 317 941 256 904 q 449 999 378 978 q 599 1019 520 1019 q 774 984 697 1019 q 906 889 852 949 q 990 747 960 828 q 1019 570 1019 665 m 813 565 q 797 684 813 631 q 750 776 781 738 q 675 835 719 814 q 574 856 631 856 q 443 826 501 856 q 343 742 384 796 q 279 611 301 688 q 257 442 257 535 q 273 323 257 376 q 319 231 289 269 q 393 173 349 193 q 494 152 438 152 q 626 182 567 152 q 726 265 685 211 q 790 395 767 319 q 813 565 813 472 z "},"Λ":{"ha":913,"x_min":-60,"x_max":868,"o":"m 868 0 l 704 0 q 663 13 678 0 q 643 44 649 25 l 522 639 q 507 707 514 670 q 495 784 500 744 q 466 707 481 744 q 435 639 451 670 l 172 44 q 145 14 164 28 q 101 0 126 0 l -60 0 l 436 1007 l 618 1007 l 868 0 z "},"Ξ":{"ha":810,"x_min":-2,"x_max":832,"o":"m 832 1007 l 812 844 l 101 844 l 122 1007 l 832 1007 m 728 163 l 708 0 l -2 0 l 18 163 l 728 163 m 230 590 l 622 590 l 600 421 l 208 421 l 230 590 z "},"Π":{"ha":999,"x_min":47,"x_max":971,"o":"m 847 0 l 646 0 l 751 855 l 353 855 l 248 0 l 47 0 l 170 1007 l 971 1007 l 847 0 z "},"Σ":{"ha":791,"x_min":-17,"x_max":817,"o":"m 437 855 q 365 858 397 855 q 303 867 333 861 q 364 825 338 848 q 406 775 390 802 l 497 614 q 516 580 508 594 q 529 556 524 566 q 535 537 533 545 q 535 521 536 529 q 531 501 535 510 q 520 480 527 491 q 500 453 513 468 q 471 418 488 438 l 299 208 q 261 170 279 185 q 222 144 244 156 q 279 150 253 148 q 326 151 305 151 l 713 151 l 693 0 l -17 0 l -8 73 q 8 117 -5 95 q 38 154 21 138 l 363 501 l 112 867 q 99 893 103 878 q 96 922 94 907 l 106 1007 l 817 1007 l 798 855 l 437 855 z "},"Φ":{"ha":1108,"x_min":38,"x_max":1089,"o":"m 622 208 q 730 236 680 209 q 816 309 780 263 q 873 416 852 355 q 893 546 893 476 q 880 643 893 597 q 841 724 867 689 q 778 780 815 759 q 695 802 742 801 l 622 208 m 505 802 q 397 774 447 801 q 311 701 347 747 q 255 595 275 656 q 234 465 234 534 q 247 367 234 413 q 286 286 260 321 q 348 230 311 251 q 431 208 385 209 l 505 802 m 714 954 q 871 920 801 952 q 989 834 941 888 q 1063 709 1038 781 q 1089 555 1089 637 q 1053 361 1089 451 q 953 203 1017 271 q 799 97 888 136 q 603 56 710 57 l 587 -77 l 397 -77 l 413 56 q 255 89 324 57 q 137 176 185 122 q 64 303 89 231 q 38 456 38 375 q 74 649 38 558 q 175 806 110 739 q 328 913 240 874 q 524 954 417 953 l 540 1085 l 730 1085 l 714 954 z "},"Ψ":{"ha":1083,"x_min":67,"x_max":1101,"o":"m 1101 1007 l 1056 645 q 1012 485 1045 557 q 923 361 978 413 q 791 277 867 308 q 617 240 714 247 l 588 0 l 385 0 l 415 240 q 252 278 320 247 q 141 361 183 309 q 83 486 99 414 q 78 645 67 558 l 123 1007 l 258 1007 q 305 988 290 1007 q 317 941 320 969 l 281 645 q 277 546 274 589 q 298 472 281 503 q 348 424 315 442 q 435 400 381 406 l 510 1007 l 711 1007 l 637 400 q 731 423 692 405 q 794 471 769 440 q 833 545 819 501 q 853 645 847 589 l 890 941 q 914 988 894 969 q 965 1007 933 1007 l 1101 1007 z "},"Ω":{"ha":980,"x_min":13,"x_max":948,"o":"m 651 163 l 888 163 l 876 62 q 852 17 872 35 q 801 0 833 0 l 476 0 l 521 354 q 605 383 565 363 q 675 439 645 403 q 723 526 706 474 q 740 649 740 578 q 690 805 740 749 q 542 860 639 860 q 432 840 481 860 q 351 782 384 820 q 300 688 317 743 q 283 563 283 633 q 295 479 283 515 q 328 418 307 443 q 379 377 350 392 q 443 354 408 361 l 399 0 l 74 0 q 28 17 43 0 q 16 62 13 35 l 28 163 l 265 163 l 276 255 q 190 301 227 272 q 128 371 153 331 q 90 459 103 411 q 78 561 78 508 q 94 683 78 624 q 141 792 110 741 q 214 884 171 842 q 311 956 257 926 q 428 1002 365 985 q 563 1018 492 1018 q 724 989 653 1018 q 845 911 796 960 q 922 797 895 863 q 948 657 948 731 q 929 522 948 586 q 873 404 910 457 q 784 312 837 351 q 662 253 731 273 l 651 163 z "},"α":{"ha":788,"x_min":24,"x_max":783,"o":"m 297 138 q 394 188 347 138 q 482 333 440 238 q 491 427 489 382 q 487 507 494 473 q 460 563 480 542 q 405 583 441 583 q 332 560 367 583 q 271 497 297 538 q 229 401 244 456 q 213 281 213 346 q 297 138 213 138 m 783 717 q 699 477 748 588 q 593 278 651 367 q 596 230 593 252 q 607 193 599 208 q 630 168 615 177 q 667 160 644 160 l 725 160 l 706 56 q 699 34 704 45 q 681 13 693 22 q 650 -2 669 4 q 601 -8 631 -8 q 551 0 572 -8 q 516 25 531 8 q 494 69 502 42 q 482 135 485 96 q 347 27 415 65 q 212 -10 278 -10 q 136 5 170 -10 q 76 53 101 21 q 38 135 51 85 q 24 251 24 184 q 36 376 24 316 q 73 490 49 437 q 130 586 97 542 q 202 661 163 630 q 288 710 242 692 q 382 727 333 727 q 448 717 419 727 q 500 689 478 707 q 540 647 523 672 q 567 594 556 623 q 588 658 578 633 q 607 695 597 682 q 628 712 617 708 q 652 717 638 717 l 783 717 z "},"β":{"ha":742,"x_min":-7,"x_max":691,"o":"m 227 170 q 277 142 247 151 q 338 133 308 133 q 413 150 381 133 q 465 194 444 166 q 497 260 486 222 q 507 340 507 298 q 496 407 507 381 q 467 450 485 434 q 426 472 449 465 q 381 478 403 478 l 340 478 l 358 619 l 376 619 q 480 660 445 619 q 515 781 515 701 q 490 860 515 835 q 424 886 465 886 q 371 873 394 886 q 332 830 349 860 q 305 753 316 801 q 285 638 293 706 l 234 226 l 227 170 m 101 644 q 135 799 111 730 q 201 917 160 868 q 300 991 242 965 q 436 1017 358 1017 q 545 1000 497 1017 q 625 952 592 982 q 674 881 658 922 q 691 795 691 841 q 653 648 691 711 q 538 555 615 585 q 652 476 613 531 q 691 341 691 421 q 667 204 691 268 q 601 92 644 140 q 501 17 559 44 q 373 -10 442 -10 q 287 5 329 -10 q 213 53 244 20 l 203 -28 l 167 -154 q 132 -211 155 -191 q 68 -232 110 -232 l -7 -232 l 49 231 l 101 644 z "},"γ":{"ha":733,"x_min":42,"x_max":763,"o":"m 763 716 q 701 559 740 641 q 617 395 663 477 q 518 233 570 313 q 413 83 465 153 l 374 -231 l 190 -231 l 228 72 q 225 197 228 134 q 214 317 222 260 q 194 424 206 374 q 163 510 181 474 q 118 568 144 547 q 60 589 93 589 l 42 589 l 49 655 q 56 682 51 669 q 70 703 60 694 q 98 717 81 712 q 142 722 115 722 q 253 688 208 722 q 327 592 299 653 q 368 445 356 531 q 378 256 380 360 q 429 356 406 304 q 473 461 453 408 q 510 564 494 513 q 540 660 527 615 q 565 703 549 691 q 606 716 581 716 l 763 716 z "},"δ":{"ha":729,"x_min":22,"x_max":688,"o":"m 328 127 q 394 143 364 127 q 447 189 425 159 q 482 260 469 218 q 495 354 495 302 q 486 424 495 392 q 461 482 476 456 q 424 530 445 508 q 380 571 403 551 q 317 532 347 556 q 264 475 287 509 q 226 396 240 442 q 213 291 213 351 q 219 228 213 258 q 240 176 226 198 q 276 140 254 153 q 328 127 298 127 m 658 874 q 641 843 653 851 q 608 835 630 835 q 574 842 595 835 q 526 856 553 848 q 469 870 499 864 q 408 876 438 876 q 358 861 373 876 q 342 826 342 847 q 357 792 342 808 q 395 757 372 775 q 449 719 419 739 q 511 674 480 699 q 574 618 543 649 q 628 550 604 588 q 666 466 651 513 q 681 360 681 419 q 655 214 681 281 q 582 97 629 147 q 466 19 534 47 q 314 -9 398 -9 q 191 13 245 -9 q 99 74 137 35 q 42 166 62 113 q 22 282 22 219 q 90 502 22 415 q 298 631 158 589 q 248 670 272 650 q 207 713 224 690 q 178 763 189 735 q 167 823 167 790 q 186 903 167 867 q 239 964 205 939 q 321 1003 273 990 q 428 1017 369 1017 q 493 1014 458 1017 q 561 1007 527 1011 q 628 996 596 1002 q 688 984 661 990 l 658 874 z "},"ε":{"ha":594,"x_min":15,"x_max":584,"o":"m 333 311 q 273 304 298 311 q 234 284 249 297 q 212 253 219 272 q 205 211 205 235 q 227 151 205 176 q 294 127 249 127 q 354 137 330 127 q 396 159 378 147 q 429 181 414 171 q 460 191 444 191 q 492 175 481 191 l 537 108 q 467 50 503 73 q 395 15 431 28 q 326 -4 359 1 q 266 -9 293 -9 q 170 5 215 -9 q 90 44 124 18 q 35 106 56 69 q 15 190 15 143 q 55 302 15 254 q 174 373 94 350 q 122 401 143 384 q 89 436 101 417 q 71 477 76 456 q 65 519 65 498 q 85 597 65 559 q 142 663 105 634 q 234 709 180 692 q 356 726 288 726 q 491 701 432 726 q 584 637 549 676 l 535 570 q 512 549 522 553 q 489 544 502 544 q 467 552 478 544 q 441 568 456 559 q 405 584 426 576 q 353 591 384 591 q 272 567 301 591 q 244 506 244 544 q 270 451 244 473 q 349 430 297 430 l 455 430 l 440 311 l 333 311 z "},"ζ":{"ha":524,"x_min":22,"x_max":604,"o":"m 603 947 q 601 918 604 932 q 588 889 598 905 q 558 853 577 873 q 508 805 538 833 q 448 748 481 780 q 382 680 415 717 q 316 603 348 644 q 259 517 284 562 q 220 423 235 472 q 205 323 205 374 q 213 269 205 292 q 236 228 220 247 q 275 197 251 210 q 333 170 299 183 q 411 132 379 152 q 462 90 442 113 q 489 44 481 68 q 497 -7 497 19 q 475 -112 497 -60 q 410 -224 453 -165 l 274 -170 q 289 -147 281 -160 q 304 -119 297 -133 q 316 -90 311 -104 q 320 -62 320 -75 q 316 -41 320 -51 q 300 -19 311 -30 q 268 4 288 -8 q 217 27 248 15 q 132 67 169 44 q 71 119 95 90 q 34 187 47 149 q 22 272 22 224 q 51 432 22 355 q 133 582 81 508 q 256 730 185 656 q 410 880 327 803 q 338 866 376 872 q 247 860 299 860 l 199 860 q 165 866 178 860 q 143 880 151 872 q 132 899 135 889 q 131 919 129 910 l 142 1007 l 597 1007 l 603 947 z "},"η":{"ha":769,"x_min":31,"x_max":713,"o":"m 40 661 q 66 704 43 686 q 140 722 89 722 q 195 715 169 722 q 241 691 221 707 q 273 651 260 675 q 290 593 286 626 q 403 694 342 661 q 529 727 464 727 q 610 709 574 727 q 670 656 647 691 q 703 571 694 622 q 705 455 713 520 l 621 -232 l 436 -232 l 521 455 q 513 546 529 519 q 457 573 497 573 q 415 564 437 573 q 372 536 393 554 q 332 493 351 519 q 297 435 313 467 l 243 0 l 59 0 l 120 501 q 111 568 126 547 q 65 590 97 590 l 31 590 l 40 661 z "},"θ":{"ha":788,"x_min":58,"x_max":745,"o":"m 236 453 q 235 415 235 434 q 235 376 235 396 q 267 190 235 251 q 359 130 300 130 q 490 213 440 130 q 558 453 540 295 l 236 453 m 567 576 q 567 605 567 590 q 567 635 567 619 q 536 820 567 760 q 449 880 505 880 q 316 802 367 880 q 247 576 265 724 l 567 576 m 460 1019 q 577 992 525 1019 q 667 913 630 965 q 725 786 704 862 q 745 615 745 711 q 716 347 745 464 q 633 151 686 231 q 507 31 580 72 q 347 -10 434 -10 q 227 17 281 -10 q 137 96 174 44 q 79 223 99 148 q 58 396 58 299 q 88 663 58 547 q 172 858 118 779 q 299 978 225 938 q 460 1019 373 1019 z "},"ι":{"ha":374,"x_min":38,"x_max":347,"o":"m 105 715 l 290 715 l 228 215 q 235 148 223 171 q 284 125 248 125 l 347 125 l 340 70 q 323 37 338 51 q 288 12 309 22 q 242 -3 267 2 q 192 -8 217 -8 q 118 8 149 -8 q 68 53 87 24 q 44 120 50 81 q 43 205 38 159 l 105 715 z "},"λ":{"ha":715,"x_min":-42,"x_max":678,"o":"m 678 125 l 668 53 q 659 22 666 34 q 640 3 651 10 q 614 -6 628 -3 q 581 -8 599 -8 q 512 -1 542 -8 q 458 28 481 6 q 418 89 435 49 q 391 192 401 128 l 368 316 q 358 396 360 363 q 355 456 355 429 q 333 398 345 428 q 305 333 321 368 l 173 33 q 153 10 167 19 q 114 0 139 0 l -42 0 l 292 641 l 260 813 q 250 846 256 833 q 234 868 244 860 q 209 880 224 876 q 172 883 194 883 l 127 883 l 135 949 q 143 975 137 963 q 163 997 150 988 q 196 1011 176 1006 q 245 1017 216 1017 q 299 1011 272 1017 q 352 990 327 1005 q 395 948 376 974 q 424 880 415 922 l 563 192 q 585 141 569 158 q 639 125 601 125 l 678 125 z "},"μ":{"ha":788,"x_min":-1,"x_max":752,"o":"m 752 131 l 742 56 q 732 33 741 44 q 706 13 722 22 q 668 -2 690 3 q 619 -8 647 -8 q 524 25 565 -8 q 473 125 484 57 q 390 42 434 71 q 294 13 347 13 q 194 43 233 13 q 197 -17 198 14 q 192 -74 195 -47 l 173 -231 l 78 -231 q 18 -211 38 -231 q 3 -153 -1 -191 l 110 716 l 301 716 l 250 297 q 261 201 242 237 q 326 165 281 165 q 403 191 369 165 q 459 264 436 217 l 515 716 l 706 716 l 645 217 q 654 152 640 173 q 699 131 669 131 l 752 131 z "},"ν":{"ha":680,"x_min":37,"x_max":708,"o":"m 708 715 q 639 531 681 626 q 546 342 597 435 q 438 161 495 249 q 322 0 380 73 l 208 0 l 37 715 l 189 715 q 221 706 209 715 q 237 681 233 696 l 297 317 q 307 259 303 287 q 314 201 310 231 q 371 310 345 252 q 419 428 397 368 q 458 549 440 489 q 491 664 476 609 q 515 704 499 692 q 549 715 531 715 l 708 715 z "},"ξ":{"ha":524,"x_min":22,"x_max":601,"o":"m 590 931 q 581 903 588 915 q 562 882 573 891 q 537 868 551 873 q 510 864 524 864 l 449 864 q 378 851 410 864 q 326 816 347 838 q 293 762 304 793 q 281 694 281 731 q 316 621 281 645 q 415 597 351 597 l 484 597 l 467 456 l 360 456 q 290 444 319 456 q 243 411 262 433 q 217 361 225 390 q 208 299 208 333 q 217 255 208 274 q 244 218 225 235 q 292 185 263 201 q 366 150 322 169 q 454 85 427 124 q 481 -3 481 47 q 460 -110 481 -57 q 394 -225 439 -164 l 258 -171 q 273 -147 265 -160 q 288 -119 281 -133 q 299 -90 294 -105 q 303 -62 303 -76 q 290 -20 303 -38 q 244 10 277 -2 q 151 51 192 27 q 82 107 110 75 q 37 179 53 139 q 22 268 22 219 q 31 340 22 301 q 62 414 40 378 q 119 482 83 451 q 208 533 155 513 q 133 589 156 553 q 109 673 109 624 q 122 741 109 710 q 156 795 134 771 q 206 839 177 820 q 265 872 234 858 l 181 872 q 125 890 140 872 q 115 941 110 909 l 122 1007 l 601 1007 l 590 931 z "},"π":{"ha":827,"x_min":0,"x_max":829,"o":"m 818 626 q 798 585 815 602 q 752 568 781 568 l 672 568 q 665 520 668 547 q 659 459 662 493 q 656 383 657 426 q 654 288 654 341 q 658 206 654 237 q 668 158 661 175 q 684 136 674 142 q 705 131 693 131 l 738 131 l 728 56 q 715 30 726 41 q 688 10 705 18 q 650 -2 672 2 q 607 -6 629 -6 q 539 8 567 -6 q 491 45 510 21 q 463 104 472 69 q 454 182 454 139 q 461 262 454 224 q 478 344 467 300 q 501 441 488 388 q 528 568 515 495 l 354 568 q 319 360 337 449 q 281 207 301 271 q 238 102 260 143 q 190 36 216 60 q 135 3 165 13 q 73 -6 106 -6 q 48 -4 61 -6 q 24 2 35 -2 q 7 13 13 6 q 1 29 0 19 l 17 155 l 31 155 q 73 177 52 155 q 114 248 94 199 q 152 376 133 297 q 188 568 170 455 l 60 568 l 70 647 q 78 670 72 658 q 94 692 84 682 q 119 708 105 701 q 149 714 133 714 l 829 714 l 818 626 z "},"ρ":{"ha":741,"x_min":-17,"x_max":696,"o":"m 221 200 q 275 144 243 161 q 337 127 306 127 q 401 145 370 127 q 455 200 431 163 q 492 292 478 237 q 506 422 506 347 q 499 496 506 465 q 477 547 491 527 q 442 576 463 567 q 397 585 422 585 q 346 574 371 585 q 300 537 321 562 q 265 473 280 512 q 243 381 249 435 l 221 200 m 58 374 q 97 525 69 460 q 171 636 126 591 q 277 704 216 681 q 416 727 339 727 q 527 705 476 727 q 615 643 578 683 q 674 544 653 602 q 696 415 696 486 q 669 248 696 326 q 597 114 643 171 q 490 23 551 56 q 359 -10 428 -10 q 274 8 313 -10 q 203 58 235 27 l 168 -232 l -17 -232 l 58 374 z "},"σ":{"ha":806,"x_min":26,"x_max":850,"o":"m 444 576 q 340 558 383 576 q 269 504 297 540 q 228 415 241 468 q 215 291 215 362 q 245 170 215 212 q 337 128 275 128 q 470 206 426 128 q 514 431 514 283 q 511 476 514 453 q 503 518 509 499 q 490 553 498 538 q 470 576 481 568 l 444 576 m 850 715 l 840 635 q 819 593 836 610 q 764 576 801 576 l 623 576 q 678 498 657 543 q 699 393 699 452 q 670 232 699 306 q 591 105 642 158 q 472 20 541 51 q 320 -10 402 -10 q 198 11 253 -10 q 106 72 144 33 q 47 168 67 112 q 26 295 26 225 q 58 467 26 390 q 149 600 91 544 q 289 685 208 655 q 466 715 369 715 l 850 715 z "},"ς":{"ha":616,"x_min":31,"x_max":629,"o":"m 572 559 q 553 543 562 549 q 531 537 545 537 q 506 545 517 537 q 481 563 495 553 q 448 580 467 572 q 399 588 428 588 q 325 569 358 588 q 269 518 292 551 q 234 442 247 486 q 222 347 222 398 q 233 274 222 303 q 266 225 244 245 q 319 189 288 204 q 394 157 351 174 q 455 125 430 142 q 496 90 481 109 q 518 48 511 70 q 525 -2 525 25 q 503 -110 525 -56 q 438 -224 482 -164 l 301 -170 q 316 -146 308 -160 q 331 -118 324 -133 q 342 -87 338 -103 q 347 -58 347 -72 q 344 -37 347 -47 q 334 -19 341 -28 q 313 -3 326 -11 q 278 13 300 5 q 187 54 231 31 q 108 113 142 77 q 52 200 73 148 q 31 328 31 252 q 56 484 31 412 q 128 611 81 557 q 245 695 176 665 q 401 726 314 726 q 533 700 478 726 q 629 625 588 674 l 572 559 z "},"τ":{"ha":621,"x_min":25,"x_max":643,"o":"m 635 642 q 612 594 631 610 q 564 578 594 578 l 396 578 l 352 217 q 359 149 347 172 q 408 126 372 126 l 471 126 l 464 72 q 447 38 461 53 q 411 13 433 23 q 365 -2 390 3 q 316 -7 340 -7 q 242 9 273 -7 q 192 54 211 26 q 167 122 174 83 q 167 206 161 160 l 212 578 l 25 578 l 35 655 q 55 695 38 678 q 103 713 72 713 l 643 713 l 635 642 z "},"υ":{"ha":726,"x_min":40,"x_max":676,"o":"m 674 715 q 675 675 674 698 q 675 629 675 652 q 676 586 676 606 q 676 552 676 565 q 661 363 676 446 q 618 217 645 279 q 553 111 590 154 q 474 40 517 67 q 385 1 431 13 q 292 -11 338 -11 q 176 8 225 -11 q 95 62 126 27 q 52 148 64 97 q 47 260 40 198 l 103 715 l 288 715 l 232 260 q 250 165 224 199 q 322 131 275 131 q 381 145 351 131 q 436 198 411 160 q 476 300 460 235 q 492 462 492 364 q 491 507 492 483 q 490 557 490 531 q 489 608 489 582 q 489 657 488 633 q 495 684 490 673 q 509 702 501 695 q 527 712 517 709 q 547 715 538 715 l 674 715 z "},"φ":{"ha":1024,"x_min":27,"x_max":981,"o":"m 558 123 q 657 147 613 124 q 732 209 701 169 q 780 304 763 249 q 797 422 797 358 q 769 548 797 502 q 691 593 742 593 q 633 567 658 593 q 601 479 609 540 l 558 123 m 428 479 q 459 590 436 544 q 517 667 481 637 q 599 712 552 697 q 702 726 646 726 q 818 703 767 726 q 906 640 869 681 q 962 545 942 600 q 981 426 981 490 q 947 247 981 326 q 853 110 913 167 q 713 22 794 53 q 541 -10 633 -10 l 514 -231 l 341 -231 l 368 -10 q 229 15 292 -9 q 121 82 166 39 q 52 183 76 124 q 27 314 27 242 q 49 450 27 387 q 109 565 70 513 q 201 657 148 617 q 318 722 254 697 l 361 649 q 367 628 367 639 q 363 607 367 617 q 351 589 358 597 q 335 576 343 581 q 245 475 278 540 q 212 322 212 410 q 224 242 212 278 q 258 180 235 206 q 313 139 281 154 q 385 123 344 124 l 428 479 z "},"χ":{"ha":643,"x_min":-75,"x_max":682,"o":"m 482 -45 q 505 -95 490 -78 q 558 -112 521 -112 l 585 -112 l 576 -183 q 569 -215 574 -203 q 555 -234 564 -227 q 533 -243 547 -240 q 500 -245 519 -245 q 438 -239 467 -245 q 385 -217 409 -233 q 343 -172 361 -201 q 313 -97 325 -143 l 257 113 q 246 75 252 93 q 233 43 240 58 l 113 -197 q 93 -220 106 -210 q 58 -230 80 -230 l -75 -230 l 198 268 l 132 522 q 119 556 126 542 q 102 578 112 569 q 78 589 92 586 q 44 592 65 592 l 19 592 l 28 658 q 32 684 30 672 q 40 706 33 697 q 62 720 47 715 q 106 725 77 725 q 173 718 142 725 q 226 695 203 711 q 267 653 250 679 q 296 589 285 627 l 352 375 q 363 413 357 395 q 376 445 369 431 l 494 682 q 515 706 501 696 q 549 716 528 716 l 682 716 l 410 223 l 482 -45 z "},"ψ":{"ha":1035,"x_min":45,"x_max":986,"o":"m 983 716 q 984 676 983 699 q 985 630 985 653 q 986 586 985 606 q 986 552 986 565 q 971 368 986 448 q 927 227 956 288 q 860 126 899 167 q 774 57 822 84 q 672 15 726 29 q 559 -6 617 0 l 531 -231 l 347 -231 l 374 -7 q 212 30 277 1 q 108 103 147 58 q 58 212 70 149 q 55 351 45 274 l 100 716 l 228 716 q 248 710 239 716 q 264 694 258 704 q 274 672 271 685 q 275 647 277 660 l 239 351 q 268 207 228 258 q 392 139 308 155 l 499 1007 l 683 1007 l 576 135 q 674 162 633 142 q 742 221 715 182 q 783 322 769 260 q 797 473 797 383 q 795 527 797 502 q 791 573 793 551 q 789 615 790 595 q 791 657 789 635 q 813 702 795 689 q 849 716 831 716 l 983 716 z "},"ω":{"ha":1047,"x_min":32,"x_max":999,"o":"m 958 716 q 975 651 967 686 q 988 580 983 617 q 997 508 994 544 q 999 441 999 472 q 976 261 999 344 q 910 118 953 178 q 808 23 868 58 q 675 -11 748 -11 q 601 -1 633 -11 q 546 25 569 8 q 507 65 523 42 q 483 114 492 88 q 445 65 467 88 q 397 25 424 42 q 336 -1 370 8 q 263 -11 303 -11 q 163 13 206 -11 q 91 79 120 37 q 47 178 62 121 q 32 301 32 235 q 41 410 32 356 q 68 516 51 464 q 108 618 85 568 q 158 716 131 669 l 278 716 q 304 711 291 716 q 324 697 317 707 q 329 671 331 688 q 310 632 327 655 q 280 578 296 608 q 250 509 264 548 q 228 422 237 469 q 219 315 219 374 q 226 226 219 262 q 244 170 233 191 q 269 140 255 149 q 301 131 284 131 q 343 143 324 131 q 376 178 362 156 q 400 232 390 201 q 415 301 409 264 l 437 483 l 621 483 l 601 317 l 601 317 q 597 242 597 276 q 605 183 598 208 q 628 144 613 158 q 669 131 644 131 q 719 144 694 131 q 765 189 744 157 q 799 273 786 220 q 812 405 812 326 q 807 476 812 440 q 795 544 802 513 q 782 601 789 576 q 772 637 775 626 q 768 674 765 658 q 782 698 772 689 q 803 712 791 708 q 824 716 815 716 l 958 716 z "},"΄":{"ha":511,"x_min":292,"x_max":502,"o":"m 292 793 l 356 1054 l 464 1054 q 495 1038 488 1054 q 490 995 502 1022 l 393 793 l 292 793 z "},"΅":{"ha":511,"x_min":126,"x_max":642,"o":"m 291 799 l 354 1060 l 463 1060 q 493 1044 487 1060 q 488 1001 500 1028 l 392 799 l 291 799 m 640 903 q 630 872 638 886 q 611 847 622 858 q 584 829 599 835 q 554 823 569 823 q 525 829 538 823 q 503 847 512 835 q 489 872 494 858 q 487 903 485 886 q 497 935 489 920 q 516 961 504 950 q 542 980 527 973 q 572 986 556 986 q 601 980 588 986 q 624 961 615 973 q 638 935 633 950 q 640 903 642 920 m 281 903 q 271 872 279 886 q 251 847 263 858 q 225 829 240 835 q 194 823 210 823 q 166 829 178 823 q 144 847 153 835 q 130 872 135 858 q 128 903 126 886 q 138 935 130 920 q 157 961 145 950 q 182 980 168 973 q 212 986 197 986 q 241 980 228 986 q 264 961 255 973 q 278 935 274 950 q 281 903 283 920 z "},"ʹ":{"ha":297,"x_min":89,"x_max":348,"o":"m 335 1052 q 303 824 348 933 q 158 619 258 714 l 105 655 q 93 666 97 660 q 89 679 90 672 q 92 692 89 686 q 99 704 94 699 q 140 757 122 732 q 167 808 158 783 q 175 861 176 834 q 156 921 173 889 l 166 1006 q 182 1039 169 1026 q 220 1052 194 1052 l 335 1052 z "},"͵":{"ha":301,"x_min":1,"x_max":260,"o":"m 247 265 q 215 37 260 147 q 70 -167 169 -73 l 17 -132 q 5 -121 9 -127 q 1 -108 1 -115 q 3 -94 1 -101 q 10 -83 6 -88 q 51 -30 33 -55 q 79 22 69 -4 q 86 75 88 47 q 67 134 85 102 l 78 219 q 94 252 81 240 q 132 265 106 265 l 247 265 z "},"Б":{"ha":826,"x_min":47,"x_max":818,"o":"m 301 440 l 266 154 l 401 154 q 478 166 446 154 q 531 201 510 178 q 561 255 551 223 q 570 326 570 286 q 563 373 570 351 q 541 409 556 394 q 499 432 525 424 q 435 440 473 440 l 301 440 m 351 854 l 319 594 l 454 594 q 600 575 540 594 q 698 523 660 556 q 753 445 736 490 q 771 351 771 401 q 744 208 771 273 q 667 98 717 144 q 544 26 616 51 q 381 0 472 0 l 47 0 l 170 1007 l 818 1007 l 799 854 l 351 854 z "},"Г":{"ha":706,"x_min":47,"x_max":751,"o":"m 732 855 l 353 855 l 248 0 l 47 0 l 170 1007 l 751 1007 l 732 855 z "},"Ґ":{"ha":706,"x_min":47,"x_max":778,"o":"m 732 855 l 353 855 l 248 0 l 47 0 l 170 1007 l 597 1007 l 624 1230 l 778 1230 l 732 855 z "},"Д":{"ha":1054,"x_min":-67,"x_max":994,"o":"m 651 151 l 738 855 l 516 855 q 464 599 491 711 q 410 402 438 488 q 353 255 382 317 q 294 151 324 194 l 651 151 m 953 -182 q 930 -223 949 -207 q 883 -238 910 -238 l 761 -238 l 791 0 l 147 0 l 125 -182 q 103 -223 122 -207 q 55 -238 83 -238 l -67 -238 l -18 151 l 82 151 q 120 184 100 162 q 161 248 140 207 q 205 353 183 290 q 251 507 228 416 q 298 722 274 599 q 345 1007 322 845 l 958 1007 l 853 151 l 994 151 l 953 -182 z "},"Ж":{"ha":1394,"x_min":-53,"x_max":1438,"o":"m 1170 622 q 1123 567 1147 589 q 1067 533 1099 545 q 1128 494 1103 520 q 1172 425 1153 469 l 1343 0 l 1209 0 q 1136 18 1165 0 q 1094 69 1108 37 l 968 383 q 936 427 956 415 q 886 440 917 440 l 793 440 l 739 0 l 550 0 l 604 440 l 511 440 q 458 427 481 440 q 415 383 435 415 l 214 69 q 158 18 192 37 q 81 0 125 0 l -53 0 l 222 425 q 284 494 252 469 q 353 533 315 520 q 307 567 325 545 q 273 622 289 589 l 99 1008 l 258 1008 q 312 993 288 1008 q 348 952 336 978 l 474 638 q 505 599 487 608 q 548 589 523 589 l 622 589 l 674 1008 l 863 1008 l 811 589 l 888 589 q 933 599 913 589 q 974 638 953 608 l 1176 952 q 1221 993 1194 978 q 1278 1008 1249 1008 l 1438 1008 l 1170 622 z "},"З":{"ha":760,"x_min":-24,"x_max":726,"o":"m 106 912 q 255 989 172 960 q 429 1017 338 1017 q 555 1000 500 1017 q 649 951 610 983 q 707 876 687 919 q 726 781 726 833 q 716 702 726 740 q 684 633 706 665 q 632 575 663 601 q 558 531 600 549 q 659 447 623 499 q 695 326 695 395 q 668 196 695 257 q 592 89 642 135 q 472 17 542 43 q 316 -10 402 -10 q 214 0 264 -10 q 120 27 164 10 q 39 70 76 45 q -24 124 2 94 l 47 217 q 67 235 55 228 q 94 242 80 242 q 119 236 106 242 q 145 219 131 229 q 176 197 159 209 q 215 175 193 185 q 263 159 236 165 q 324 152 290 152 q 458 195 411 152 q 506 324 506 239 q 465 416 506 383 q 349 449 425 449 l 219 449 l 238 608 l 357 608 q 491 645 445 608 q 536 751 536 683 q 504 828 536 799 q 403 857 472 857 q 326 846 360 857 q 265 823 292 835 q 219 799 239 810 q 185 788 199 788 q 160 795 169 788 q 144 818 151 803 l 106 912 z "},"И":{"ha":999,"x_min":47,"x_max":971,"o":"m 971 1008 l 847 0 l 646 0 l 717 594 q 729 671 722 631 q 748 756 736 711 q 708 682 728 716 q 668 622 687 648 l 294 61 q 275 39 285 50 q 252 20 265 28 q 226 6 240 11 q 198 0 213 0 l 47 0 l 170 1008 l 372 1008 l 300 413 q 288 336 295 376 q 269 250 281 295 q 309 325 288 290 q 349 385 330 360 l 724 947 q 742 968 732 958 q 765 988 753 979 q 791 1002 778 997 q 819 1008 805 1008 l 971 1008 z "},"К":{"ha":917,"x_min":47,"x_max":963,"o":"m 679 605 q 635 561 660 578 q 583 533 611 544 q 649 495 624 522 q 694 422 674 469 l 863 0 l 680 0 q 635 15 652 0 q 606 58 618 29 l 478 390 q 448 430 466 419 q 400 440 431 440 l 301 440 l 247 0 l 47 0 l 170 1008 l 371 1008 l 319 589 l 402 589 q 446 598 426 589 q 484 634 465 608 l 703 955 q 741 993 719 978 q 791 1008 763 1008 l 963 1008 l 679 605 z "},"Л":{"ha":975,"x_min":-47,"x_max":947,"o":"m 824 0 l 622 0 l 727 855 l 506 855 q 439 530 473 667 q 370 296 406 392 q 297 140 335 200 q 220 47 260 80 q 137 1 180 13 q 49 -10 94 -10 q -25 -1 -3 -10 q -44 26 -47 8 l -29 150 l 24 150 q 66 158 43 150 q 113 193 88 165 q 164 277 138 222 q 219 427 191 332 q 276 664 247 522 q 335 1007 305 806 l 947 1007 l 824 0 z "},"Љ":{"ha":1382,"x_min":-47,"x_max":1344,"o":"m 973 154 q 1051 166 1019 154 q 1103 201 1083 178 q 1133 255 1124 223 q 1142 326 1142 286 q 1136 373 1142 351 q 1113 409 1129 394 q 1071 432 1097 424 q 1007 440 1045 440 l 878 440 l 842 154 l 973 154 m 1027 594 q 1173 575 1113 594 q 1271 523 1233 556 q 1326 445 1309 490 q 1344 351 1344 401 q 1317 208 1344 273 q 1239 98 1290 144 q 1116 26 1189 51 q 953 0 1044 0 l 622 0 l 727 855 l 506 855 q 439 530 473 667 q 370 296 406 392 q 297 140 335 200 q 220 47 260 80 q 137 1 180 13 q 49 -10 94 -10 q -25 -1 -3 -10 q -44 26 -47 8 l -29 150 l 24 150 q 66 158 43 150 q 113 193 88 165 q 164 277 138 222 q 219 427 191 332 q 276 664 247 522 q 335 1007 305 806 l 947 1007 l 897 594 l 1027 594 z "},"Њ":{"ha":1407,"x_min":47,"x_max":1369,"o":"m 999 154 q 1076 166 1044 154 q 1129 201 1108 178 q 1159 255 1149 223 q 1168 326 1168 286 q 1161 373 1168 351 q 1139 409 1154 394 q 1097 432 1123 424 q 1033 440 1071 440 l 903 440 l 867 154 l 999 154 m 1052 594 q 1198 575 1138 594 q 1296 523 1258 556 q 1351 445 1334 490 q 1369 351 1369 401 q 1342 208 1369 273 q 1265 98 1315 144 q 1142 26 1214 51 q 978 0 1069 0 l 646 0 l 699 436 l 303 436 l 249 0 l 47 0 l 172 1008 l 374 1008 l 320 576 l 717 576 l 770 1008 l 973 1008 l 922 594 l 1052 594 z "},"Ѳ":{"ha":1051,"x_min":51,"x_max":1019,"o":"m 257 438 q 274 320 258 373 q 320 230 290 267 q 394 172 351 192 q 494 152 438 152 q 604 172 553 152 q 693 229 654 192 q 760 319 733 266 q 801 438 787 372 l 257 438 m 813 584 q 793 696 810 646 q 745 781 776 746 q 672 836 715 817 q 574 856 628 856 q 468 837 517 856 q 380 783 419 818 q 314 697 342 747 q 272 584 287 647 l 813 584 m 599 1019 q 774 984 697 1019 q 906 889 852 949 q 990 747 960 828 q 1019 570 1019 665 q 1000 412 1019 488 q 947 272 981 337 q 863 156 913 208 q 753 66 814 103 q 621 9 692 29 q 472 -11 550 -11 q 296 23 374 -11 q 164 118 218 58 q 81 260 110 178 q 51 437 51 342 q 70 595 51 519 q 123 735 89 670 q 207 852 158 799 q 317 941 256 904 q 449 999 378 978 q 599 1019 520 1019 z "},"П":{"ha":969,"x_min":47,"x_max":941,"o":"m 817 0 l 615 0 l 720 855 l 353 855 l 248 0 l 47 0 l 170 1007 l 941 1007 l 817 0 z "},"У":{"ha":855,"x_min":58,"x_max":932,"o":"m 932 1007 l 452 142 q 398 66 426 96 q 342 20 370 37 q 285 -4 314 3 q 227 -10 256 -10 q 143 1 169 -10 q 119 41 116 13 l 133 150 l 185 150 q 219 153 203 150 q 248 164 234 156 q 274 186 261 172 q 302 226 288 201 l 344 301 l 58 1007 l 242 1007 q 282 995 268 1007 q 303 963 295 983 l 414 612 q 433 542 425 576 q 447 472 442 508 q 478 542 461 508 q 513 613 494 577 l 690 963 q 718 993 700 978 q 762 1007 736 1007 l 932 1007 z "},"Ѵ":{"ha":935,"x_min":62,"x_max":989,"o":"m 678 857 q 717 926 695 897 q 767 975 739 956 q 832 1004 796 994 q 913 1014 867 1014 q 954 1012 938 1014 q 977 1004 969 1010 q 987 989 985 999 q 987 965 989 980 l 973 853 l 938 853 q 887 836 908 853 q 849 782 865 819 l 493 0 l 311 0 l 62 1007 l 219 1007 q 261 994 245 1007 q 281 963 276 982 l 401 369 q 416 300 409 338 q 428 222 424 263 q 457 300 442 263 q 488 369 472 338 l 678 857 z "},"Ф":{"ha":1052,"x_min":45,"x_max":1031,"o":"m 603 272 q 692 298 650 274 q 764 360 733 321 q 813 450 795 399 q 831 560 831 502 q 819 643 831 604 q 785 712 807 683 q 733 759 764 742 q 665 778 703 777 l 603 272 m 474 778 q 385 754 426 777 q 313 692 344 731 q 265 601 283 653 q 247 491 247 549 q 259 408 247 447 q 292 339 270 369 q 344 291 313 309 q 413 272 374 274 l 474 778 m 683 930 q 825 897 761 926 q 935 818 889 867 q 1006 705 981 769 q 1031 568 1031 641 q 996 397 1031 477 q 900 256 960 317 q 757 160 839 196 q 584 120 676 124 l 569 0 l 379 0 l 394 120 q 252 153 316 123 q 142 232 188 183 q 70 346 96 281 q 45 483 45 410 q 61 600 45 544 q 107 705 77 656 q 177 794 136 753 q 268 864 218 834 q 374 910 317 893 q 492 930 431 928 l 507 1049 l 698 1049 l 683 930 z "},"Ц":{"ha":1032,"x_min":47,"x_max":965,"o":"m 965 151 l 924 -182 q 900 -223 920 -207 q 853 -238 881 -238 l 732 -238 l 760 0 l 47 0 l 170 1007 l 372 1007 l 267 151 l 634 151 l 739 1007 l 941 1007 l 836 151 l 965 151 z "},"Џ":{"ha":969,"x_min":47,"x_max":941,"o":"m 941 1007 l 817 0 l 524 0 l 502 -182 q 479 -223 499 -207 q 432 -238 459 -238 l 310 -238 l 340 0 l 47 0 l 170 1007 l 372 1007 l 267 151 l 634 151 l 739 1007 l 941 1007 z "},"Ч":{"ha":886,"x_min":71,"x_max":858,"o":"m 858 1007 l 734 0 l 532 0 l 581 397 q 433 368 503 377 q 303 363 363 358 q 199 386 244 367 q 123 442 153 405 q 82 536 94 479 q 81 674 71 594 l 122 1007 l 324 1007 l 283 674 q 285 580 276 618 q 330 524 295 542 q 430 509 365 506 q 598 537 494 511 l 656 1007 l 858 1007 z "},"Ш":{"ha":1402,"x_min":47,"x_max":1374,"o":"m 1374 1007 l 1251 0 l 47 0 l 170 1007 l 372 1007 l 267 151 l 566 151 l 671 1007 l 873 1007 l 768 151 l 1067 151 l 1172 1007 l 1374 1007 z "},"Щ":{"ha":1465,"x_min":47,"x_max":1397,"o":"m 1397 151 l 1356 -182 q 1333 -223 1353 -207 q 1286 -238 1314 -238 l 1165 -238 l 1194 0 l 47 0 l 170 1007 l 372 1007 l 267 151 l 566 151 l 671 1007 l 873 1007 l 768 151 l 1067 151 l 1172 1007 l 1374 1007 l 1269 151 l 1397 151 z "},"Ъ":{"ha":988,"x_min":69,"x_max":952,"o":"m 582 154 q 659 166 627 154 q 712 201 692 178 q 742 255 733 223 q 751 326 751 286 q 744 373 751 351 q 722 409 738 394 q 680 432 706 424 q 616 440 654 440 l 483 440 l 447 154 l 582 154 m 635 594 q 781 575 721 594 q 880 523 842 556 q 935 445 917 490 q 952 351 952 401 q 925 208 952 273 q 848 98 899 144 q 725 26 797 51 q 562 0 653 0 l 228 0 l 332 849 l 69 849 l 90 1007 l 552 1007 l 501 594 l 635 594 z "},"Ы":{"ha":1176,"x_min":47,"x_max":1148,"o":"m 401 154 q 478 166 446 154 q 531 201 510 178 q 561 255 551 223 q 570 326 570 286 q 563 373 570 351 q 541 409 556 394 q 499 432 525 424 q 435 440 473 440 l 301 440 l 266 154 l 401 154 m 454 594 q 600 575 540 594 q 698 523 660 556 q 753 445 736 490 q 771 351 771 401 q 744 208 771 273 q 667 98 717 144 q 544 26 616 51 q 381 0 472 0 l 47 0 l 170 1007 l 371 1007 l 320 594 l 454 594 m 1025 0 l 823 0 l 946 1008 l 1148 1008 l 1025 0 z "},"Ь":{"ha":810,"x_min":47,"x_max":771,"o":"m 401 154 q 478 166 446 154 q 531 201 510 178 q 561 255 551 223 q 570 326 570 286 q 563 373 570 351 q 541 409 556 394 q 499 432 525 424 q 435 440 473 440 l 301 440 l 266 154 l 401 154 m 454 594 q 600 575 540 594 q 698 523 660 556 q 753 445 736 490 q 771 351 771 401 q 744 208 771 273 q 667 98 717 144 q 544 26 616 51 q 381 0 472 0 l 47 0 l 170 1007 l 371 1007 l 320 594 l 454 594 z "},"Э":{"ha":861,"x_min":-13,"x_max":826,"o":"m 90 889 q 239 983 156 948 q 427 1018 323 1018 q 594 985 520 1018 q 720 893 668 952 q 799 752 772 834 q 826 574 826 671 q 790 342 826 449 q 686 156 753 235 q 525 33 619 78 q 315 -11 431 -11 q 119 30 200 -11 q -13 145 39 71 l 77 230 q 107 242 92 242 q 138 228 125 242 q 175 194 156 208 q 214 172 193 180 q 260 159 235 163 q 317 156 285 156 q 412 174 366 156 q 496 229 458 193 q 564 317 535 265 q 607 438 592 369 l 196 438 l 215 584 l 620 584 q 602 695 618 646 q 559 779 587 744 q 492 833 531 814 q 405 851 453 851 q 318 840 353 851 q 258 814 283 828 q 216 789 233 800 q 182 777 198 777 q 158 784 166 777 q 144 799 149 790 l 90 889 z "},"Є":{"ha":859,"x_min":52,"x_max":883,"o":"m 803 146 q 649 29 738 69 q 445 -11 560 -11 q 278 22 351 -11 q 155 114 205 55 q 78 253 104 173 q 52 428 52 333 q 70 592 52 515 q 123 735 89 669 q 204 852 156 800 q 311 942 252 905 q 438 998 369 978 q 581 1018 506 1018 q 761 982 685 1018 q 883 886 837 945 l 804 794 q 786 778 797 785 q 760 772 776 772 q 740 777 749 772 q 720 792 731 783 q 695 810 709 800 q 664 829 682 821 q 620 843 645 838 q 560 849 594 849 q 463 831 508 849 q 380 779 417 813 q 315 696 342 745 q 273 584 288 647 l 683 584 l 665 438 l 258 438 q 276 319 259 372 q 323 231 293 267 q 392 175 352 194 q 479 156 432 156 q 536 160 510 156 q 585 173 562 164 q 630 195 608 181 q 674 229 651 209 q 689 238 681 234 q 705 243 697 242 q 720 242 713 244 q 735 231 728 239 l 803 146 l 803 146 z "},"Ю":{"ha":1413,"x_min":47,"x_max":1379,"o":"m 882 153 q 1003 183 949 153 q 1095 268 1058 213 q 1153 401 1133 324 q 1173 574 1173 478 q 1160 689 1173 637 q 1120 777 1147 740 q 1056 835 1094 815 q 967 855 1017 855 q 845 824 899 855 q 754 738 792 794 q 697 605 717 683 q 676 433 676 528 q 690 318 676 369 q 729 229 703 266 q 793 173 755 192 q 882 153 832 153 m 485 577 q 550 755 505 674 q 659 894 594 835 q 808 985 724 953 q 988 1018 891 1018 q 1154 984 1081 1018 q 1277 891 1227 951 q 1353 752 1327 832 q 1379 578 1379 672 q 1362 418 1379 494 q 1313 277 1345 342 q 1235 159 1281 212 q 1132 68 1190 106 q 1006 10 1074 31 q 862 -10 938 -10 q 697 23 769 -10 q 574 115 624 56 q 498 253 524 173 q 471 426 472 333 l 301 426 l 249 0 l 47 0 l 170 1008 l 372 1008 l 319 577 l 485 577 z "},"Я":{"ha":886,"x_min":-62,"x_max":858,"o":"m 603 567 l 638 853 l 498 853 q 420 841 452 853 q 368 807 388 829 q 338 753 347 785 q 328 683 328 722 q 335 636 328 657 q 358 599 342 615 q 399 576 374 584 q 464 567 425 567 l 603 567 m 735 0 l 533 0 l 584 413 l 508 413 q 478 410 492 413 q 450 399 464 407 q 423 377 437 391 q 397 342 410 364 l 222 69 q 166 18 199 37 q 89 0 133 0 l -62 0 l 178 351 q 232 411 203 387 q 297 451 260 435 q 222 487 253 465 q 170 539 190 510 q 139 602 149 567 q 129 675 129 637 q 156 808 129 747 q 234 913 183 869 q 356 982 284 957 q 518 1007 428 1007 l 858 1007 l 735 0 z "},"Ђ":{"ha":990,"x_min":73,"x_max":955,"o":"m 638 594 q 783 575 723 594 q 882 523 844 556 q 938 445 920 490 q 955 351 955 401 q 928 208 955 273 q 850 98 901 144 q 727 26 800 51 q 565 0 655 0 l 513 0 l 532 154 l 583 154 q 661 166 629 154 q 714 201 694 178 q 744 255 735 223 q 753 326 753 286 q 747 373 753 351 q 724 409 740 394 q 682 432 708 424 q 618 440 656 440 l 460 440 l 406 0 l 206 0 l 310 851 l 73 851 l 92 1007 l 783 1007 l 764 851 l 511 851 l 479 594 l 638 594 z "},"Ћ":{"ha":986,"x_min":73,"x_max":942,"o":"m 479 590 q 683 623 593 619 q 832 598 773 628 q 917 499 892 569 q 928 310 942 429 l 890 -1 l 688 -1 l 726 310 q 730 376 730 347 q 723 426 731 406 q 699 460 716 447 q 651 475 681 472 q 574 472 620 478 q 462 450 527 466 l 406 0 l 206 0 l 310 851 l 73 851 l 92 1007 l 783 1007 l 764 851 l 511 851 l 479 590 z "},"Ѣ":{"ha":958,"x_min":67,"x_max":919,"o":"m 549 154 q 627 166 594 154 q 680 201 659 178 q 709 255 700 223 q 719 326 719 286 q 712 373 719 351 q 689 409 705 394 q 648 432 674 424 q 583 440 622 440 l 450 440 l 415 154 l 549 154 m 603 594 q 749 575 688 594 q 847 523 809 556 q 902 445 885 490 q 919 351 919 401 q 893 208 919 273 q 815 98 866 144 q 692 26 765 51 q 529 0 620 0 l 195 0 l 284 725 l 67 725 l 85 870 l 302 870 l 319 1007 l 519 1007 l 503 870 l 767 870 l 749 725 l 485 725 l 469 594 l 603 594 z "},"б":{"ha":762,"x_min":55,"x_max":764,"o":"m 444 560 q 361 535 399 560 q 298 468 324 509 q 256 376 271 426 q 241 275 241 325 q 268 165 241 202 q 344 128 295 128 q 419 153 385 128 q 478 222 453 179 q 516 319 503 265 q 529 432 529 374 q 509 529 529 497 q 444 560 490 560 m 764 1063 l 764 967 q 749 916 764 938 q 703 888 734 894 l 502 856 q 374 812 425 843 q 290 737 322 781 q 240 642 257 694 q 216 538 224 591 q 270 601 239 572 q 338 650 301 629 q 418 682 375 670 q 511 693 462 693 q 595 679 557 693 q 661 634 634 665 q 705 558 689 604 q 720 447 720 511 q 708 333 720 390 q 671 226 695 277 q 613 132 647 176 q 536 57 579 89 q 442 8 493 26 q 333 -10 390 -10 q 222 10 272 -10 q 134 75 171 31 q 76 186 97 119 q 55 349 55 254 q 58 435 55 388 q 68 531 60 481 q 90 632 76 581 q 125 731 103 683 q 176 824 146 780 q 247 905 206 869 q 340 967 288 941 q 458 1006 392 993 l 764 1063 z "},"в":{"ha":674,"x_min":24,"x_max":617,"o":"m 213 295 q 239 170 212 215 q 324 128 267 126 q 371 140 350 130 q 407 166 392 150 q 430 203 422 182 q 438 247 438 224 q 432 283 438 267 q 412 310 426 299 q 377 324 399 320 q 324 321 355 327 l 213 295 m 324 432 q 390 452 365 440 q 429 479 415 465 q 448 509 443 493 q 453 540 453 524 q 440 584 453 567 q 396 601 428 601 q 342 587 369 601 q 294 548 316 574 q 253 487 272 523 q 225 407 235 451 l 324 432 m 456 394 q 519 381 490 391 q 569 353 548 371 q 602 309 590 335 q 615 249 615 283 q 594 155 615 201 q 533 72 573 108 q 434 12 492 35 q 303 -11 376 -11 q 183 9 235 -11 q 96 68 131 30 q 42 160 60 106 q 24 281 24 214 q 38 397 24 341 q 77 503 51 453 q 138 594 102 553 q 217 664 173 635 q 312 709 261 693 q 419 726 363 726 q 505 714 468 726 q 566 682 542 702 q 604 634 591 662 q 617 576 617 607 q 577 472 617 521 q 456 394 538 424 z "},"г":{"ha":567,"x_min":2,"x_max":531,"o":"m 308 725 q 393 714 353 725 q 464 682 433 703 q 513 629 494 661 q 531 553 531 597 q 506 463 531 502 q 443 392 481 424 q 361 334 406 360 q 280 283 317 308 q 217 234 242 259 q 192 181 192 210 q 210 149 192 163 q 265 134 228 134 q 317 142 294 134 q 360 161 340 151 q 395 180 379 172 q 424 188 410 188 q 445 184 437 188 q 461 168 453 179 l 506 101 q 445 52 478 73 q 377 17 413 31 q 305 -3 342 3 q 233 -10 269 -10 q 136 3 179 -10 q 64 40 94 17 q 18 97 34 64 q 2 167 2 129 q 17 239 2 206 q 56 299 32 272 q 111 351 81 327 q 175 395 142 374 q 239 434 208 415 q 294 470 269 453 q 333 505 318 488 q 348 540 348 522 q 333 568 348 556 q 285 581 318 581 q 242 574 263 581 q 203 560 222 567 q 169 545 185 552 q 142 539 154 539 q 125 542 134 538 q 109 562 117 547 l 68 639 q 179 702 116 678 q 308 725 242 725 z "},"ґ":{"ha":555,"x_min":-30,"x_max":620,"o":"m 620 885 l 556 587 l 406 587 q 351 564 372 587 q 322 493 329 542 l 274 219 q 245 125 264 167 q 196 54 226 83 q 126 8 167 24 q 35 -8 86 -8 q -15 -1 -1 -8 q -28 25 -30 6 l -15 132 l -6 132 q 58 156 32 132 q 92 228 83 180 l 138 486 q 171 591 149 548 q 225 663 193 635 q 298 703 257 690 q 387 715 338 715 l 423 715 l 449 812 q 484 866 458 847 q 547 885 509 885 l 620 885 z "},"д":{"ha":749,"x_min":28,"x_max":705,"o":"m 328 135 q 403 158 368 135 q 463 232 438 182 q 502 360 488 283 q 517 547 517 438 q 471 570 497 561 q 417 580 446 580 q 336 558 373 580 q 274 499 300 537 q 234 409 248 461 q 219 297 219 357 q 227 222 219 253 q 249 172 235 191 q 283 144 263 153 q 328 135 303 135 m 166 1010 q 385 1011 285 1025 q 555 944 484 997 q 666 794 626 891 q 705 546 705 697 q 674 314 705 417 q 589 139 643 210 q 462 28 535 67 q 305 -10 389 -10 q 194 9 245 -10 q 107 66 144 28 q 49 163 69 105 q 28 297 28 220 q 53 453 28 378 q 124 586 78 528 q 232 679 169 644 q 373 714 296 714 q 458 700 421 714 q 527 659 495 685 q 491 772 517 728 q 423 841 465 816 q 325 875 382 866 q 194 883 267 884 q 161 893 169 883 q 157 925 153 903 l 166 1010 z "},"ж":{"ha":1221,"x_min":-22,"x_max":1226,"o":"m 682 356 q 793 525 736 455 q 905 640 851 596 q 1008 705 960 685 q 1092 726 1056 726 q 1161 713 1127 726 q 1226 672 1195 701 l 1179 592 q 1159 569 1169 575 q 1138 564 1149 564 q 1112 569 1124 564 q 1083 575 1100 575 q 1035 555 1060 575 q 991 497 1011 535 q 958 403 971 459 q 945 276 945 348 q 949 208 945 235 q 961 165 953 181 q 981 142 969 149 q 1008 135 992 135 q 1025 138 1017 135 q 1042 146 1034 142 q 1059 153 1051 150 q 1074 157 1067 157 q 1094 154 1084 157 q 1109 140 1103 151 l 1151 58 q 1105 27 1129 40 q 1056 6 1081 14 q 1007 -7 1031 -3 q 963 -10 983 -10 q 889 3 922 -10 q 833 43 856 17 q 796 110 809 70 q 783 204 783 151 q 816 399 783 307 q 762 318 789 362 q 713 226 735 275 q 672 125 690 178 q 647 15 655 72 l 645 0 l 485 0 l 522 361 q 410 191 468 261 q 298 75 353 120 q 195 10 244 31 q 112 -10 147 -10 q 43 2 77 -10 q -22 44 9 15 l 24 123 q 44 146 34 140 q 65 151 55 151 q 92 146 79 152 q 121 140 104 140 q 168 160 144 140 q 213 218 192 180 q 245 312 233 256 q 258 440 258 368 q 254 507 258 480 q 242 550 250 534 q 223 574 235 567 q 196 581 211 581 q 178 577 187 581 q 161 569 169 574 q 145 562 153 565 q 129 558 138 558 q 110 561 119 558 q 94 575 100 565 l 52 658 q 99 689 74 676 q 148 710 123 701 q 196 722 172 718 q 241 726 220 726 q 314 712 281 726 q 371 672 347 699 q 407 605 394 645 q 420 512 420 565 q 388 317 420 408 q 441 397 415 353 q 491 490 468 440 q 531 592 514 539 q 558 702 549 646 l 559 717 l 719 716 l 682 356 z "},"з":{"ha":617,"x_min":-25,"x_max":577,"o":"m 60 625 q 114 665 83 647 q 181 698 144 684 q 258 719 217 711 q 341 726 299 726 q 447 712 402 726 q 520 674 491 698 q 563 620 549 651 q 577 556 577 590 q 569 506 577 531 q 543 459 561 481 q 497 418 526 437 q 428 388 469 400 q 518 336 487 374 q 550 239 550 298 q 531 151 550 195 q 473 71 513 107 q 372 12 433 35 q 225 -10 310 -10 q 96 10 158 -10 q -25 83 35 31 l 24 160 q 39 176 29 169 q 61 183 49 183 q 92 175 78 183 q 124 155 106 166 q 168 136 142 144 q 235 127 194 127 q 297 136 270 127 q 341 160 323 144 q 367 197 358 176 q 376 242 376 218 q 369 280 376 265 q 349 303 362 294 q 318 316 336 313 q 278 320 300 320 q 226 316 257 320 q 169 306 195 311 q 172 374 169 342 q 189 442 175 407 q 226 436 208 438 q 263 433 244 433 q 329 442 301 433 q 373 463 356 450 q 398 491 390 475 q 406 521 406 506 q 382 569 406 551 q 303 588 358 588 q 241 581 267 588 q 197 565 215 574 q 165 548 178 556 q 139 538 151 540 q 118 540 127 537 q 99 560 109 544 l 60 625 z "},"и":{"ha":758,"x_min":40,"x_max":718,"o":"m 718 716 l 631 0 l 534 0 q 466 65 466 0 l 468 129 q 353 24 415 58 q 224 -10 291 -10 q 143 8 179 -10 q 83 60 107 26 q 50 145 60 95 q 49 261 40 196 l 102 716 l 294 716 l 240 261 q 246 170 232 197 q 298 143 260 143 q 350 157 323 143 q 401 198 376 172 q 447 261 426 224 q 482 344 468 299 l 527 716 l 718 716 z "},"к":{"ha":717,"x_min":22,"x_max":705,"o":"m 424 567 q 474 638 454 609 q 514 684 494 666 q 559 709 534 701 q 625 717 585 717 l 705 717 l 685 619 q 672 593 681 599 q 652 584 663 587 q 627 575 640 581 q 599 550 613 569 l 532 453 q 511 427 522 438 q 490 407 501 415 q 467 392 479 398 q 439 383 454 386 q 512 350 485 374 q 556 281 539 326 l 658 0 l 549 0 q 507 4 525 0 q 477 16 490 8 q 455 35 464 24 q 438 62 445 47 l 371 255 q 344 296 363 281 q 300 312 324 312 l 242 300 l 206 0 l 22 0 l 109 716 l 294 716 l 258 422 l 290 429 q 312 435 303 432 q 328 442 321 438 q 341 452 335 446 q 355 469 347 458 l 424 567 z "},"л":{"ha":772,"x_min":-27,"x_max":733,"o":"m 160 389 q 211 538 181 476 q 286 639 241 600 q 396 697 332 678 q 551 715 460 715 l 733 715 l 645 0 l 461 0 l 532 576 l 512 576 q 449 567 476 576 q 402 536 422 558 q 367 475 382 513 q 340 379 353 438 q 288 193 317 267 q 223 73 259 118 q 143 9 187 28 q 47 -10 99 -10 q -11 -3 6 -10 q -25 22 -27 3 l -12 128 l 10 128 q 61 141 41 128 q 98 184 82 153 q 128 264 115 214 q 160 389 142 314 z "},"љ":{"ha":1092,"x_min":-27,"x_max":1055,"o":"m 671 178 q 686 136 667 153 q 742 119 705 119 q 797 136 772 119 q 840 179 822 153 q 868 238 858 206 q 878 300 878 269 q 875 328 878 315 q 866 352 873 342 q 848 369 860 363 q 819 375 837 375 q 770 359 794 375 q 725 319 745 344 q 691 264 704 294 q 674 203 677 233 l 671 178 m 699 410 q 792 480 742 456 q 886 503 842 503 q 954 491 923 503 q 1007 456 985 479 q 1042 401 1030 433 q 1055 326 1055 368 q 1025 197 1055 258 q 945 89 996 135 q 827 16 894 43 q 683 -10 759 -10 q 523 42 572 -10 q 486 192 474 94 l 533 576 l 526 576 q 461 567 490 576 q 409 536 432 558 q 370 475 387 513 q 340 379 353 438 q 288 193 317 267 q 223 73 259 118 q 143 9 187 28 q 47 -10 99 -10 q -11 -3 6 -10 q -25 22 -27 3 l -12 128 l 10 128 q 61 141 41 128 q 98 184 82 153 q 128 264 115 214 q 160 389 142 314 q 211 535 181 474 q 289 636 242 597 q 399 695 335 676 q 549 715 463 714 l 549 716 l 736 716 l 699 410 z "},"м":{"ha":999,"x_min":-16,"x_max":960,"o":"m 960 717 l 872 0 l 699 0 l 749 406 q 755 444 751 423 q 765 485 759 465 l 517 45 q 493 22 508 30 q 462 13 479 13 l 435 13 q 406 22 418 13 q 388 45 393 30 l 267 481 q 259 431 264 457 q 250 384 255 404 q 235 308 242 345 q 221 232 228 271 q 202 150 213 192 q 175 56 192 107 q 147 15 165 30 q 101 0 129 0 l -16 0 q 34 166 9 79 q 84 345 60 253 q 129 530 108 436 q 165 717 150 624 l 319 717 q 339 715 328 717 q 357 709 349 713 q 373 697 366 705 q 384 676 381 689 l 483 356 q 506 268 498 306 q 520 299 513 283 q 537 330 527 314 l 719 676 q 755 709 735 701 q 793 717 775 717 l 960 717 z "},"н":{"ha":758,"x_min":23,"x_max":717,"o":"m 717 716 l 632 0 l 441 0 l 477 305 l 251 305 l 215 0 l 23 0 l 109 716 l 300 716 l 267 440 l 494 440 l 526 716 l 717 716 z "},"њ":{"ha":1067,"x_min":22,"x_max":1031,"o":"m 647 178 q 663 136 644 153 q 719 119 681 119 q 773 136 748 119 q 816 179 798 153 q 844 238 834 206 q 854 300 854 269 q 852 328 854 315 q 843 352 849 342 q 825 369 836 363 q 796 375 813 375 q 746 359 771 375 q 701 319 722 344 q 667 264 681 294 q 650 203 653 233 l 647 178 m 675 410 q 769 480 719 456 q 863 503 819 503 q 930 491 899 503 q 984 456 961 479 q 1019 401 1006 433 q 1031 326 1031 368 q 1002 197 1031 258 q 922 89 972 135 q 803 16 871 43 q 659 -10 735 -10 q 500 42 549 -10 q 463 192 451 94 l 476 306 l 251 306 l 214 0 l 22 0 l 108 716 l 299 716 l 267 442 l 492 442 l 526 716 l 713 716 l 675 410 z "},"ѳ":{"ha":729,"x_min":26,"x_max":688,"o":"m 210 288 q 237 161 210 201 q 322 122 264 122 q 378 135 352 122 q 426 173 405 149 q 464 231 448 197 q 489 304 479 265 l 210 304 l 210 288 m 503 428 q 476 555 503 516 q 392 594 449 594 q 336 582 362 594 q 290 547 310 569 q 253 492 269 524 q 227 422 237 460 l 503 422 l 503 428 m 408 727 q 518 707 467 727 q 607 649 569 688 q 666 554 644 610 q 688 426 688 498 q 657 253 688 333 q 574 115 626 173 q 452 23 522 56 q 306 -10 383 -10 q 195 9 247 -10 q 106 67 144 29 q 48 162 69 106 q 26 290 26 218 q 57 464 26 384 q 140 603 88 544 q 261 694 192 661 q 408 727 331 727 z "},"п":{"ha":758,"x_min":23,"x_max":701,"o":"m 268 580 q 385 691 322 655 q 517 727 449 727 q 598 709 562 727 q 658 656 634 691 q 692 571 682 622 q 693 455 701 520 l 639 0 l 448 0 l 501 455 q 495 546 510 519 q 444 573 481 573 q 390 557 417 573 q 336 513 362 542 q 289 444 310 485 q 254 355 267 404 l 215 0 l 23 0 l 109 717 l 207 717 q 253 702 237 717 q 270 656 270 688 l 268 580 z "},"т":{"ha":1105,"x_min":22,"x_max":1047,"o":"m 22 0 l 109 717 l 208 717 q 254 702 238 717 q 271 656 271 688 l 269 594 q 369 694 316 662 q 482 727 423 727 q 584 685 545 727 q 632 564 624 644 q 740 688 681 648 q 870 727 799 727 q 950 709 915 727 q 1008 656 985 691 q 1039 571 1031 622 q 1039 455 1047 520 l 985 0 l 797 0 l 850 455 q 846 546 858 519 q 801 573 834 573 q 754 560 776 573 q 711 523 731 547 q 674 464 691 499 q 644 386 656 430 l 598 0 l 409 0 l 463 455 q 460 546 471 519 q 415 573 449 573 q 367 559 390 573 q 323 521 344 546 q 286 460 303 496 q 256 380 269 424 l 210 0 l 22 0 z "},"ѵ":{"ha":715,"x_min":35,"x_max":731,"o":"m 458 580 q 496 654 475 626 q 543 698 517 682 q 596 719 568 713 q 655 724 624 724 q 694 722 679 724 q 717 715 709 719 q 728 707 726 711 q 730 699 731 702 l 717 599 l 697 599 q 652 587 672 599 q 620 549 632 575 l 375 0 l 208 0 l 35 715 l 189 715 q 221 706 209 715 q 237 681 233 696 l 304 317 q 314 260 310 288 q 321 205 318 233 q 341 260 331 232 q 361 317 351 288 l 458 580 z "},"ф":{"ha":1045,"x_min":26,"x_max":1002,"o":"m 583 146 q 642 132 610 132 q 714 158 682 132 q 767 228 745 185 q 800 327 789 272 q 812 440 812 383 q 791 547 812 515 q 724 579 770 579 q 673 568 698 579 q 629 535 649 556 l 583 146 m 445 571 q 417 581 431 578 q 386 584 402 584 q 314 558 346 584 q 261 488 283 531 q 227 389 239 444 q 216 276 216 334 q 237 170 216 202 q 303 138 258 138 q 355 149 330 138 q 399 182 379 160 l 445 571 m 646 674 q 712 714 677 701 q 795 727 747 727 q 881 712 842 727 q 946 664 919 697 q 988 580 973 631 q 1002 457 1002 528 q 991 336 1002 395 q 959 226 979 278 q 909 130 938 174 q 843 56 879 87 q 766 7 808 24 q 678 -10 724 -10 q 617 1 644 -10 q 569 31 590 13 l 547 -154 q 537 -187 545 -172 q 515 -214 528 -202 q 483 -232 501 -225 q 444 -238 465 -238 l 349 -238 l 382 42 q 316 3 351 16 q 233 -10 281 -10 q 147 5 185 -10 q 82 53 109 20 q 40 137 55 86 q 26 260 26 188 q 37 380 26 322 q 69 491 49 439 q 119 586 90 543 q 184 661 149 630 q 262 710 220 692 q 350 727 304 727 q 411 715 383 727 q 459 684 439 702 l 491 951 q 501 984 493 969 q 523 1011 510 999 q 554 1029 536 1022 q 594 1035 572 1035 l 689 1035 l 646 674 z "},"ц":{"ha":816,"x_min":40,"x_max":769,"o":"m 769 135 l 690 -184 q 670 -224 687 -209 q 631 -238 653 -238 l 515 -238 l 585 0 l 534 0 q 466 65 466 0 l 468 129 q 353 24 415 58 q 224 -10 291 -10 q 143 8 179 -10 q 83 60 107 26 q 50 145 60 95 q 49 261 40 196 l 102 716 l 294 716 l 240 261 q 246 170 232 197 q 298 143 260 143 q 350 157 323 143 q 401 198 376 172 q 447 261 426 224 q 482 344 468 299 l 527 716 l 718 716 l 642 91 l 648 135 l 769 135 z "},"џ":{"ha":758,"x_min":41,"x_max":718,"o":"m 718 716 l 631 0 l 534 0 q 466 65 466 0 l 468 129 q 422 77 446 100 q 374 37 399 54 l 347 -184 q 326 -224 343 -209 q 288 -238 310 -238 l 172 -238 l 200 -9 q 129 16 160 -4 q 77 70 97 35 q 49 152 56 104 q 49 261 41 201 l 102 716 l 294 716 l 240 261 q 246 170 232 197 q 298 143 260 143 q 350 157 323 143 q 401 198 376 172 q 447 261 426 224 q 482 344 468 299 l 527 716 l 718 716 z "},"ч":{"ha":696,"x_min":33,"x_max":656,"o":"m 656 716 l 570 0 l 378 0 l 413 290 q 207 203 326 203 q 125 220 160 203 q 70 270 91 238 q 41 347 49 302 q 40 447 33 392 l 74 716 l 265 716 l 232 447 q 240 382 226 407 q 291 356 254 356 q 334 364 313 356 q 375 386 356 372 q 409 423 394 401 q 435 474 425 445 l 465 716 l 656 716 z "},"ш":{"ha":1104,"x_min":40,"x_max":1065,"o":"m 1065 716 l 978 0 l 880 0 q 833 15 850 0 q 817 60 817 29 l 818 122 q 718 22 771 55 q 606 -10 665 -10 q 503 31 542 -10 q 456 153 464 73 q 348 29 406 69 q 217 -10 289 -10 q 137 8 172 -10 q 79 60 101 26 q 49 145 57 95 q 49 261 40 196 l 102 716 l 291 716 l 238 261 q 241 170 229 197 q 287 143 253 143 q 333 156 310 143 q 376 193 356 169 q 414 253 397 218 q 444 331 431 288 l 490 716 l 678 716 l 624 261 q 628 170 617 197 q 673 143 639 143 q 721 157 698 143 q 764 195 744 170 q 801 256 784 220 q 831 336 819 292 l 877 716 l 1065 716 z "},"щ":{"ha":1163,"x_min":40,"x_max":1115,"o":"m 1115 135 l 1035 -184 q 1016 -224 1033 -209 q 977 -238 999 -238 l 861 -238 l 930 0 l 880 0 q 833 15 850 0 q 817 60 817 29 l 818 122 q 718 22 771 55 q 606 -10 665 -10 q 503 31 542 -10 q 456 153 464 73 q 348 29 406 69 q 217 -10 289 -10 q 137 8 172 -10 q 79 60 101 26 q 49 145 57 95 q 49 261 40 196 l 102 716 l 291 716 l 238 261 q 241 170 229 197 q 287 143 253 143 q 333 156 310 143 q 376 193 356 169 q 414 253 397 218 q 444 331 431 288 l 490 716 l 678 716 l 624 261 q 628 170 617 197 q 673 143 639 143 q 721 157 698 143 q 764 195 744 170 q 801 256 784 220 q 831 336 819 292 l 877 716 l 1065 716 l 995 135 l 1115 135 z "},"ъ":{"ha":749,"x_min":29,"x_max":713,"o":"m 398 119 q 454 135 428 119 q 497 179 479 152 q 525 238 515 206 q 535 303 535 271 q 533 330 535 317 q 524 352 531 342 q 507 369 518 363 q 480 375 497 375 q 426 360 453 375 q 378 319 399 344 q 343 261 356 294 q 329 192 329 228 q 349 137 329 155 q 398 119 368 119 m 435 622 q 408 569 419 594 q 386 518 396 544 q 370 467 377 493 q 358 413 363 441 q 453 480 401 457 q 552 503 505 503 q 616 491 586 503 q 667 456 645 479 q 700 401 688 433 q 713 327 713 368 q 702 251 713 290 q 673 174 692 212 q 625 103 653 137 q 558 44 596 69 q 473 5 520 19 q 372 -10 426 -10 q 277 4 319 -10 q 206 48 235 19 q 160 121 176 77 q 144 225 144 165 q 150 310 144 267 q 167 396 155 352 q 201 485 180 440 q 256 579 223 530 l 29 579 l 38 647 q 64 697 42 678 q 122 716 85 716 l 451 716 l 435 622 z "},"ы":{"ha":949,"x_min":30,"x_max":909,"o":"m 909 716 l 823 0 l 632 0 l 717 716 l 909 716 m 226 178 q 242 136 223 153 q 298 119 260 119 q 352 136 327 119 q 395 179 377 153 q 423 238 413 206 q 433 300 433 269 q 431 328 433 315 q 422 352 428 342 q 404 369 415 363 q 375 375 392 375 q 325 359 350 375 q 280 319 301 344 q 246 264 260 294 q 229 203 233 233 l 226 178 m 254 410 q 348 480 298 456 q 442 503 398 503 q 509 491 478 503 q 563 456 540 479 q 598 401 585 433 q 610 326 610 368 q 581 197 610 258 q 501 89 551 135 q 382 16 450 43 q 238 -10 315 -10 q 79 42 128 -10 q 42 192 30 94 l 105 716 l 292 716 l 254 410 z "},"ь":{"ha":647,"x_min":30,"x_max":610,"o":"m 226 178 q 242 136 223 153 q 298 119 260 119 q 352 136 327 119 q 395 179 377 153 q 423 238 413 206 q 433 300 433 269 q 431 328 433 315 q 422 352 428 342 q 404 369 415 363 q 375 375 392 375 q 325 359 350 375 q 280 319 301 344 q 246 264 260 294 q 229 203 233 233 l 226 178 m 254 410 q 348 480 298 456 q 442 503 398 503 q 509 491 478 503 q 563 456 540 479 q 598 401 585 433 q 610 326 610 368 q 581 197 610 258 q 501 89 551 135 q 382 16 450 43 q 238 -10 315 -10 q 79 42 128 -10 q 42 192 30 94 l 105 716 l 292 716 l 254 410 z "},"э":{"ha":637,"x_min":-13,"x_max":592,"o":"m 47 638 q 163 702 101 678 q 306 726 225 726 q 427 705 374 726 q 517 641 481 683 q 573 541 553 600 q 592 406 592 481 q 562 239 592 315 q 480 107 532 162 q 357 20 428 51 q 202 -10 285 -10 q 78 14 130 -10 q -13 90 26 39 l 42 156 q 58 169 49 163 q 77 174 67 174 q 100 168 90 174 q 124 153 110 161 q 155 139 137 145 q 202 132 174 132 q 327 178 277 132 q 396 303 377 224 l 129 303 l 145 427 l 406 427 q 365 548 400 509 q 269 586 330 586 q 223 579 244 586 q 185 564 203 572 q 153 549 168 556 q 124 542 138 542 q 94 549 103 542 q 80 566 85 557 l 47 638 z "},"є":{"ha":634,"x_min":26,"x_max":619,"o":"m 581 126 q 514 61 547 88 q 448 19 482 35 q 377 -3 415 3 q 294 -10 340 -10 q 182 11 232 -10 q 98 71 133 32 q 44 166 63 110 q 26 290 26 222 q 54 457 26 378 q 133 595 83 535 q 254 691 184 656 q 406 726 324 726 q 528 701 478 726 q 619 625 579 676 l 563 560 q 548 547 557 552 q 528 541 538 541 q 506 548 516 541 q 484 562 497 554 q 455 576 472 569 q 409 583 438 583 q 302 542 349 583 q 231 427 255 501 l 487 427 l 472 303 l 211 303 l 211 295 q 220 227 211 258 q 246 175 229 197 q 287 141 263 153 q 342 129 311 129 q 403 140 379 129 q 443 163 426 150 q 473 185 460 175 q 505 196 487 196 q 523 191 515 196 q 538 178 532 186 l 581 126 l 581 126 z "},"ю":{"ha":1008,"x_min":22,"x_max":965,"o":"m 625 133 q 688 157 660 133 q 735 222 715 181 q 764 317 754 263 q 774 431 774 371 q 753 547 774 510 q 688 583 733 583 q 625 559 653 583 q 578 495 597 535 q 549 400 559 454 q 539 286 539 347 q 560 170 540 207 q 625 133 581 133 m 376 428 q 425 550 393 494 q 500 644 457 605 q 596 706 544 684 q 707 727 649 727 q 808 707 761 727 q 890 650 856 688 q 945 557 925 612 q 965 430 965 501 q 952 310 965 367 q 916 205 940 253 q 858 116 892 156 q 785 48 825 76 q 699 5 744 20 q 605 -10 653 -10 q 506 9 551 -10 q 428 66 460 28 q 378 159 396 104 q 360 286 360 215 l 360 298 l 242 298 l 206 0 l 22 0 l 110 715 l 294 715 l 259 428 l 376 428 z "},"я":{"ha":719,"x_min":-27,"x_max":681,"o":"m 490 597 l 388 597 q 332 585 354 597 q 297 556 310 574 q 279 517 284 538 q 274 478 274 496 q 295 416 274 436 q 355 396 317 396 l 466 396 l 490 597 m 681 715 l 592 0 l 417 0 l 452 283 l 397 283 q 361 279 376 283 q 337 268 347 275 q 319 250 327 260 q 305 226 312 239 l 230 92 q 191 39 212 59 q 146 9 169 19 q 98 -5 123 -1 q 49 -8 74 -8 q -11 -1 5 -8 q -26 25 -27 6 l -12 131 l 11 131 q 57 142 38 131 q 93 178 77 153 l 134 244 q 176 292 153 274 q 230 320 199 310 q 164 345 190 328 q 120 384 137 362 q 96 431 103 406 q 89 483 89 457 q 106 565 89 524 q 160 640 124 606 q 252 694 196 673 q 386 715 308 715 l 681 715 z "},"ђ":{"ha":735,"x_min":17,"x_max":674,"o":"m 274 553 q 375 634 322 606 q 490 662 428 662 q 628 595 582 662 q 674 409 674 529 q 658 249 674 330 q 614 89 642 169 q 545 -71 585 8 q 458 -226 506 -150 l 315 -170 q 398 -5 365 -82 q 450 139 431 72 q 478 267 470 207 q 487 381 487 326 q 468 488 487 455 q 412 521 449 521 q 331 484 373 521 q 252 376 290 447 l 206 0 l 22 0 l 113 747 l 17 747 l 33 884 l 130 884 l 149 1035 l 333 1035 l 315 884 l 504 884 l 487 747 l 298 747 l 274 553 z "},"ѣ":{"ha":756,"x_min":31,"x_max":708,"o":"m 324 178 q 339 136 320 153 q 395 119 358 119 q 449 136 424 119 q 492 179 474 153 q 520 238 510 206 q 531 300 531 269 q 528 328 531 315 q 519 352 526 342 q 501 369 513 363 q 472 375 490 375 q 423 359 447 375 q 377 319 398 344 q 343 264 357 294 q 326 203 330 233 l 324 178 m 351 410 q 445 480 395 456 q 539 503 495 503 q 607 491 576 503 q 660 456 638 479 q 695 401 683 433 q 708 326 708 368 q 678 197 708 258 q 598 89 649 135 q 480 16 547 43 q 335 -10 412 -10 q 176 42 225 -10 q 139 192 127 94 l 185 579 l 31 579 l 48 716 l 203 716 l 225 899 l 412 899 l 390 716 l 572 716 l 555 579 l 373 579 l 364 507 l 363 507 l 351 410 z "},"!":{"ha":375,"x_min":40,"x_max":341,"o":"m 341 1008 l 292 610 q 270 484 285 546 q 237 356 256 423 l 112 356 q 110 484 109 423 q 120 610 112 546 l 169 1008 l 341 1008 m 40 101 q 49 144 40 124 q 73 180 58 165 q 108 203 88 194 q 153 212 128 212 q 197 203 176 212 q 233 180 218 194 q 257 144 249 165 q 266 101 266 124 q 257 57 266 77 q 233 22 249 37 q 197 -1 218 7 q 153 -10 176 -10 q 108 -1 128 -10 q 73 22 88 7 q 49 57 58 37 q 40 101 40 77 z "},"?":{"ha":605,"x_min":101,"x_max":598,"o":"m 101 915 q 157 955 127 936 q 219 988 186 974 q 289 1010 252 1001 q 368 1018 326 1018 q 468 1002 425 1018 q 540 958 511 986 q 583 894 569 931 q 598 815 598 857 q 583 716 598 756 q 544 646 567 675 q 492 595 520 617 q 436 553 463 574 q 388 510 410 533 q 357 456 367 488 l 328 356 l 201 356 l 202 468 q 219 531 203 503 q 261 582 236 558 q 315 626 286 605 q 369 670 344 647 q 410 719 394 692 q 427 781 427 746 q 405 847 427 822 q 334 871 383 871 q 275 863 299 871 q 232 844 250 854 q 201 825 214 833 q 176 817 188 817 q 155 822 162 817 q 141 840 148 827 l 101 915 m 135 101 q 143 144 135 124 q 167 180 152 165 q 203 203 183 194 q 248 212 224 212 q 292 203 272 212 q 328 180 313 194 q 352 144 344 165 q 361 101 361 124 q 352 57 361 77 q 328 22 344 37 q 292 -1 313 7 q 248 -10 272 -10 q 203 -1 224 -10 q 167 22 183 7 q 143 57 152 37 q 135 101 135 77 z "},"‽":{"ha":678,"x_min":117,"x_max":679,"o":"m 247 212 q 291 203 271 212 q 327 180 312 194 q 351 144 342 165 q 360 101 360 124 q 351 57 360 77 q 327 22 342 37 q 291 -1 312 7 q 247 -10 271 -10 q 202 -1 223 -10 q 166 22 181 7 q 143 57 151 37 q 134 101 134 77 q 143 144 134 124 q 166 180 151 165 q 202 203 181 194 q 247 212 223 212 m 346 991 q 373 999 358 995 q 406 1006 389 1003 q 441 1010 424 1008 q 476 1012 459 1012 q 560 1000 522 1012 q 624 964 597 988 q 665 905 651 940 q 679 824 679 870 q 668 738 679 775 q 639 674 657 701 q 596 626 620 647 q 545 589 572 606 q 493 557 519 572 q 444 526 467 542 q 404 489 422 509 q 378 441 387 469 l 349 351 l 234 351 q 209 455 221 399 q 188 564 197 510 l 117 985 l 292 1028 l 327 726 q 332 669 329 707 q 336 589 335 632 q 393 643 363 621 q 449 686 423 665 q 491 732 474 707 q 508 797 508 758 q 490 847 508 829 q 445 865 472 865 q 415 862 429 865 q 396 859 401 859 q 366 867 375 859 q 358 889 358 874 l 346 991 z "},",":{"ha":333,"x_min":17,"x_max":238,"o":"m 42 -171 q 32 -158 35 -165 q 28 -144 28 -152 q 40 -119 28 -133 q 68 -88 52 -106 q 98 -48 83 -70 q 119 3 113 -26 q 78 13 97 3 q 45 36 59 22 q 25 70 32 51 q 17 113 17 90 q 25 152 17 134 q 47 183 33 170 q 81 204 61 197 q 125 212 101 212 q 175 202 153 212 q 210 175 196 192 q 231 136 224 158 q 238 88 238 113 q 228 16 238 54 q 197 -60 217 -22 q 145 -134 176 -98 q 76 -201 115 -171 l 42 -171 z "},";":{"ha":382,"x_min":44,"x_max":320,"o":"m 69 -171 q 58 -158 61 -165 q 55 -144 55 -152 q 67 -119 55 -133 q 94 -88 78 -106 q 125 -48 110 -70 q 146 3 140 -26 q 104 13 123 3 q 72 36 85 22 q 51 70 58 51 q 44 113 44 90 q 52 152 44 134 q 74 183 60 170 q 107 204 88 197 q 151 212 127 212 q 201 202 180 212 q 236 175 222 192 q 258 136 251 158 q 265 88 265 113 q 254 16 265 54 q 223 -60 244 -22 q 172 -134 202 -98 q 102 -201 142 -171 l 69 -171 m 94 587 q 103 630 94 610 q 127 666 112 651 q 163 689 142 681 q 208 698 183 698 q 252 689 231 698 q 288 666 272 681 q 311 630 303 651 q 320 587 320 610 q 311 543 320 563 q 288 508 303 523 q 252 485 272 493 q 208 476 231 476 q 163 485 183 476 q 127 508 142 493 q 103 543 112 523 q 94 587 94 563 z "},".":{"ha":333,"x_min":16,"x_max":242,"o":"m 16 101 q 25 144 16 124 q 48 180 33 165 q 84 203 63 194 q 129 212 105 212 q 173 203 153 212 q 209 180 194 194 q 233 144 224 165 q 242 101 242 124 q 233 57 242 77 q 209 22 224 37 q 173 -1 194 7 q 129 -10 153 -10 q 84 -1 105 -10 q 48 22 63 7 q 25 57 33 37 q 16 101 16 77 z "},"…":{"ha":1085,"x_min":16,"x_max":995,"o":"m 16 101 q 25 144 16 124 q 48 180 33 165 q 84 203 63 194 q 129 212 105 212 q 173 203 153 212 q 209 180 194 194 q 233 144 224 165 q 242 101 242 124 q 233 57 242 77 q 209 22 224 37 q 173 -1 194 7 q 129 -10 153 -10 q 84 -1 105 -10 q 48 22 63 7 q 25 57 33 37 q 16 101 16 77 m 392 101 q 401 144 392 124 q 425 180 410 165 q 460 203 440 194 q 506 212 481 212 q 550 203 529 212 q 585 180 570 194 q 610 144 601 165 q 619 101 619 124 q 610 57 619 77 q 585 22 601 37 q 550 -1 570 7 q 506 -10 529 -10 q 460 -1 481 -10 q 425 22 440 7 q 401 57 410 37 q 392 101 392 77 m 769 101 q 777 144 769 124 q 801 180 786 165 q 837 203 817 194 q 882 212 858 212 q 926 203 906 212 q 963 180 947 194 q 986 144 978 165 q 995 101 995 124 q 986 57 995 77 q 963 22 978 37 q 926 -1 947 7 q 882 -10 906 -10 q 837 -1 858 -10 q 801 22 817 7 q 777 57 786 37 q 769 101 769 77 z "},"‘":{"ha":298,"x_min":93,"x_max":328,"o":"m 125 674 q 96 785 99 729 q 111 894 93 841 q 168 997 130 947 q 265 1089 207 1046 l 317 1056 q 328 1034 328 1048 q 324 1019 328 1026 q 310 1001 319 1012 q 284 966 299 989 q 260 913 269 944 q 251 844 250 883 q 272 764 251 806 q 269 736 278 749 q 242 716 260 722 l 125 674 z "},"’":{"ha":297,"x_min":81,"x_max":317,"o":"m 284 1065 q 314 954 310 1010 q 298 844 317 898 q 241 741 280 791 q 144 649 202 692 l 92 683 q 81 705 81 691 q 85 719 81 713 q 99 737 90 726 q 125 772 110 749 q 149 825 140 794 q 158 893 159 856 q 138 974 158 931 q 140 1003 131 990 q 167 1023 149 1016 l 284 1065 z "},"“":{"ha":518,"x_min":93,"x_max":548,"o":"m 125 674 q 96 785 99 729 q 111 894 93 841 q 168 997 130 947 q 265 1089 207 1046 l 317 1056 q 328 1034 328 1048 q 324 1019 328 1026 q 310 1001 319 1012 q 284 966 299 989 q 260 913 269 944 q 251 844 250 883 q 272 764 251 806 q 269 736 278 749 q 242 716 260 722 l 125 674 m 344 674 q 315 785 318 729 q 331 894 313 841 q 388 997 349 947 q 484 1089 426 1046 l 536 1056 q 548 1034 548 1048 q 543 1019 548 1026 q 529 1001 539 1012 q 504 966 519 989 q 479 913 489 944 q 470 844 469 883 q 491 764 471 806 q 489 736 497 749 q 461 716 480 722 l 344 674 z "},"”":{"ha":517,"x_min":81,"x_max":536,"o":"m 284 1065 q 314 954 310 1010 q 298 844 317 898 q 241 741 280 791 q 144 649 202 692 l 92 683 q 81 705 81 691 q 85 719 81 713 q 99 737 90 726 q 125 772 110 749 q 149 825 140 794 q 158 893 159 856 q 138 974 158 931 q 140 1003 131 990 q 167 1023 149 1016 l 284 1065 m 503 1065 q 533 954 530 1010 q 518 844 536 898 q 460 741 499 791 q 364 649 422 692 l 312 683 q 300 705 300 691 q 305 719 300 713 q 319 737 309 726 q 344 772 329 749 q 369 825 359 794 q 378 893 378 856 q 357 974 377 931 q 359 1003 351 990 q 387 1023 368 1016 l 503 1065 z "},"‚":{"ha":294,"x_min":-38,"x_max":198,"o":"m 165 210 q 195 99 192 155 q 180 -10 198 43 q 122 -114 161 -64 q 26 -206 83 -163 l -26 -172 q -38 -150 -38 -164 q -34 -135 -38 -142 q -19 -118 -29 -128 q 6 -83 -9 -106 q 31 -30 21 -60 q 40 39 40 1 q 19 119 39 76 q 21 148 13 135 q 49 168 30 161 l 165 210 z "},"„":{"ha":513,"x_min":-38,"x_max":417,"o":"m 165 210 q 195 99 192 155 q 180 -10 198 43 q 122 -114 161 -64 q 26 -206 83 -163 l -26 -172 q -38 -150 -38 -164 q -34 -135 -38 -142 q -19 -118 -29 -128 q 6 -83 -9 -106 q 31 -30 21 -60 q 40 39 40 1 q 19 119 39 76 q 21 148 13 135 q 49 168 30 161 l 165 210 m 385 210 q 414 99 411 155 q 399 -10 417 43 q 342 -114 381 -64 q 245 -206 303 -163 l 193 -172 q 181 -150 181 -164 q 186 -135 181 -142 q 200 -118 190 -128 q 225 -83 210 -106 q 250 -30 240 -60 q 259 39 260 1 q 238 119 258 76 q 241 148 232 135 q 268 168 249 161 l 385 210 z "},"‹":{"ha":374,"x_min":44,"x_max":331,"o":"m 215 405 q 189 375 202 385 q 199 362 194 369 q 208 345 204 354 l 269 185 q 272 144 278 163 q 242 114 266 125 l 177 86 l 44 363 l 49 386 l 249 663 l 306 635 q 329 605 328 624 q 315 565 331 586 l 215 405 z "},"›":{"ha":374,"x_min":31,"x_max":315,"o":"m 315 386 l 313 363 l 113 86 l 56 114 q 32 144 34 125 q 45 185 31 163 l 146 345 q 172 374 158 362 q 153 405 161 385 l 91 565 q 89 605 83 586 q 119 635 95 624 l 184 663 l 315 386 z "},"«":{"ha":593,"x_min":44,"x_max":549,"o":"m 215 405 q 189 375 202 385 q 199 362 194 369 q 208 345 204 354 l 269 185 q 272 144 278 163 q 242 114 266 125 l 177 86 l 44 363 l 49 386 l 249 663 l 306 635 q 329 605 328 624 q 315 565 331 586 l 215 405 m 434 405 q 408 375 421 385 q 418 362 413 369 q 426 345 423 354 l 488 185 q 491 144 497 163 q 460 114 485 125 l 396 86 l 263 363 l 267 386 l 467 663 l 524 635 q 548 605 547 624 q 533 565 549 586 l 434 405 z "},"»":{"ha":592,"x_min":31,"x_max":535,"o":"m 315 386 l 313 363 l 113 86 l 56 114 q 32 144 34 125 q 45 185 31 163 l 146 345 q 172 374 158 362 q 153 405 161 385 l 91 565 q 89 605 83 586 q 119 635 95 624 l 184 663 l 315 386 m 535 386 l 533 363 l 332 86 l 276 114 q 252 144 253 125 q 265 185 250 163 l 365 345 q 392 374 377 362 q 373 405 381 385 l 310 565 q 308 605 302 586 q 339 635 315 624 l 403 663 l 535 386 z "},"/":{"ha":603,"x_min":-24,"x_max":638,"o":"m 160 -1 q 139 -30 151 -17 q 113 -51 127 -42 q 84 -64 99 -59 q 55 -68 69 -68 l -24 -68 l 458 948 q 500 995 474 978 q 560 1012 526 1012 l 638 1012 l 160 -1 z "},"|":{"ha":381,"x_min":115,"x_max":264,"o":"m 115 1078 l 264 1078 l 264 -231 l 115 -231 l 115 1078 z "},"¦":{"ha":379,"x_min":115,"x_max":263,"o":"m 115 1078 l 263 1078 l 263 513 l 115 513 l 115 1078 m 115 334 l 263 334 l 263 -231 l 115 -231 l 115 334 z "},"\\":{"ha":599,"x_min":107,"x_max":502,"o":"m 107 1012 l 185 1012 q 240 995 218 1012 q 271 948 263 978 l 502 -68 l 424 -68 q 396 -64 410 -68 q 370 -51 382 -59 q 349 -30 358 -42 q 336 -1 340 -17 l 107 1012 z "},"-":{"ha":480,"x_min":59,"x_max":418,"o":"m 78 496 l 418 496 l 399 344 l 59 344 l 78 496 z "},"–":{"ha":806,"x_min":133,"x_max":670,"o":"m 149 482 l 670 482 l 654 353 l 133 353 l 149 482 z "},"—":{"ha":1021,"x_min":63,"x_max":956,"o":"m 78 482 l 956 482 l 940 353 l 63 353 l 78 482 z "},"_":{"ha":618,"x_min":-20,"x_max":499,"o":"m 499 -88 l 484 -206 l -20 -206 l -5 -88 l 499 -88 z "},"•":{"ha":806,"x_min":79,"x_max":722,"o":"m 79 412 q 105 535 79 477 q 174 636 130 593 q 276 704 217 679 q 400 729 334 729 q 525 704 467 729 q 628 636 584 679 q 697 535 672 593 q 722 412 722 477 q 697 289 722 347 q 628 189 672 232 q 525 121 584 146 q 400 96 467 96 q 276 121 334 96 q 174 189 217 146 q 105 289 130 232 q 79 412 79 347 z "},"·":{"ha":391,"x_min":50,"x_max":335,"o":"m 50 413 q 61 468 50 442 q 92 513 72 494 q 137 543 111 532 q 192 553 163 553 q 248 543 222 553 q 294 513 274 532 q 324 468 313 494 q 335 413 335 442 q 324 359 335 385 q 294 315 313 334 q 248 285 274 297 q 192 274 222 274 q 137 285 163 274 q 92 315 111 297 q 61 359 72 334 q 50 413 50 385 z "},"(":{"ha":375,"x_min":42,"x_max":408,"o":"m 203 299 q 207 200 203 252 q 218 94 210 147 q 236 -9 225 41 q 262 -103 247 -60 q 267 -129 267 -118 q 263 -149 267 -140 q 252 -163 259 -157 q 236 -174 244 -169 l 149 -222 q 101 -100 121 -164 q 68 30 81 -35 q 49 161 55 96 q 42 285 42 226 q 56 491 42 392 q 101 689 69 591 q 183 887 132 788 q 309 1093 234 987 l 386 1045 q 399 1034 393 1040 q 406 1019 404 1028 q 406 1000 408 1011 q 393 974 403 988 q 315 820 350 899 q 255 658 280 742 q 216 485 230 575 q 203 299 203 396 z "},")":{"ha":374,"x_min":-32,"x_max":334,"o":"m 174 572 q 170 671 174 619 q 158 777 166 724 q 140 880 151 830 q 115 974 128 931 q 109 1000 109 988 q 113 1019 109 1011 q 125 1034 117 1028 q 140 1045 132 1040 l 228 1093 q 276 970 256 1035 q 309 841 296 906 q 328 711 322 776 q 334 585 334 646 q 320 380 334 479 q 276 182 307 280 q 193 -16 244 83 q 66 -222 142 -116 l -10 -174 q -22 -163 -17 -169 q -30 -149 -28 -157 q -29 -129 -32 -140 q -17 -103 -26 -118 q 61 51 26 -28 q 122 214 97 131 q 160 387 147 298 q 174 572 174 476 z "},"[":{"ha":419,"x_min":28,"x_max":465,"o":"m 456 1004 q 439 973 454 986 q 403 960 423 960 l 327 960 l 197 -100 l 274 -100 q 306 -113 294 -100 q 315 -146 318 -126 l 306 -217 l 28 -217 l 187 1076 l 465 1076 l 456 1004 z "},"]":{"ha":419,"x_min":-47,"x_max":391,"o":"m 231 -217 l -47 -217 l -37 -146 q -20 -113 -35 -126 q 16 -100 -5 -100 l 92 -100 l 223 960 l 146 960 q 113 973 125 960 q 103 1004 101 986 l 113 1076 l 391 1076 l 231 -217 z "},"{":{"ha":406,"x_min":33,"x_max":449,"o":"m 449 1076 l 439 995 q 433 979 438 985 q 421 968 428 972 q 408 962 415 964 q 396 960 401 960 l 394 960 q 327 928 351 960 q 297 842 303 897 q 292 772 293 805 q 291 708 291 739 q 290 646 290 676 q 285 586 289 616 q 248 488 280 530 q 165 429 217 445 q 227 380 206 415 q 249 300 249 344 q 240 222 249 260 q 221 145 231 183 q 202 69 211 108 q 194 -12 194 30 q 211 -76 194 -51 q 264 -100 228 -100 l 267 -100 q 278 -102 272 -100 q 290 -109 285 -104 q 298 -120 295 -113 q 300 -136 301 -127 l 290 -217 l 256 -217 q 156 -202 198 -217 q 86 -160 114 -187 q 46 -97 59 -134 q 33 -15 33 -60 q 42 71 33 30 q 64 150 52 112 q 85 227 75 189 q 94 303 94 265 q 80 357 94 336 q 33 377 65 377 l 46 483 q 88 493 72 483 q 115 526 105 504 q 129 581 125 548 q 133 658 133 613 q 133 680 133 667 q 132 708 133 694 q 131 736 131 722 q 131 760 131 750 q 148 894 131 835 q 200 994 165 953 q 289 1056 235 1035 q 416 1076 342 1076 l 449 1076 z "},"}":{"ha":406,"x_min":-42,"x_max":374,"o":"m 151 1076 q 250 1061 208 1076 q 319 1020 292 1047 q 360 956 347 993 q 373 874 373 919 q 364 789 373 829 q 343 709 354 748 q 323 632 332 670 q 313 556 313 594 q 327 503 313 524 q 374 483 340 483 l 361 377 q 319 366 335 377 q 292 334 302 356 q 278 279 282 312 q 274 201 274 246 q 274 179 274 192 q 274 152 274 166 q 275 124 274 138 q 275 100 275 110 q 258 -35 275 24 q 206 -134 241 -94 q 118 -196 172 -175 q -9 -217 64 -217 l -42 -217 l -31 -136 q -26 -120 -31 -127 q -15 -109 -21 -113 q -1 -102 -8 -104 q 11 -100 6 -100 l 13 -100 q 80 -69 56 -100 q 110 18 104 -37 q 115 87 114 54 q 117 151 116 120 q 118 213 117 183 q 122 272 118 242 q 134 325 124 300 q 159 371 144 351 q 195 407 174 392 q 242 430 217 422 q 178 479 200 444 q 157 559 157 515 q 166 637 157 599 q 185 713 175 675 q 205 790 196 751 q 214 871 214 829 q 197 935 214 910 q 143 960 179 960 l 141 960 q 129 962 135 960 q 117 968 123 964 q 109 979 112 972 q 107 995 106 985 l 117 1076 l 151 1076 z "},"*":{"ha":551,"x_min":97,"x_max":546,"o":"m 442 835 q 389 816 414 820 q 414 808 401 814 q 438 795 426 803 l 525 731 l 474 660 l 385 722 q 366 737 375 730 q 349 754 356 744 q 351 703 355 731 l 335 576 l 248 576 l 264 702 q 269 728 265 716 q 278 753 272 741 q 257 737 268 744 q 234 722 247 730 l 131 660 l 97 733 l 200 795 q 227 808 213 803 q 253 816 240 814 q 229 823 241 817 q 206 835 217 828 l 117 899 l 169 972 l 258 908 q 277 894 268 901 q 294 877 287 887 q 292 928 288 901 l 308 1054 l 394 1054 l 379 929 q 374 902 377 915 q 365 876 370 888 q 385 894 374 886 q 409 908 396 901 l 513 972 l 546 899 l 442 835 z "},"†":{"ha":806,"x_min":92,"x_max":765,"o":"m 509 703 q 556 713 532 708 q 603 722 580 717 q 648 731 626 727 q 688 734 669 734 q 726 727 710 734 q 750 710 741 721 q 762 685 759 699 q 763 656 765 672 l 756 597 l 495 597 l 464 336 l 419 -223 q 373 -240 398 -235 q 320 -246 347 -246 q 270 -240 293 -246 q 228 -223 247 -235 l 321 336 l 351 597 l 92 597 l 99 656 q 108 685 101 672 q 126 710 115 699 q 155 727 138 721 q 194 734 172 734 q 234 731 213 734 q 277 722 255 727 q 321 713 299 717 q 366 703 344 708 l 381 1020 q 427 1037 401 1031 q 479 1043 452 1043 q 571 1020 534 1043 l 509 703 z "},"‡":{"ha":806,"x_min":35,"x_max":767,"o":"m 510 703 q 557 713 533 708 q 604 722 581 717 q 649 731 627 727 q 689 734 670 734 q 726 727 711 734 q 751 710 742 721 q 763 685 760 699 q 765 656 767 672 l 758 597 l 497 597 l 469 381 l 447 201 l 709 201 l 701 141 q 693 111 699 126 q 674 86 686 97 q 645 69 663 76 q 606 63 628 63 q 567 66 588 63 q 524 74 546 69 q 480 84 502 78 q 435 93 457 89 l 420 -223 q 373 -240 399 -235 q 322 -246 348 -246 q 271 -240 294 -246 q 230 -223 248 -235 l 291 92 q 244 83 268 88 q 197 74 220 78 q 153 66 174 69 q 113 63 131 63 q 75 69 90 63 q 51 86 60 76 q 38 111 42 97 q 37 141 35 126 l 44 201 l 305 201 l 328 381 l 354 597 l 92 597 l 100 656 q 109 685 102 672 q 127 710 115 699 q 157 727 140 721 q 196 734 174 734 q 235 731 215 734 q 277 722 256 727 q 322 713 299 717 q 367 703 344 708 l 383 1020 q 428 1037 403 1031 q 481 1043 453 1043 q 531 1037 507 1043 q 572 1020 554 1031 l 510 703 z "},"§":{"ha":658,"x_min":10,"x_max":638,"o":"m 228 495 q 243 452 228 470 q 283 418 258 433 q 338 389 307 403 q 399 358 368 374 q 435 395 424 374 q 446 440 446 416 q 431 484 446 466 q 392 518 416 503 q 338 547 368 533 q 278 577 308 561 q 239 541 251 560 q 228 495 228 521 m 588 862 q 570 845 580 850 q 549 840 561 840 q 523 847 535 840 q 494 862 510 853 q 458 877 478 870 q 411 884 438 884 q 331 859 358 884 q 304 798 304 833 q 317 764 304 779 q 352 735 331 749 q 402 709 374 722 q 458 681 429 696 q 515 649 488 667 q 564 609 542 632 q 599 558 586 587 q 613 493 613 530 q 583 380 613 432 q 488 297 553 328 q 524 245 510 274 q 537 178 537 217 q 517 75 537 123 q 458 -7 497 28 q 362 -62 419 -42 q 233 -83 306 -83 q 166 -76 199 -83 q 104 -58 133 -69 q 51 -31 75 -47 q 10 4 26 -15 l 61 74 q 82 93 70 86 q 111 99 93 99 q 140 91 128 99 q 168 72 152 82 q 206 52 183 61 q 265 44 228 44 q 343 68 315 44 q 371 135 371 93 q 348 189 371 168 q 290 227 325 210 q 215 261 256 244 q 140 302 175 278 q 83 361 106 326 q 60 450 60 397 q 92 562 60 513 q 188 640 124 611 q 152 695 166 664 q 138 769 138 726 q 157 864 138 819 q 212 942 176 908 q 301 997 248 976 q 424 1017 355 1017 q 551 992 496 1017 q 638 927 606 967 l 588 862 z "},"¶":{"ha":1040,"x_min":74,"x_max":1063,"o":"m 1044 850 l 897 850 l 774 -147 l 607 -147 l 729 850 l 578 850 l 456 -147 l 289 -147 l 360 430 q 242 449 294 430 q 151 502 189 468 q 94 583 114 536 q 74 684 74 629 q 100 808 74 749 q 173 911 126 867 q 286 982 220 956 q 431 1008 351 1008 l 1063 1008 l 1044 850 z "},"^":{"ha":806,"x_min":111,"x_max":761,"o":"m 761 537 l 621 537 q 593 545 604 537 q 574 567 582 554 l 475 752 q 455 791 463 772 q 439 829 446 810 q 425 791 433 810 q 405 752 417 772 l 308 567 q 290 546 301 555 q 259 537 278 537 l 111 537 l 374 1008 l 499 1008 l 761 537 z "},"~":{"ha":806,"x_min":61,"x_max":742,"o":"m 511 459 q 568 482 548 459 q 588 549 588 506 l 742 549 q 728 448 742 493 q 685 372 713 403 q 616 323 657 340 q 524 306 576 306 q 454 315 487 306 q 392 334 421 324 q 338 353 363 344 q 292 363 313 363 q 236 339 256 363 q 215 272 216 316 l 61 272 q 76 374 61 328 q 118 450 90 419 q 187 499 147 482 q 280 517 228 517 q 350 508 317 517 q 412 488 383 499 q 466 468 441 477 q 511 459 491 459 z "},"'":{"ha":285,"x_min":108,"x_max":293,"o":"m 293 1007 l 268 807 l 238 698 q 213 648 229 665 q 165 631 197 631 q 126 648 139 631 q 111 698 114 665 l 108 807 l 133 1007 l 293 1007 z "},"\"":{"ha":530,"x_min":108,"x_max":538,"o":"m 293 1007 l 268 807 l 238 698 q 213 648 229 665 q 165 631 197 631 q 126 648 139 631 q 111 698 114 665 l 108 807 l 133 1007 l 293 1007 m 538 1007 l 513 807 l 483 698 q 458 648 474 665 q 410 631 442 631 q 371 648 383 631 q 356 698 358 665 l 352 807 l 377 1007 l 538 1007 z "},"&":{"ha":935,"x_min":26,"x_max":888,"o":"m 313 458 q 238 372 259 419 q 216 270 216 324 q 248 170 216 208 q 345 133 279 133 q 430 150 389 133 q 508 197 471 167 l 313 458 m 888 0 l 727 0 q 689 3 705 0 q 660 12 673 6 q 638 28 648 18 q 616 52 627 38 l 591 85 q 456 14 528 40 q 306 -11 384 -11 q 187 7 240 -11 q 99 59 135 25 q 44 140 63 92 q 26 247 26 188 q 42 346 26 299 q 89 433 59 393 q 158 504 118 472 q 246 559 199 536 q 215 644 224 602 q 206 725 206 686 q 227 838 206 784 q 288 931 249 891 q 382 994 326 971 q 508 1018 438 1018 q 614 999 568 1018 q 689 949 659 981 q 734 877 719 918 q 749 790 749 835 l 638 769 q 603 770 615 765 q 584 797 591 776 q 551 857 574 834 q 492 879 528 879 q 444 868 465 879 q 408 837 423 856 q 386 791 394 817 q 378 736 378 765 q 389 673 378 706 q 426 601 401 640 l 624 343 q 660 426 645 383 q 685 515 676 469 q 697 543 688 533 q 724 554 706 554 l 855 554 q 808 372 842 458 q 722 217 774 287 l 888 0 z "},"@":{"ha":1074,"x_min":50,"x_max":1037,"o":"m 658 556 q 623 558 642 558 q 549 538 585 558 q 485 483 513 517 q 441 406 458 449 q 424 315 424 362 q 436 264 424 282 q 474 245 449 245 q 503 250 488 245 q 534 269 519 256 q 563 305 549 282 q 588 361 576 327 l 658 556 m 731 380 q 714 310 717 338 q 715 267 710 283 q 732 245 720 251 q 760 240 744 240 q 816 263 790 240 q 863 328 842 287 q 894 424 883 369 q 906 543 906 479 q 886 673 906 617 q 828 768 866 730 q 735 827 790 807 q 613 847 681 847 q 442 807 521 847 q 306 699 364 768 q 216 535 249 630 q 183 331 183 441 q 209 167 183 238 q 280 48 234 96 q 391 -25 326 -1 q 535 -50 456 -50 q 627 -44 585 -50 q 704 -30 669 -39 q 764 -10 738 -21 q 807 11 790 1 q 837 22 824 20 q 858 19 849 23 q 872 7 867 15 q 881 -10 878 -1 l 894 -60 q 730 -137 823 -108 q 522 -167 638 -167 q 327 -133 414 -167 q 178 -34 240 -98 q 83 122 117 31 q 50 325 50 213 q 71 492 50 411 q 130 644 92 573 q 220 773 167 715 q 337 874 273 832 q 475 939 401 916 q 628 963 549 963 q 787 933 713 963 q 917 849 861 903 q 1005 717 972 794 q 1037 543 1037 639 q 1012 380 1037 456 q 944 248 988 304 q 843 159 901 192 q 719 127 785 127 q 680 132 699 127 q 646 148 661 137 q 619 175 631 158 q 603 216 608 192 q 515 148 560 168 q 422 128 470 128 q 359 141 385 128 q 315 176 333 153 q 289 230 297 199 q 280 296 280 260 q 291 382 280 338 q 324 468 302 426 q 378 547 346 510 q 454 611 411 583 q 550 654 497 638 q 667 670 603 670 q 716 668 694 670 q 757 662 738 666 q 792 652 776 658 q 826 639 809 647 l 731 380 z "},"©":{"ha":1142,"x_min":66,"x_max":1095,"o":"m 729 365 q 744 361 737 365 q 756 352 751 358 l 819 286 q 720 209 781 235 q 581 183 660 183 q 454 208 510 183 q 358 276 398 233 q 297 379 319 320 q 276 506 276 438 q 300 636 276 577 q 368 738 325 695 q 469 805 411 781 q 595 829 528 829 q 730 802 674 829 q 824 735 786 776 l 773 666 q 760 654 768 660 q 740 648 752 648 q 717 655 727 648 q 693 669 707 661 q 659 684 679 677 q 605 690 638 690 q 537 677 567 690 q 487 641 507 665 q 456 583 467 617 q 445 506 445 549 q 456 427 445 461 q 486 369 467 393 q 532 334 506 346 q 590 322 559 322 q 645 328 624 322 q 679 341 665 334 q 704 356 693 349 q 729 365 715 363 m 66 504 q 84 641 66 575 q 136 764 103 707 q 217 868 169 821 q 321 949 264 915 q 443 1000 378 982 q 580 1019 509 1019 q 717 1000 651 1019 q 840 949 783 982 q 944 868 897 915 q 1025 764 991 821 q 1077 641 1058 707 q 1095 504 1095 575 q 1077 368 1095 433 q 1025 245 1058 302 q 944 141 991 188 q 840 60 897 94 q 717 9 783 27 q 580 -10 651 -10 q 443 9 509 -10 q 321 60 378 27 q 217 141 264 94 q 136 245 169 188 q 84 368 103 302 q 66 504 66 433 m 169 504 q 201 337 169 415 q 288 202 233 260 q 418 112 343 145 q 580 79 493 79 q 691 94 638 79 q 791 136 744 109 q 874 202 837 164 q 939 288 912 241 q 980 390 965 335 q 994 504 994 444 q 980 619 994 564 q 939 721 965 674 q 874 808 912 769 q 791 874 837 847 q 691 917 744 902 q 580 932 638 932 q 418 899 493 932 q 288 808 343 865 q 201 672 233 750 q 169 504 169 594 z "},"℗":{"ha":1142,"x_min":66,"x_max":1095,"o":"m 586 506 q 644 514 622 506 q 677 534 665 521 q 692 564 688 547 q 695 603 695 582 q 692 640 695 623 q 678 668 688 656 q 649 688 668 681 q 600 694 631 694 l 533 694 l 533 506 l 586 506 m 600 818 q 716 801 667 818 q 797 755 765 784 q 843 686 828 725 q 858 603 858 647 q 843 523 858 561 q 797 455 828 485 q 716 408 765 426 q 599 390 667 390 l 533 390 l 533 194 l 367 194 l 367 818 l 600 818 m 580 79 q 691 94 638 79 q 791 136 744 109 q 874 202 837 164 q 939 288 912 241 q 980 390 965 335 q 994 504 994 444 q 980 619 994 564 q 939 721 965 674 q 874 808 912 769 q 791 874 837 847 q 691 917 744 902 q 580 932 638 932 q 418 899 493 932 q 288 808 343 865 q 201 672 233 750 q 169 504 169 594 q 201 337 169 415 q 288 202 233 260 q 418 112 343 145 q 580 79 493 79 m 580 1019 q 717 1000 651 1019 q 840 949 783 982 q 944 868 897 915 q 1025 764 991 821 q 1077 641 1058 707 q 1095 504 1095 575 q 1077 368 1095 433 q 1025 245 1058 302 q 944 141 991 188 q 840 60 897 94 q 717 9 783 27 q 580 -10 651 -10 q 443 9 509 -10 q 321 60 378 27 q 217 141 264 94 q 136 245 169 188 q 84 368 103 302 q 66 504 66 433 q 84 641 66 575 q 136 764 103 707 q 217 868 169 821 q 321 949 264 915 q 443 1000 378 982 q 580 1019 509 1019 z "},"®":{"ha":1142,"x_min":66,"x_max":1095,"o":"m 565 528 q 621 533 600 528 q 654 550 642 539 q 669 577 665 561 q 673 614 673 593 q 669 649 673 634 q 656 674 666 664 q 627 689 646 684 q 579 694 609 694 l 512 694 l 512 528 l 565 528 m 872 200 q 962 335 929 258 q 994 504 994 413 q 980 619 994 564 q 939 721 965 674 q 874 808 912 769 q 791 874 837 847 q 691 917 744 902 q 580 932 638 932 q 418 899 493 932 q 288 808 343 865 q 201 672 233 750 q 169 504 169 594 q 201 337 169 415 q 288 202 233 260 q 418 112 343 145 q 580 79 493 79 q 737 109 664 79 q 866 194 810 140 l 716 194 q 668 218 682 194 l 585 391 q 569 407 579 403 q 543 412 560 412 l 512 412 l 512 194 l 346 194 l 346 818 l 579 818 q 775 771 713 818 q 836 635 836 724 q 806 528 836 575 q 711 460 776 482 q 741 435 729 450 q 763 400 753 420 l 872 200 m 580 1019 q 717 1000 651 1019 q 840 949 783 982 q 944 868 897 915 q 1025 764 991 821 q 1077 641 1058 707 q 1095 504 1095 575 q 1077 368 1095 433 q 1025 245 1058 302 q 944 141 991 188 q 840 60 897 94 q 717 9 783 27 q 580 -10 651 -10 q 443 9 509 -10 q 321 60 378 27 q 217 141 264 94 q 136 245 169 188 q 84 368 103 302 q 66 504 66 433 q 84 641 66 575 q 136 764 103 707 q 217 868 169 821 q 321 949 264 915 q 443 1000 378 982 q 580 1019 509 1019 z "},"™":{"ha":976,"x_min":108,"x_max":960,"o":"m 332 903 l 293 585 l 167 585 l 206 903 l 108 903 l 121 1007 l 444 1007 l 431 903 l 332 903 m 960 1007 l 910 585 l 798 585 l 823 785 l 840 856 l 728 653 q 681 627 711 627 l 664 627 q 624 653 634 627 l 565 851 l 564 785 l 540 585 l 430 585 l 481 1007 l 590 1007 q 614 1003 606 1007 q 629 987 621 1000 l 676 817 q 684 792 681 804 q 690 767 687 779 q 702 792 695 779 q 717 817 709 805 l 808 987 q 828 1003 819 1000 q 852 1007 836 1007 l 960 1007 z "},"℠":{"ha":985,"x_min":91,"x_max":971,"o":"m 392 915 q 363 899 379 899 q 349 902 356 899 q 333 911 342 906 q 313 920 324 916 q 286 924 301 924 q 258 915 270 924 q 246 890 246 906 q 257 872 246 878 q 285 860 268 866 q 321 848 301 855 q 357 827 340 840 q 385 794 374 815 q 396 743 396 774 q 384 679 396 709 q 350 627 372 649 q 298 592 328 605 q 228 579 267 579 q 190 583 210 579 q 152 595 171 588 q 118 614 134 603 q 91 637 102 624 l 128 692 q 141 703 133 699 q 156 708 149 708 q 174 702 166 708 q 192 691 183 697 q 214 680 201 685 q 244 675 226 675 q 273 686 264 675 q 283 715 283 697 q 272 736 283 728 q 244 749 260 743 q 208 761 227 754 q 172 780 189 767 q 144 812 156 792 q 133 866 133 833 q 145 924 133 896 q 177 972 156 951 q 229 1006 199 993 q 297 1018 259 1018 q 369 1005 335 1018 q 422 972 402 992 l 392 915 m 971 1007 l 919 586 l 808 586 l 832 787 l 848 852 l 739 654 q 719 634 731 641 q 692 628 706 628 l 674 628 q 635 654 644 628 l 576 850 l 574 787 l 550 586 l 440 586 l 491 1007 l 601 1007 q 624 1004 617 1007 q 639 988 631 1001 l 686 817 q 700 767 695 791 q 727 817 711 792 l 819 988 q 838 1004 830 1001 q 862 1007 846 1007 l 971 1007 z "},"°":{"ha":574,"x_min":83,"x_max":575,"o":"m 83 778 q 101 873 83 828 q 153 950 120 917 q 231 1001 186 983 q 328 1020 276 1020 q 425 1001 380 1020 q 503 950 470 983 q 556 873 537 917 q 575 778 575 828 q 556 686 575 729 q 503 609 537 642 q 425 557 470 576 q 328 538 380 538 q 231 557 276 538 q 153 609 186 576 q 101 686 120 642 q 83 778 83 729 m 215 778 q 223 732 215 753 q 247 695 231 710 q 283 670 262 679 q 328 661 303 661 q 373 670 353 661 q 409 695 394 679 q 433 732 424 710 q 441 778 441 753 q 433 824 441 803 q 409 862 424 846 q 373 887 394 878 q 328 896 353 896 q 283 887 303 896 q 247 862 262 878 q 223 824 231 846 q 215 778 215 803 z "},"¤":{"ha":806,"x_min":74,"x_max":739,"o":"m 406 346 q 453 356 431 346 q 492 382 476 365 q 517 421 508 399 q 526 467 526 443 q 517 516 526 493 q 492 555 508 538 q 453 581 476 572 q 406 590 431 590 q 360 581 382 590 q 322 555 338 572 q 297 516 306 538 q 288 467 288 493 q 297 421 288 443 q 322 382 306 399 q 360 356 338 365 q 406 346 382 346 m 642 140 l 538 244 q 476 218 509 227 q 406 209 442 209 q 339 217 371 209 q 279 242 308 226 l 173 137 l 78 231 l 183 335 q 156 397 165 364 q 147 467 147 431 q 156 535 147 503 q 181 597 165 567 l 74 702 l 170 795 l 275 692 q 337 717 304 708 q 406 726 370 726 q 474 718 442 726 q 534 693 506 709 l 640 799 l 735 705 l 630 601 q 657 538 648 572 q 667 467 667 504 q 658 400 667 432 q 633 340 649 368 l 739 234 l 642 140 z "},"€":{"ha":806,"x_min":11,"x_max":833,"o":"m 45 649 l 131 649 q 200 802 156 734 q 300 918 243 870 q 425 991 357 965 q 569 1017 493 1017 q 730 978 665 1017 q 833 878 795 940 l 759 808 q 742 794 751 800 q 718 788 733 788 q 700 793 708 788 q 684 807 692 799 q 666 824 676 815 q 641 841 656 833 q 606 855 626 849 q 556 860 585 860 q 414 806 476 860 q 319 649 352 752 l 665 649 l 659 592 q 641 563 656 576 q 601 549 626 549 l 296 549 q 291 512 293 531 q 288 473 290 493 l 578 473 l 571 417 q 553 386 569 401 q 515 372 538 372 l 288 372 q 341 203 296 260 q 461 147 386 147 q 517 153 493 147 q 559 168 541 159 q 590 188 577 177 q 614 208 603 199 q 634 224 625 217 q 654 230 644 230 q 668 228 663 230 q 679 219 674 226 l 751 146 q 612 30 693 70 q 433 -10 531 -10 q 291 18 352 -10 q 189 97 231 47 q 125 218 147 148 q 98 372 102 288 l 11 372 l 24 473 l 99 473 q 103 511 101 492 q 108 549 105 531 l 33 549 l 45 649 z "},"$":{"ha":806,"x_min":3,"x_max":795,"o":"m 406 142 q 525 194 485 152 q 565 302 565 235 q 557 340 565 324 q 536 369 549 356 q 503 392 522 382 q 463 410 485 401 l 406 142 m 444 862 q 375 845 403 857 q 328 815 347 833 q 302 775 310 797 q 294 729 294 753 q 301 692 294 708 q 322 661 308 675 q 353 637 335 648 q 393 617 372 626 l 444 862 m 499 581 q 588 550 543 567 q 667 507 632 533 q 723 442 701 481 q 745 347 745 403 q 719 216 745 278 q 646 106 694 153 q 529 27 598 58 q 374 -10 460 -3 l 353 -108 q 347 -125 352 -117 q 335 -139 342 -133 q 318 -148 328 -144 q 299 -152 309 -152 l 231 -152 l 261 -6 q 185 11 222 0 q 115 39 148 23 q 53 76 81 56 q 3 122 24 97 l 71 205 q 92 223 79 216 q 119 229 106 229 q 151 219 135 229 q 186 195 167 209 q 232 167 206 181 q 293 145 258 153 l 356 443 q 269 473 313 456 q 192 518 226 490 q 136 586 158 545 q 115 689 115 628 q 140 808 115 750 q 212 910 165 865 q 326 983 259 955 q 477 1016 393 1012 l 494 1099 q 501 1117 496 1108 q 514 1131 506 1125 q 530 1141 521 1138 q 549 1145 539 1145 l 617 1145 l 589 1010 q 711 967 661 997 q 795 899 762 936 l 742 833 q 719 810 731 817 q 692 803 708 803 q 668 810 682 803 q 638 825 655 816 q 601 843 622 833 q 557 858 581 852 l 499 581 z "},"¢":{"ha":806,"x_min":65,"x_max":748,"o":"m 438 586 q 353 558 389 580 q 294 501 317 536 q 259 420 270 467 q 247 316 247 373 q 272 204 247 249 q 343 140 297 159 l 438 586 m 693 107 q 632 58 664 78 q 566 24 600 38 q 496 2 531 10 q 425 -8 460 -6 l 404 -106 q 385 -138 400 -124 q 349 -151 369 -151 l 281 -151 l 313 -6 q 213 29 258 3 q 134 95 167 55 q 83 188 101 135 q 65 307 65 242 q 93 468 65 393 q 172 598 120 542 q 298 687 223 653 q 467 724 372 721 l 490 830 q 509 861 493 847 q 544 876 524 876 l 613 876 l 578 717 q 673 683 632 706 q 748 624 715 660 l 692 561 q 675 545 684 550 q 653 540 667 540 q 633 544 643 540 q 611 555 623 549 q 584 568 599 561 q 550 581 569 575 l 453 128 q 514 141 489 131 q 557 160 538 150 q 589 178 575 170 q 617 185 603 185 q 649 171 640 185 l 693 107 z "},"£":{"ha":806,"x_min":-15,"x_max":813,"o":"m 627 460 q 609 429 625 443 q 571 415 593 415 l 319 415 l 303 285 q 282 204 297 239 q 239 140 267 169 q 299 150 269 147 q 359 154 329 154 l 749 154 l 739 78 q 730 51 737 65 q 711 26 722 37 q 684 7 699 15 q 651 0 669 0 l -15 0 l 1 114 q 74 152 49 124 q 107 235 100 179 l 128 415 l 24 415 l 33 488 q 52 518 36 504 q 90 533 67 533 l 143 533 l 163 694 q 201 819 172 760 q 278 922 230 878 q 391 992 326 966 q 538 1018 457 1018 q 644 1005 599 1018 q 722 966 689 991 q 776 908 754 942 q 813 835 799 875 l 733 788 q 684 776 707 775 q 642 799 660 778 q 619 828 630 816 q 594 849 608 840 q 563 861 581 857 q 519 865 545 865 q 457 854 486 865 q 407 820 428 842 q 371 767 385 799 q 352 695 357 735 l 333 533 l 635 533 l 627 460 l 627 460 z "},"¥":{"ha":806,"x_min":58,"x_max":871,"o":"m 525 440 l 712 440 l 699 340 l 482 340 l 474 276 l 690 276 l 678 175 l 461 175 l 440 0 l 256 0 l 277 175 l 58 175 l 72 276 l 289 276 l 297 340 l 78 340 l 91 440 l 277 440 l 72 1007 l 226 1007 q 266 994 251 1007 q 287 962 281 982 l 389 635 q 404 574 399 602 q 413 520 410 547 q 435 575 423 547 q 465 635 447 603 l 644 962 q 672 993 654 979 q 715 1007 690 1007 l 871 1007 l 525 440 z "},"℅":{"ha":1117,"x_min":35,"x_max":1078,"o":"m 851 978 q 876 998 862 990 q 914 1007 890 1007 l 1049 1007 l 232 27 q 206 8 221 15 q 173 0 192 0 l 35 0 l 851 978 m 391 646 q 409 638 401 646 l 458 578 q 376 515 424 535 q 270 494 329 494 q 182 511 220 494 q 117 559 143 528 q 78 631 91 590 q 65 719 65 672 q 86 840 65 785 q 144 936 107 896 q 232 999 181 976 q 340 1022 282 1022 q 437 1001 397 1022 q 499 951 477 981 l 442 886 q 431 875 438 880 q 413 870 424 870 q 396 875 403 870 q 381 887 390 881 q 360 898 373 893 q 325 903 348 903 q 278 892 300 903 q 241 858 257 880 q 217 803 226 835 q 208 731 208 772 q 214 681 208 703 q 233 643 221 658 q 260 619 244 627 q 294 610 276 610 q 333 615 317 610 q 367 637 349 620 q 379 643 373 640 q 391 646 385 646 m 1078 285 q 1057 170 1078 224 q 996 76 1035 116 q 903 12 957 35 q 788 -11 850 -11 q 693 7 735 -11 q 622 57 651 26 q 577 131 592 88 q 562 221 562 173 q 584 336 562 282 q 644 431 606 390 q 736 494 683 471 q 852 517 790 517 q 947 499 905 517 q 1018 449 989 481 q 1063 375 1047 417 q 1078 285 1078 333 m 935 281 q 910 367 935 335 q 838 399 885 399 q 781 387 806 399 q 739 352 756 374 q 714 297 722 329 q 705 225 705 265 q 729 139 705 171 q 802 107 753 107 q 859 119 834 107 q 900 154 883 131 q 926 209 917 177 q 935 281 935 241 z "},"№":{"ha":1527,"x_min":67,"x_max":1519,"o":"m 1303 900 q 1227 863 1253 900 q 1201 765 1201 826 q 1220 697 1201 722 q 1275 672 1238 672 q 1350 709 1324 672 q 1376 808 1376 745 q 1358 875 1376 851 q 1303 900 1339 900 m 1261 551 q 1177 567 1214 551 q 1114 611 1140 583 q 1074 676 1088 639 q 1060 756 1060 714 q 1079 858 1060 810 q 1133 942 1099 906 q 1215 998 1167 978 q 1319 1019 1263 1019 q 1403 1002 1365 1019 q 1466 958 1440 986 q 1506 893 1492 931 q 1519 813 1519 855 q 1500 711 1519 758 q 1446 628 1481 663 q 1364 572 1412 592 q 1261 551 1317 551 m 815 1007 l 992 1007 l 868 0 l 763 0 q 725 8 740 0 q 698 34 710 15 l 323 682 q 320 638 322 660 q 316 597 319 616 l 244 0 l 67 0 l 190 1007 l 296 1007 q 318 1006 309 1007 q 334 1001 327 1005 q 346 992 340 998 q 359 975 352 985 l 737 324 q 739 372 738 348 q 743 416 740 396 l 815 1007 m 1029 485 l 1474 485 l 1458 358 l 1013 358 l 1029 485 z "},"#":{"ha":806,"x_min":3,"x_max":828,"o":"m 503 597 l 369 597 l 311 411 l 447 411 l 503 597 m 828 726 l 803 651 q 775 609 795 622 q 715 597 755 597 l 654 597 l 597 411 l 689 411 q 727 395 717 411 q 727 338 738 378 l 710 281 l 563 281 l 477 0 l 391 0 q 368 6 378 0 q 352 22 358 12 q 344 46 346 33 q 349 75 343 60 l 412 281 l 278 281 l 213 66 q 198 35 208 48 q 177 15 189 23 q 151 3 165 7 q 122 0 137 0 l 40 0 l 126 281 l 52 281 q 13 297 24 281 q 14 354 3 314 l 31 411 l 160 411 l 217 597 l 71 597 l 94 672 q 124 713 103 700 q 184 726 144 726 l 251 726 l 319 946 q 352 991 328 974 q 404 1007 375 1007 l 490 1007 l 403 726 l 537 726 l 623 1007 l 706 1007 q 731 1002 719 1007 q 749 989 742 997 q 757 969 756 981 q 755 944 759 958 l 688 726 l 828 726 z "},"₀":{"ha":464,"x_min":-11,"x_max":394,"o":"m 394 150 q 375 12 394 71 q 324 -86 356 -47 q 249 -143 292 -124 q 158 -162 206 -162 q 90 -149 122 -162 q 36 -110 59 -136 q 1 -43 14 -83 q -11 50 -11 -3 q 8 189 -11 130 q 58 288 26 249 q 133 345 90 326 q 223 365 175 365 q 292 351 260 365 q 346 311 323 338 q 382 244 369 285 q 394 150 394 204 m 263 166 q 259 214 263 195 q 248 242 256 232 q 231 257 241 253 q 209 260 222 260 q 178 253 194 260 q 149 223 162 247 q 128 156 136 200 q 120 39 120 113 q 124 -10 120 9 q 134 -39 128 -28 q 150 -54 141 -50 q 171 -58 160 -58 q 207 -49 190 -58 q 237 -16 224 -40 q 256 53 249 9 q 263 166 263 97 z "},"₁":{"ha":464,"x_min":29,"x_max":335,"o":"m 335 -62 l 324 -157 l 31 -157 l 43 -62 l 137 -62 l 164 165 l 172 199 l 120 163 q 101 155 110 156 q 85 155 92 153 q 72 160 77 156 q 63 168 66 164 l 29 224 l 209 360 l 321 360 l 269 -62 l 335 -62 z "},"₂":{"ha":464,"x_min":-33,"x_max":385,"o":"m 320 -40 q 351 -51 340 -40 q 358 -80 362 -62 l 350 -157 l -33 -157 l -27 -115 q -19 -89 -26 -103 q 1 -64 -12 -75 l 161 77 q 195 111 179 94 q 223 147 211 129 q 242 182 235 165 q 249 216 249 200 q 240 248 249 235 q 210 260 230 260 q 176 251 190 260 q 151 221 163 241 q 125 198 139 204 q 86 195 112 192 l 15 207 q 94 326 37 288 q 229 365 151 365 q 297 354 268 365 q 346 325 326 344 q 375 282 365 307 q 385 230 385 258 q 374 172 385 198 q 346 122 364 145 q 306 77 328 99 q 258 33 283 56 l 163 -53 q 205 -43 185 -47 q 242 -40 226 -40 l 320 -40 z "},"₃":{"ha":464,"x_min":-19,"x_max":383,"o":"m 22 207 q 53 277 33 247 q 100 326 73 307 q 160 355 128 346 q 229 365 193 365 q 295 354 267 365 q 344 326 324 344 q 373 287 363 309 q 383 241 383 265 q 364 164 383 195 q 299 115 344 133 q 364 24 364 92 q 345 -59 364 -24 q 297 -117 327 -94 q 231 -151 267 -140 q 158 -162 194 -162 q 92 -156 121 -162 q 41 -132 63 -149 q 4 -89 19 -116 q -19 -22 -11 -62 l 41 1 q 83 6 65 10 q 108 -13 102 2 q 126 -42 113 -30 q 164 -55 140 -55 q 213 -36 195 -55 q 231 13 231 -18 q 211 51 231 41 q 140 61 190 61 l 151 152 q 231 167 209 152 q 253 216 253 181 q 242 247 253 235 q 210 258 232 258 q 174 249 187 258 q 151 222 160 239 q 126 197 139 203 q 89 195 114 192 l 22 207 z "},"₄":{"ha":464,"x_min":-35,"x_max":388,"o":"m 215 53 l 227 147 q 243 228 231 182 l 96 53 l 215 53 m 388 53 l 379 -23 q 370 -40 378 -33 q 351 -48 363 -48 l 314 -48 l 301 -157 l 190 -157 l 203 -48 l 6 -48 q -20 -40 -11 -48 q -31 -19 -29 -31 l -35 44 l 236 359 l 364 359 l 326 53 l 388 53 z "},"₅":{"ha":464,"x_min":-23,"x_max":378,"o":"m 183 244 l 163 176 q 248 177 211 184 q 310 152 285 170 q 348 107 335 134 q 360 47 360 79 q 343 -37 360 1 q 295 -103 326 -75 q 223 -147 265 -131 q 133 -162 181 -162 q 42 -142 81 -162 q -23 -90 3 -121 l 24 -37 q 40 -24 31 -28 q 58 -19 49 -19 q 79 -25 70 -19 q 97 -38 88 -31 q 120 -51 107 -45 q 154 -57 133 -57 q 207 -36 188 -57 q 226 23 226 -15 q 195 72 226 61 q 103 63 164 83 l 28 84 l 108 359 l 378 359 l 372 306 q 349 262 369 279 q 289 244 330 244 l 183 244 z "},"₆":{"ha":464,"x_min":-8,"x_max":385,"o":"m 177 -65 q 205 -59 192 -65 q 230 -42 219 -53 q 247 -17 240 -31 q 253 16 253 -2 q 239 60 253 44 q 196 75 224 75 q 141 53 161 75 q 121 -4 121 32 q 135 -48 121 -31 q 177 -65 149 -65 m 240 211 q 205 180 224 195 q 165 146 185 164 q 205 164 183 158 q 249 171 226 171 q 294 164 271 171 q 335 141 317 157 q 365 101 353 126 q 377 41 377 76 q 361 -37 377 0 q 316 -102 344 -74 q 247 -146 287 -130 q 161 -162 208 -162 q 89 -150 120 -162 q 35 -116 57 -137 q 3 -64 14 -94 q -8 1 -8 -34 q 11 95 -8 53 q 70 181 31 138 l 199 330 q 227 350 208 342 q 270 359 247 359 l 385 359 l 240 211 z "},"₇":{"ha":464,"x_min":3,"x_max":410,"o":"m 410 359 l 399 271 l 147 -157 l 3 -157 l 217 185 q 239 216 228 201 q 262 242 249 230 l 57 242 q 38 250 47 242 q 32 270 30 258 l 43 359 l 410 359 z "},"₈":{"ha":464,"x_min":-11,"x_max":378,"o":"m 172 -65 q 220 -44 205 -65 q 236 13 236 -24 q 187 60 236 60 q 139 43 156 60 q 123 -15 123 27 q 134 -50 123 -35 q 172 -65 145 -65 m 213 270 q 186 265 197 270 q 169 250 176 259 q 159 229 162 241 q 156 205 156 217 q 199 158 156 158 q 244 176 231 158 q 258 225 258 193 q 248 256 258 241 q 213 270 237 270 m 301 111 q 354 69 339 95 q 369 12 369 44 q 353 -60 369 -28 q 310 -115 338 -92 q 244 -150 282 -137 q 160 -162 206 -162 q 89 -152 121 -162 q 35 -124 58 -142 q 1 -80 13 -106 q -11 -24 -11 -55 q 10 58 -11 22 q 85 113 31 94 q 34 205 34 142 q 49 269 34 240 q 90 319 64 298 q 151 353 116 341 q 225 365 185 365 q 287 355 259 365 q 336 328 315 345 q 367 287 356 310 q 378 236 378 263 q 301 111 378 147 z "},"₉":{"ha":464,"x_min":-3,"x_max":385,"o":"m 142 193 q 197 140 142 140 q 248 159 228 140 q 267 213 267 177 q 252 253 267 238 q 213 267 237 267 q 160 248 178 267 q 142 193 142 228 m 158 7 q 189 36 174 23 q 218 65 204 50 q 145 51 185 51 q 99 59 122 51 q 57 85 76 68 q 27 126 38 101 q 15 181 15 150 q 31 248 15 215 q 74 307 46 281 q 139 349 101 333 q 222 365 176 365 q 292 353 261 365 q 343 321 322 342 q 374 273 363 301 q 385 212 385 245 q 364 106 385 152 q 308 18 342 60 l 185 -128 q 156 -148 175 -140 q 115 -157 137 -157 l -3 -157 l 158 7 z "},"₊":{"ha":464,"x_min":8,"x_max":372,"o":"m 361 43 l 236 43 l 219 -91 l 115 -91 l 132 43 l 8 43 l 19 138 l 144 138 l 160 270 l 265 270 l 248 138 l 372 138 l 361 43 z "},"₋":{"ha":464,"x_min":20,"x_max":359,"o":"m 32 138 l 359 138 l 348 43 l 20 43 l 32 138 z "},"₌":{"ha":464,"x_min":13,"x_max":368,"o":"m 24 70 l 352 70 l 340 -23 l 13 -23 l 24 70 m 41 203 l 368 203 l 357 110 l 28 110 l 41 203 z "},"₍":{"ha":232,"x_min":-16,"x_max":197,"o":"m 97 24 q 99 -24 97 1 q 104 -76 101 -50 q 112 -126 107 -101 q 124 -171 117 -151 q 124 -202 131 -191 q 106 -219 117 -213 l 44 -254 q 18 -191 29 -224 q -1 -122 6 -157 q -12 -52 -8 -87 q -16 15 -16 -17 q 18 232 -16 130 q 129 435 53 334 l 182 401 q 191 393 187 397 q 196 383 194 389 q 195 370 197 377 q 188 352 194 363 q 123 199 148 281 q 97 24 97 117 z "},"₎":{"ha":232,"x_min":-49,"x_max":164,"o":"m 51 157 q 50 205 51 179 q 45 255 48 230 q 36 305 42 281 q 25 350 31 330 q 24 381 17 370 q 43 398 31 392 l 106 431 q 131 369 120 402 q 150 300 142 335 q 160 231 157 265 q 164 163 164 196 q 156 52 164 106 q 130 -53 147 -1 q 85 -155 113 -105 q 19 -256 58 -206 l -33 -222 q -42 -215 -38 -219 q -48 -205 -46 -210 q -47 -192 -49 -199 q -39 -174 -45 -184 q 26 -19 1 -103 q 51 157 51 64 z "},"⁄":{"ha":194,"x_min":-312,"x_max":525,"o":"m -137 53 q -184 11 -160 22 q -237 0 -207 0 l -312 0 l 343 945 q 390 991 365 974 q 449 1007 415 1007 l 525 1007 l -137 53 z "},"⅔":{"ha":997,"x_min":60,"x_max":945,"o":"m 283 53 q 236 11 260 22 q 183 0 213 0 l 108 0 l 763 945 q 810 991 785 974 q 869 1007 835 1007 l 945 1007 l 283 53 m 413 608 q 444 597 433 608 q 451 568 455 586 l 443 491 l 60 491 l 66 533 q 74 559 67 545 q 94 584 81 573 l 254 725 q 288 759 272 742 q 316 795 304 777 q 335 830 328 813 q 342 864 342 848 q 333 896 342 883 q 303 908 323 908 q 269 899 283 908 q 244 869 256 889 q 218 846 232 852 q 179 843 205 840 l 108 855 q 187 974 130 936 q 322 1013 244 1013 q 390 1002 361 1013 q 439 973 419 992 q 468 930 458 955 q 478 878 478 906 q 467 819 478 846 q 439 770 457 793 q 399 725 422 747 q 351 681 376 703 l 256 595 q 298 605 278 601 q 335 608 319 608 l 413 608 m 574 364 q 606 434 585 404 q 653 483 626 464 q 713 512 681 503 q 782 522 746 522 q 848 511 819 522 q 897 483 877 501 q 926 444 916 466 q 936 398 936 422 q 917 321 936 352 q 851 272 897 290 q 917 181 917 249 q 898 98 917 133 q 850 40 880 63 q 783 6 820 17 q 710 -6 747 -6 q 644 1 674 -6 q 593 25 615 8 q 557 68 572 41 q 533 135 542 94 l 594 158 q 636 163 617 167 q 660 144 655 159 q 679 115 666 127 q 717 102 692 102 q 766 120 748 102 q 784 169 784 139 q 764 208 784 198 q 693 218 743 218 l 704 309 q 784 324 762 309 q 806 373 806 338 q 795 403 806 392 q 763 415 785 415 q 726 406 740 415 q 703 379 713 396 q 679 354 692 360 q 642 352 667 349 l 574 364 z "},"⅖":{"ha":972,"x_min":59,"x_max":943,"o":"m 281 53 q 234 11 258 22 q 181 0 211 0 l 106 0 l 761 945 q 808 991 783 974 q 867 1007 833 1007 l 943 1007 l 281 53 m 412 608 q 443 597 432 608 q 450 568 453 586 l 442 491 l 59 491 l 65 533 q 73 559 66 545 q 92 584 79 573 l 253 725 q 287 759 271 742 q 315 795 303 777 q 334 830 327 813 q 341 864 341 848 q 331 896 341 883 q 301 908 322 908 q 268 899 281 908 q 242 869 254 889 q 217 846 231 852 q 178 843 203 840 l 106 855 q 185 974 128 936 q 321 1013 242 1013 q 389 1002 360 1013 q 438 973 418 992 q 467 930 457 955 q 476 878 476 906 q 466 819 476 846 q 438 770 456 793 q 397 725 420 747 q 349 681 374 703 l 255 595 q 297 605 276 601 q 334 608 317 608 l 412 608 m 714 401 l 694 333 q 780 334 742 341 q 842 309 817 327 q 879 264 867 291 q 892 203 892 236 q 874 120 892 158 q 827 54 857 82 q 755 10 797 26 q 664 -6 713 -6 q 574 15 613 -6 q 508 67 535 36 l 556 119 q 572 133 563 129 q 589 138 581 138 q 610 132 601 138 q 628 119 619 126 q 651 106 638 112 q 685 100 665 100 q 738 121 719 100 q 758 180 758 142 q 726 229 758 218 q 635 220 695 240 l 559 241 l 639 516 l 910 516 l 903 463 q 881 419 900 436 q 820 401 861 401 l 714 401 z "},"+":{"ha":806,"x_min":59,"x_max":757,"o":"m 740 399 l 474 399 l 439 117 l 288 117 l 324 399 l 59 399 l 76 534 l 340 534 l 375 815 l 525 815 l 490 534 l 757 534 l 740 399 z "},"−":{"ha":806,"x_min":89,"x_max":725,"o":"m 105 534 l 725 534 l 708 399 l 89 399 l 105 534 z "},"×":{"ha":806,"x_min":47,"x_max":754,"o":"m 503 467 l 709 233 l 601 138 l 396 371 l 132 136 l 47 231 l 312 467 l 115 691 l 224 786 l 419 563 l 669 785 l 754 690 l 503 467 z "},"÷":{"ha":806,"x_min":58,"x_max":756,"o":"m 76 534 l 756 534 l 739 399 l 58 399 l 76 534 m 326 701 q 336 748 326 726 q 363 787 346 770 q 402 813 380 803 q 451 822 425 822 q 490 815 472 822 q 520 794 508 807 q 541 763 533 781 q 548 725 548 745 q 538 677 548 699 q 510 639 527 656 q 470 614 493 623 q 424 605 448 605 q 384 612 401 605 q 353 632 366 619 q 333 663 340 645 q 326 701 326 681 m 265 206 q 275 253 265 231 q 302 292 285 276 q 341 318 319 309 q 390 328 364 328 q 428 320 410 328 q 459 299 447 313 q 480 268 472 286 q 487 231 487 251 q 476 183 487 205 q 449 145 466 161 q 409 119 432 128 q 363 110 387 110 q 323 118 341 110 q 292 138 305 125 q 272 168 279 151 q 265 206 265 186 z "},"=":{"ha":806,"x_min":72,"x_max":740,"o":"m 90 410 l 710 410 l 693 276 l 72 276 l 90 410 m 121 658 l 740 658 l 724 523 l 103 523 l 121 658 z "},"≠":{"ha":806,"x_min":121,"x_max":690,"o":"m 558 808 l 690 808 l 252 115 l 121 115 l 558 808 z "},"≈":{"ha":806,"x_min":97,"x_max":714,"o":"m 574 628 q 617 633 596 628 q 657 645 639 638 q 688 660 675 653 q 707 674 701 668 l 714 559 q 636 507 682 523 q 544 491 591 491 q 472 502 507 491 q 402 525 436 513 q 337 548 369 538 q 276 559 306 559 q 231 554 253 559 q 190 541 208 549 q 158 525 172 534 q 140 510 145 517 l 126 622 q 207 678 160 660 q 305 695 255 695 q 376 685 341 695 q 445 662 412 674 q 511 639 479 649 q 574 628 543 628 m 542 378 q 586 383 565 378 q 626 395 608 388 q 657 410 644 402 q 676 423 670 417 l 683 308 q 605 257 651 273 q 513 242 560 242 q 441 252 476 242 q 372 275 406 263 q 306 298 338 288 q 244 308 274 308 q 200 303 222 308 q 159 291 178 299 q 127 276 141 284 q 109 260 114 267 l 97 371 q 176 428 128 410 q 274 446 224 446 q 347 435 311 446 q 416 412 382 424 q 481 389 449 399 q 542 378 513 378 z "},"<":{"ha":806,"x_min":105,"x_max":706,"o":"m 706 797 l 689 662 q 678 635 687 647 q 650 614 669 622 l 409 494 q 371 480 391 486 q 330 468 351 474 q 402 442 370 459 l 616 323 q 638 302 632 315 q 642 274 644 290 l 624 140 l 105 431 l 107 449 l 114 506 l 706 797 z "},">":{"ha":806,"x_min":110,"x_max":711,"o":"m 709 487 l 702 431 l 110 140 l 127 274 q 138 302 129 290 q 165 323 147 315 l 406 442 q 444 457 424 450 q 486 468 464 463 q 413 494 445 478 l 200 614 q 178 635 184 622 q 174 662 172 647 l 191 797 l 711 506 l 709 487 z "},"±":{"ha":806,"x_min":19,"x_max":769,"o":"m 35 190 l 716 190 l 699 56 l 19 56 l 35 190 m 769 625 l 752 490 l 487 490 l 458 258 l 309 258 l 338 490 l 73 490 l 89 625 l 354 625 l 384 868 l 533 868 l 503 625 l 769 625 z "},"≤":{"ha":806,"x_min":73,"x_max":728,"o":"m 91 195 l 647 195 l 629 56 l 73 56 l 91 195 m 728 859 l 713 731 q 701 702 710 715 q 665 678 691 688 l 435 582 q 393 569 415 574 q 347 558 371 563 q 428 533 392 549 l 635 434 q 665 410 659 424 q 670 382 672 397 l 654 253 l 131 519 l 135 555 l 140 595 l 728 859 z "},"≥":{"ha":806,"x_min":87,"x_max":710,"o":"m 703 538 l 700 519 l 112 253 l 128 382 q 140 410 130 397 q 176 434 150 424 l 406 533 q 494 558 447 549 q 450 569 471 563 q 411 582 430 574 l 205 678 q 175 702 181 688 q 170 731 169 715 l 186 859 l 710 595 l 703 538 m 105 195 l 661 195 l 643 56 l 87 56 l 105 195 z "},"¬":{"ha":806,"x_min":87,"x_max":724,"o":"m 682 203 l 526 203 l 551 399 l 87 399 l 103 534 l 724 534 l 682 203 z "},"℮":{"ha":1131,"x_min":68,"x_max":1090,"o":"m 833 645 q 817 750 833 703 q 770 831 801 797 q 695 882 740 864 q 593 900 650 900 q 493 881 539 900 q 416 828 448 863 q 365 746 383 794 q 347 640 347 698 l 347 615 l 833 615 l 833 645 m 347 390 q 367 281 347 331 q 424 192 387 230 q 515 132 462 153 q 637 110 569 110 q 803 147 728 110 q 938 268 879 183 l 1041 195 q 966 107 1008 146 q 869 40 924 67 q 747 -1 815 13 q 594 -15 678 -15 q 376 23 473 -15 q 210 128 278 60 q 105 290 142 196 q 68 497 68 384 q 106 701 68 606 q 213 866 144 796 q 377 976 282 936 q 585 1017 472 1017 q 739 997 669 1017 q 864 942 808 977 q 961 858 919 907 q 1030 752 1002 810 q 1073 631 1058 695 q 1090 499 1088 566 l 347 499 l 347 390 z "},"ℓ":{"ha":780,"x_min":26,"x_max":783,"o":"m 560 879 q 492 852 527 879 q 424 779 456 826 q 367 669 392 732 q 328 533 342 606 q 447 591 392 560 q 539 657 501 622 q 599 729 578 692 q 621 805 621 766 q 605 859 621 839 q 560 879 589 879 m 314 390 q 320 270 314 317 q 336 195 326 223 q 363 157 347 167 q 399 146 378 146 q 444 158 422 146 q 485 190 466 170 q 520 235 504 210 q 548 288 536 260 l 706 250 q 652 145 686 193 q 572 64 617 98 q 473 10 527 29 q 358 -9 418 -9 q 268 9 308 -9 q 197 69 227 28 q 150 177 167 110 q 132 340 133 244 q 91 330 112 335 q 50 321 71 326 l 26 445 q 84 457 56 451 q 140 470 112 463 q 169 608 149 540 q 219 737 190 676 q 289 850 249 798 q 374 940 328 902 q 475 999 421 978 q 588 1020 528 1020 q 673 1004 637 1020 q 734 960 710 988 q 770 895 758 933 q 783 814 783 858 q 749 684 783 745 q 653 571 715 624 q 505 474 592 519 q 314 394 419 430 l 314 390 z "},"∞":{"ha":938,"x_min":43,"x_max":890,"o":"m 734 411 q 733 459 738 439 q 720 491 729 478 q 697 509 710 503 q 668 515 683 515 q 635 507 651 515 q 604 485 619 499 q 574 452 589 471 q 545 411 560 433 q 564 370 554 389 q 586 337 574 351 q 612 315 598 323 q 643 307 626 307 q 673 313 658 307 q 701 331 688 318 q 722 363 713 343 q 734 411 731 383 m 265 307 q 299 315 283 307 q 330 337 315 323 q 359 369 344 351 q 388 410 374 388 q 368 451 378 432 q 347 484 358 470 q 321 507 335 499 q 290 515 307 515 q 259 509 274 515 q 232 491 244 503 q 211 459 220 478 q 199 411 203 439 q 200 363 196 383 q 214 331 204 343 q 236 313 223 318 q 265 307 249 307 m 694 666 q 777 647 739 666 q 841 594 815 628 q 878 514 867 560 q 883 411 890 467 q 853 308 876 355 q 795 227 830 261 q 718 174 761 193 q 631 156 676 156 q 569 165 597 156 q 519 190 542 174 q 480 228 497 206 q 449 274 463 249 q 407 228 429 249 q 358 190 384 206 q 302 165 332 174 q 238 156 272 156 q 156 174 193 156 q 92 227 118 193 q 55 308 67 261 q 50 411 43 355 q 80 514 57 467 q 138 594 103 560 q 214 647 172 628 q 301 666 256 666 q 363 657 335 666 q 413 631 391 647 q 452 594 435 615 q 483 548 469 572 q 525 594 503 572 q 574 631 548 615 q 630 657 600 647 q 694 666 660 666 z "},"∂":{"ha":760,"x_min":14,"x_max":754,"o":"m 306 135 q 364 149 335 135 q 421 193 393 163 q 474 274 449 224 q 519 397 499 324 q 510 445 517 422 q 490 487 503 469 q 457 516 477 505 q 408 526 437 526 q 334 509 366 526 q 279 461 302 492 q 241 387 256 430 q 220 292 226 344 q 233 176 210 217 q 306 135 256 135 m 244 926 q 302 964 273 947 q 363 993 331 981 q 430 1010 394 1004 q 507 1017 465 1017 q 617 990 568 1017 q 697 914 665 964 q 742 792 729 864 q 743 630 754 720 q 686 366 725 484 q 588 164 647 248 q 447 35 528 81 q 266 -10 367 -10 q 157 10 206 -10 q 75 70 108 31 q 28 165 42 110 q 22 290 14 221 q 67 441 32 371 q 153 562 101 510 q 270 642 205 613 q 406 672 335 672 q 504 652 465 672 q 568 597 544 633 l 572 628 q 574 734 578 689 q 554 809 569 779 q 516 854 540 839 q 462 869 492 869 q 418 862 440 869 q 378 847 397 855 q 342 831 358 838 q 315 824 326 824 q 295 830 305 824 q 276 854 285 836 l 244 926 z "},"∫":{"ha":562,"x_min":-65,"x_max":633,"o":"m 237 856 q 270 981 246 928 q 331 1068 294 1034 q 416 1119 368 1103 q 521 1136 464 1136 q 576 1131 547 1136 q 633 1111 606 1125 l 622 1033 q 618 1016 621 1023 q 610 1003 616 1008 q 593 996 604 999 q 566 994 583 994 q 500 986 526 994 q 457 963 474 979 q 432 922 440 947 q 419 862 424 897 l 331 44 q 297 -81 322 -28 q 236 -168 273 -134 q 152 -219 200 -203 q 47 -235 103 -235 q -9 -230 21 -235 q -65 -211 -39 -225 l -55 -132 q -51 -115 -53 -122 q -42 -103 -49 -108 q -26 -96 -36 -99 q 1 -94 -15 -94 q 67 -86 41 -94 q 110 -62 94 -78 q 135 -22 127 -47 q 148 38 144 3 l 237 856 z "},"√":{"ha":860,"x_min":26,"x_max":954,"o":"m 954 1185 l 427 0 l 272 0 l 164 442 l 90 442 q 64 446 76 442 q 43 459 51 450 q 30 482 34 467 q 28 516 26 496 l 36 574 l 284 574 q 317 564 304 574 q 332 540 329 554 l 370 339 q 379 277 376 308 q 381 215 381 247 q 397 265 388 240 q 417 317 406 290 l 777 1150 q 799 1175 784 1165 q 832 1185 813 1185 l 954 1185 z "},"∏":{"ha":982,"x_min":78,"x_max":1005,"o":"m 987 855 l 874 855 l 741 -232 l 551 -232 l 683 855 l 402 855 l 268 -232 l 78 -232 l 212 855 l 99 855 l 117 1007 l 1005 1007 l 987 855 z "},"∑":{"ha":878,"x_min":-35,"x_max":893,"o":"m 874 850 l 386 850 l 639 416 l 632 361 l 273 -74 l 760 -74 l 741 -231 l -35 -231 l -27 -166 q -19 -137 -26 -152 q 0 -110 -12 -122 l 426 391 l 122 885 q 110 914 113 899 q 109 942 107 928 l 117 1008 l 893 1008 l 874 850 z "},"◊":{"ha":806,"x_min":85,"x_max":742,"o":"m 589 504 l 439 832 q 425 869 431 852 q 413 902 419 886 q 401 869 408 886 q 388 832 395 852 l 241 504 l 388 177 q 401 140 395 157 q 413 107 408 123 q 425 140 419 123 q 439 177 431 157 l 589 504 m 742 504 l 480 -57 l 347 -57 l 85 504 l 347 1065 l 480 1065 l 742 504 z "},"←":{"ha":1389,"x_min":63,"x_max":1316,"o":"m 63 451 l 474 860 l 542 793 q 558 754 562 774 q 535 716 553 734 l 414 589 q 373 551 392 568 q 336 520 354 534 q 442 530 387 526 q 553 534 497 534 l 1316 534 l 1316 366 l 553 366 q 442 370 497 366 q 336 380 386 374 q 373 349 354 366 q 414 312 392 332 l 536 183 q 558 146 555 166 q 542 106 562 126 l 475 40 l 63 451 z "},"→":{"ha":1389,"x_min":73,"x_max":1326,"o":"m 1326 449 l 915 40 l 847 107 q 831 146 827 126 q 853 184 835 166 l 975 311 q 1016 349 997 332 q 1053 380 1035 366 q 947 370 1002 374 q 836 366 892 366 l 73 366 l 73 534 l 836 534 q 947 530 892 534 q 1053 520 1003 526 q 1016 551 1035 534 q 975 588 997 568 l 853 717 q 831 754 834 734 q 847 794 827 774 l 914 860 l 1326 449 z "},"↑":{"ha":1042,"x_min":109,"x_max":932,"o":"m 932 684 l 863 619 q 823 603 843 600 q 784 625 802 607 l 663 753 q 624 792 642 773 q 593 828 607 810 q 604 725 600 778 q 608 617 608 672 l 608 -157 l 434 -157 l 434 617 q 438 725 434 672 q 449 828 442 779 q 379 753 420 794 l 258 624 q 219 603 240 606 q 178 619 198 599 l 109 684 l 522 1094 l 932 684 z "},"↓":{"ha":1042,"x_min":109,"x_max":932,"o":"m 932 167 l 519 -244 l 109 167 l 178 232 q 218 248 198 251 q 257 226 239 244 l 378 99 q 417 60 399 78 q 449 24 434 41 q 438 126 442 72 q 434 233 434 179 l 434 1008 l 607 1008 l 607 233 q 603 126 607 179 q 592 23 599 72 q 662 99 620 57 l 784 226 q 823 248 802 244 q 863 232 843 251 l 932 167 z "},"↗":{"ha":1042,"x_min":22,"x_max":970,"o":"m 970 935 l 970 355 l 874 356 q 833 373 845 356 q 822 415 822 390 l 822 594 q 823 649 822 624 q 827 697 824 674 q 760 616 796 657 q 685 538 724 576 l 144 -10 l 22 109 l 563 657 q 644 731 602 695 q 726 797 685 766 q 677 792 703 794 q 622 791 651 791 l 449 791 q 406 802 423 790 q 389 841 389 814 l 388 935 l 970 935 z "},"↖":{"ha":1042,"x_min":72,"x_max":1019,"o":"m 1019 109 l 897 -10 l 357 538 q 282 616 318 576 q 215 697 246 657 q 219 649 217 674 q 220 594 220 624 l 220 415 q 208 373 220 390 q 168 356 197 356 l 72 355 l 72 935 l 654 935 l 653 841 q 636 802 653 814 q 593 791 619 790 l 420 791 q 364 792 390 791 q 316 797 338 794 q 398 731 356 766 q 479 657 440 695 l 1019 109 z "},"↘":{"ha":1042,"x_min":22,"x_max":970,"o":"m 970 581 l 970 1 l 388 0 l 389 94 q 406 133 389 121 q 449 144 423 144 l 622 144 q 726 138 681 143 q 644 205 685 169 q 563 278 602 240 l 22 826 l 144 944 l 685 397 q 759 319 724 360 q 826 239 795 278 q 823 286 824 261 q 822 340 822 311 l 822 521 q 833 563 822 546 q 874 579 845 579 l 970 581 z "},"↙":{"ha":1042,"x_min":72,"x_max":1019,"o":"m 72 0 l 72 580 l 168 578 q 208 562 197 578 q 220 520 220 545 l 220 340 q 219 285 220 310 q 215 238 217 260 q 282 318 246 278 q 357 397 318 358 l 897 944 l 1019 825 l 479 278 q 398 203 440 239 q 315 138 356 168 q 420 144 361 143 l 593 144 q 636 132 619 144 q 653 93 653 120 l 654 -1 l 72 0 z "},"↔":{"ha":1389,"x_min":63,"x_max":1326,"o":"m 1326 449 l 915 40 l 847 107 q 831 146 827 126 q 853 184 835 166 l 975 311 q 1016 349 997 332 q 1053 380 1035 366 q 947 370 1002 374 q 836 366 892 366 l 353 366 q 414 312 381 343 l 536 183 q 558 146 555 166 q 542 106 562 126 l 475 40 l 63 451 l 474 860 l 542 793 q 558 754 562 774 q 535 716 553 734 l 414 589 q 383 559 398 573 q 353 534 367 546 l 836 534 q 947 530 892 534 q 1053 520 1003 526 q 1016 551 1035 534 q 975 588 997 568 l 853 717 q 831 754 834 734 q 847 794 827 774 l 914 860 l 1326 449 z "},"↕":{"ha":1042,"x_min":109,"x_max":933,"o":"m 520 -244 l 110 167 l 178 232 q 219 248 199 251 q 258 226 240 244 l 379 99 q 409 69 395 83 q 434 41 422 55 l 434 617 q 438 725 434 672 q 449 828 442 779 q 417 792 435 810 q 379 753 400 774 l 258 624 q 219 603 240 606 q 178 619 198 599 l 109 684 l 522 1094 l 932 684 l 863 619 q 823 603 843 600 q 784 625 802 607 l 663 753 q 593 827 621 793 q 603 725 599 778 q 608 617 608 672 l 608 40 q 633 68 619 54 q 663 99 647 83 l 785 226 q 823 248 803 244 q 864 232 844 251 l 933 167 l 520 -244 z "},"Ơ":{"ha":1109,"x_min":51,"x_max":1178,"o":"m 494 152 q 626 182 567 152 q 726 265 685 211 q 790 395 767 319 q 813 565 813 472 q 797 684 813 631 q 750 776 781 738 q 675 835 719 814 q 574 856 631 856 q 443 826 501 856 q 343 742 384 796 q 279 611 301 688 q 257 442 257 535 q 273 323 257 376 q 319 231 289 269 q 393 173 349 193 q 494 152 438 152 m 1176 1109 q 1177 1089 1176 1102 q 1178 1069 1178 1076 q 1166 975 1178 1019 q 1128 893 1153 930 q 1064 829 1103 856 q 974 787 1026 801 q 1007 684 996 739 q 1019 570 1019 630 q 1000 412 1019 488 q 947 272 981 337 q 863 156 913 208 q 753 66 814 103 q 621 9 692 29 q 472 -11 550 -11 q 296 23 374 -11 q 164 118 218 58 q 81 260 110 178 q 51 437 51 342 q 70 595 51 519 q 123 735 89 670 q 207 852 158 799 q 317 941 256 904 q 449 999 378 978 q 599 1019 520 1019 q 786 979 704 1019 q 922 870 868 940 q 971 900 955 880 q 987 945 987 920 q 984 963 987 955 q 980 980 982 972 q 975 999 977 989 q 972 1021 972 1008 q 998 1087 972 1065 q 1079 1109 1023 1109 l 1176 1109 z "},"Ư":{"ha":1149,"x_min":75,"x_max":1233,"o":"m 1231 1109 q 1233 1089 1233 1102 q 1233 1069 1233 1076 q 1215 954 1233 1008 q 1157 860 1196 900 q 1059 797 1119 820 q 919 772 1000 773 l 874 405 q 826 238 863 315 q 731 107 789 162 q 597 20 674 51 q 428 -11 520 -11 q 268 20 337 -11 q 155 107 199 51 q 93 238 110 162 q 86 405 75 315 l 158 1008 l 360 1008 l 286 405 q 287 304 279 349 q 315 226 294 258 q 370 176 336 194 q 449 159 403 159 q 533 176 495 159 q 600 226 572 194 q 647 304 628 258 q 672 405 666 349 l 747 1008 l 947 1008 l 930 863 q 1015 888 986 865 q 1043 945 1043 912 q 1041 963 1043 955 q 1035 980 1038 972 q 1030 999 1033 989 q 1028 1021 1028 1008 q 1053 1087 1028 1065 q 1135 1109 1079 1109 l 1231 1109 z "},"ơ":{"ha":803,"x_min":26,"x_max":869,"o":"m 323 133 q 395 157 363 133 q 449 220 427 181 q 484 313 472 260 q 496 425 496 366 q 470 545 496 508 q 390 583 444 583 q 318 559 351 583 q 264 497 286 536 q 230 404 242 457 q 217 292 217 351 q 243 172 217 210 q 323 133 269 133 m 868 825 q 869 806 869 818 q 869 787 869 794 q 858 698 869 740 q 823 622 847 656 q 763 563 799 588 q 675 525 726 538 q 687 426 687 479 q 656 253 687 333 q 574 115 626 173 q 452 23 522 56 q 306 -10 383 -10 q 195 9 246 -10 q 106 67 144 29 q 48 162 69 106 q 26 290 26 218 q 57 464 26 384 q 140 603 88 544 q 261 694 192 661 q 408 727 331 727 q 544 695 483 727 q 642 602 606 663 q 685 633 671 613 q 699 674 699 652 q 696 690 699 683 q 690 706 693 698 q 683 724 686 715 q 681 747 681 734 q 704 805 681 784 q 779 825 727 825 l 868 825 z "},"ư":{"ha":890,"x_min":40,"x_max":960,"o":"m 958 825 q 959 806 959 818 q 960 787 960 794 q 944 685 960 733 q 897 601 929 638 q 814 542 865 565 q 694 515 764 519 l 631 0 l 534 0 q 466 65 466 0 l 468 129 q 353 24 415 58 q 224 -10 291 -10 q 143 8 179 -10 q 83 60 107 26 q 50 145 60 95 q 49 261 40 196 l 102 716 l 294 716 l 240 261 q 246 170 232 197 q 298 143 260 143 q 350 157 323 143 q 401 198 376 172 q 447 261 426 224 q 482 344 468 299 l 527 716 l 718 716 l 703 594 q 740 605 724 597 q 767 624 756 613 q 783 648 778 635 q 789 674 789 660 q 786 690 789 683 q 780 706 783 698 q 773 724 776 715 q 770 747 770 734 q 794 805 770 784 q 869 825 817 825 l 958 825 z "},"₫":{"ha":829,"x_min":0,"x_max":830,"o":"m 14 -65 l 691 -65 l 677 -178 l 0 -178 l 14 -65 m 510 526 q 461 553 488 545 q 409 561 434 561 q 332 538 367 561 q 272 476 297 515 q 233 385 247 437 q 219 277 219 333 q 242 172 219 206 q 303 138 264 138 q 356 156 329 138 q 408 206 383 174 q 455 281 433 238 q 491 373 476 324 l 510 526 m 817 784 l 731 784 l 633 0 l 531 0 q 501 5 513 0 q 482 18 489 10 q 472 38 475 26 q 469 62 469 49 l 473 143 q 360 31 422 72 q 228 -10 298 -10 q 147 6 183 -10 q 84 55 110 22 q 43 138 58 88 q 29 258 29 189 q 57 432 29 351 q 133 574 85 513 q 245 669 181 634 q 378 704 308 704 q 461 689 424 704 q 526 647 498 674 l 543 784 l 467 784 q 416 799 429 784 q 408 849 402 814 l 415 897 l 557 897 l 574 1035 l 762 1035 l 744 897 l 830 897 l 817 784 z "},"○":{"ha":920,"x_min":83,"x_max":844,"o":"m 83 451 q 113 599 83 529 q 194 720 142 668 q 315 801 246 772 q 463 831 385 831 q 611 801 542 831 q 732 720 681 772 q 814 599 784 668 q 844 451 844 529 q 814 303 844 372 q 732 182 784 233 q 611 100 681 130 q 463 70 542 70 q 315 100 385 70 q 194 182 246 130 q 113 303 142 233 q 83 451 83 372 m 251 451 q 268 366 251 406 q 314 298 285 327 q 381 252 342 269 q 463 235 419 235 q 546 252 507 235 q 614 298 585 269 q 659 366 642 327 q 676 451 676 406 q 659 535 676 495 q 614 604 642 574 q 546 650 585 633 q 463 667 507 667 q 381 650 419 667 q 314 604 342 633 q 268 535 285 574 q 251 451 251 495 z "},"◌":{"ha":920,"x_min":78,"x_max":851,"o":"m 411 784 q 426 820 411 805 q 464 835 442 835 q 501 820 485 835 q 516 784 516 805 q 501 747 516 763 q 464 732 485 732 q 426 747 442 732 q 411 784 411 763 m 538 758 q 553 795 538 780 q 590 810 568 810 q 627 795 612 810 q 643 758 643 780 q 627 722 643 738 q 590 707 612 707 q 553 722 568 707 q 538 758 538 738 m 646 688 q 661 724 646 709 q 699 739 676 739 q 736 724 720 739 q 751 688 751 709 q 736 651 751 666 q 699 636 720 636 q 661 651 676 636 q 646 688 646 666 m 716 579 q 732 616 716 601 q 769 631 747 631 q 806 616 791 631 q 822 579 822 601 q 806 543 822 558 q 769 528 791 528 q 732 543 747 528 q 716 579 716 558 m 745 450 q 761 486 745 472 q 798 501 776 501 q 835 486 820 501 q 851 450 851 472 q 835 414 851 428 q 798 399 820 399 q 761 414 776 399 q 745 450 745 428 m 282 758 q 297 795 282 780 q 334 810 313 810 q 372 795 356 810 q 387 758 387 780 q 372 722 387 738 q 334 707 356 707 q 297 722 313 707 q 282 758 282 738 m 174 688 q 189 724 174 709 q 226 739 204 739 q 263 724 248 739 q 278 688 278 709 q 263 651 278 666 q 226 636 248 636 q 189 651 204 636 q 174 688 174 666 m 103 579 q 118 616 103 601 q 155 631 133 631 q 192 616 177 631 q 208 579 208 601 q 192 543 208 558 q 155 528 177 528 q 118 543 133 528 q 103 579 103 558 m 78 450 q 93 486 78 472 q 130 501 108 501 q 167 486 152 501 q 183 450 183 472 q 167 414 183 428 q 130 399 152 399 q 93 414 108 399 q 78 450 78 428 m 716 324 q 732 360 716 345 q 769 375 747 375 q 806 360 791 375 q 822 324 822 345 q 806 287 822 302 q 769 272 791 272 q 732 287 747 272 q 716 324 716 302 m 103 324 q 118 360 103 345 q 155 375 133 375 q 192 360 177 375 q 208 324 208 345 q 192 287 208 302 q 155 272 177 272 q 118 287 133 272 q 103 324 103 302 m 646 215 q 661 251 646 236 q 699 267 676 267 q 736 251 720 267 q 751 215 751 236 q 736 178 751 194 q 699 163 720 163 q 661 178 676 163 q 646 215 646 194 m 174 215 q 189 251 174 236 q 226 267 204 267 q 263 251 248 267 q 278 215 278 236 q 263 178 278 194 q 226 163 248 163 q 189 178 204 163 q 174 215 174 194 m 538 145 q 553 181 538 166 q 590 197 568 197 q 627 181 612 197 q 643 145 643 166 q 627 108 643 124 q 590 93 612 93 q 553 108 568 93 q 538 145 538 124 m 282 145 q 297 181 282 166 q 334 197 313 197 q 372 181 356 197 q 387 145 387 166 q 372 108 387 124 q 334 93 356 93 q 297 108 313 93 q 282 145 282 124 m 411 116 q 426 152 411 137 q 464 167 442 167 q 501 152 485 167 q 516 116 516 137 q 501 79 516 94 q 464 64 485 64 q 426 79 442 64 q 411 116 411 94 z "},"͏":{"ha":0,"x_min":0,"x_max":0,"o":""},"᷂":{"ha":0,"x_min":-133,"x_max":88,"o":"m -133 -62 q -122 -51 -133 -58 q -94 -39 -110 -44 q -61 -29 -78 -33 q -32 -25 -44 -25 q -15 -28 -23 -25 q 1 -35 -7 -31 q 18 -45 9 -40 q 39 -56 27 -51 q 73 -76 59 -63 q 88 -109 88 -90 q 79 -136 88 -125 q 59 -156 71 -148 q 32 -169 47 -164 q 6 -178 18 -174 q -15 -184 -6 -181 q -23 -189 -23 -186 q -12 -194 -23 -192 q 11 -201 -1 -197 q 34 -216 24 -206 q 45 -245 45 -226 q 39 -272 45 -262 q 22 -289 32 -282 q 1 -300 13 -296 q -21 -307 -11 -303 q -37 -315 -31 -311 q -44 -326 -44 -319 q -25 -343 -44 -337 q -24 -346 -24 -343 q -25 -352 -24 -349 q -28 -355 -26 -355 q -72 -339 -56 -351 q -88 -309 -88 -327 q -76 -280 -88 -290 q -50 -265 -65 -270 q -24 -258 -35 -260 q -12 -252 -12 -256 q -25 -246 -12 -249 q -56 -238 -39 -244 q -86 -222 -72 -233 q -99 -192 -99 -212 q -83 -155 -99 -169 q -48 -132 -67 -140 q -13 -120 -29 -124 q 3 -110 3 -115 q -9 -103 3 -103 q -21 -106 -17 -103 q -29 -110 -25 -108 q -37 -113 -33 -112 q -51 -114 -42 -115 q -76 -107 -62 -112 q -103 -94 -90 -102 q -125 -78 -116 -87 q -133 -62 -133 -69 z "},"Ɓ":{"ha":1079,"x_min":58,"x_max":1045,"o":"m 647 154 q 724 167 692 154 q 777 203 756 180 q 807 257 797 226 q 816 326 816 288 q 809 372 816 351 q 785 408 801 393 q 743 430 769 422 q 679 438 717 438 l 522 438 l 487 154 l 647 154 m 572 854 l 538 575 l 659 575 q 736 584 702 575 q 793 613 769 593 q 828 665 816 633 q 840 742 840 697 q 807 828 840 802 q 705 854 774 854 l 572 854 m 724 1007 q 871 990 810 1007 q 970 943 932 974 q 1027 870 1009 913 q 1045 776 1045 828 q 1034 694 1045 733 q 999 623 1023 656 q 938 563 975 590 q 849 519 901 537 q 974 449 933 497 q 1014 328 1014 401 q 988 198 1014 258 q 912 94 962 138 q 791 25 863 50 q 631 0 720 0 l 267 0 l 373 864 l 367 864 q 298 854 325 864 q 256 827 272 844 q 235 785 241 810 q 230 730 230 760 q 231 709 230 719 q 232 693 232 699 q 232 675 233 684 q 227 659 231 667 q 214 645 223 651 q 191 635 206 639 l 71 610 q 62 661 65 635 q 58 712 58 688 q 81 834 58 779 q 145 927 103 889 q 248 986 187 965 q 385 1007 308 1007 l 724 1007 z "},"Ƅ":{"ha":932,"x_min":49,"x_max":897,"o":"m 523 154 q 585 164 558 154 q 631 191 612 174 q 664 230 651 208 q 684 276 676 252 q 695 322 692 299 q 698 365 698 345 q 691 417 698 391 q 668 463 684 442 q 627 495 653 483 q 565 507 602 507 l 396 507 l 355 173 l 353 154 l 523 154 m 575 661 q 719 638 658 661 q 819 575 780 615 q 878 483 859 535 q 897 373 897 431 q 870 227 897 295 q 794 109 844 159 q 672 29 744 58 q 508 0 599 0 l 133 0 l 206 603 l 206 603 l 49 723 l 310 1007 l 457 1007 l 415 661 l 575 661 z "},"Ɔ":{"ha":854,"x_min":-18,"x_max":821,"o":"m 101 243 q 133 229 119 243 q 168 195 150 209 q 207 173 186 181 q 253 160 228 164 q 310 156 278 156 q 425 184 369 156 q 522 264 480 211 q 589 392 564 316 q 615 567 615 469 q 599 684 615 632 q 556 774 584 737 q 487 830 527 810 q 397 849 447 849 q 310 837 344 849 q 251 810 276 825 q 210 784 227 796 q 177 772 194 772 q 153 778 161 772 q 140 794 145 785 l 84 886 q 229 982 145 945 q 417 1018 313 1018 q 584 985 510 1018 q 712 893 659 952 q 793 752 765 834 q 821 574 821 671 q 783 342 821 449 q 677 157 746 235 q 514 33 609 78 q 302 -11 418 -11 q 107 29 186 -11 q -18 146 28 69 l 72 231 q 101 243 86 243 z "},"Ƈ":{"ha":868,"x_min":51,"x_max":1135,"o":"m 803 146 q 648 29 738 69 q 444 -11 558 -11 q 277 22 350 -11 q 153 114 203 56 q 77 253 103 173 q 51 428 51 333 q 70 592 51 515 q 124 735 90 669 q 207 853 158 801 q 315 942 256 906 q 442 998 374 978 q 585 1019 510 1018 q 745 987 669 1019 q 761 1079 748 1034 q 802 1159 774 1124 q 877 1216 831 1194 q 992 1238 923 1238 q 1035 1236 1015 1238 q 1071 1230 1054 1234 q 1103 1221 1088 1226 q 1135 1210 1119 1216 l 1097 1108 q 1084 1086 1091 1094 q 1068 1076 1076 1079 q 1051 1073 1060 1073 q 1034 1075 1042 1073 q 1015 1080 1026 1078 q 992 1081 1004 1081 q 931 1049 952 1081 q 902 956 909 1017 l 894 878 l 824 795 q 806 779 816 786 q 780 772 796 772 q 750 784 764 772 q 716 811 736 797 q 664 837 696 825 q 580 849 632 849 q 452 821 511 849 q 350 740 393 792 q 282 613 306 688 q 257 444 257 538 q 274 323 257 376 q 320 233 290 270 q 390 176 350 196 q 478 157 431 157 q 549 163 519 157 q 600 179 578 169 q 638 200 622 189 q 665 221 653 211 q 686 237 677 231 q 706 243 696 243 q 723 240 716 243 q 733 232 729 236 l 803 146 z "},"Ɗ":{"ha":1203,"x_min":58,"x_max":1169,"o":"m 645 158 q 777 186 718 158 q 877 267 835 215 q 941 396 918 320 q 963 565 963 472 q 948 683 963 631 q 902 773 932 735 q 829 830 872 810 q 729 850 785 850 l 573 850 l 489 158 l 645 158 m 749 1007 q 924 974 847 1007 q 1057 883 1002 942 q 1140 745 1111 825 q 1169 571 1169 665 q 1128 342 1169 447 q 1015 161 1088 237 q 843 42 942 85 q 625 0 743 0 l 267 0 l 373 864 l 367 864 q 298 854 325 864 q 256 827 272 844 q 235 785 241 810 q 230 730 230 760 q 231 709 230 719 q 232 693 232 699 q 232 675 233 684 q 227 659 231 667 q 214 645 223 651 q 191 635 206 639 l 71 610 q 62 661 65 635 q 58 712 58 688 q 81 834 58 779 q 145 927 103 889 q 248 986 187 965 q 385 1007 308 1007 l 749 1007 z "},"Ƌ":{"ha":822,"x_min":24,"x_max":794,"o":"m 488 154 l 524 440 l 390 440 q 260 398 299 440 q 221 272 221 355 q 227 226 221 248 q 250 189 234 205 q 291 164 265 173 q 356 154 317 154 l 488 154 m 794 1007 l 671 0 l 336 0 q 203 20 261 0 q 105 76 144 40 q 44 163 65 113 q 24 276 24 214 q 45 399 24 341 q 113 500 67 457 q 232 569 159 544 q 410 594 306 594 l 542 594 l 574 854 l 127 854 l 147 1007 l 794 1007 z "},"Ǝ":{"ha":741,"x_min":-5,"x_max":713,"o":"m 589 0 l -5 0 l 15 158 l 406 158 l 439 431 l 136 431 l 155 583 l 458 583 l 490 849 l 99 849 l 119 1007 l 713 1007 l 589 0 z "},"Ə":{"ha":955,"x_min":42,"x_max":922,"o":"m 238 407 q 239 305 231 351 q 271 224 247 258 q 333 171 294 190 q 424 152 371 152 q 522 170 478 152 q 601 221 567 188 q 660 301 636 254 q 698 407 684 349 l 238 407 m 105 856 q 205 935 153 903 q 309 986 256 967 q 414 1014 362 1006 q 514 1022 466 1022 q 676 992 601 1022 q 805 904 750 962 q 891 763 860 847 q 922 569 922 678 q 884 341 922 447 q 777 157 846 235 q 614 33 709 78 q 403 -12 519 -12 q 254 15 321 -12 q 140 91 188 41 q 67 213 93 141 q 42 376 42 285 q 47 463 42 431 q 62 513 52 496 q 86 536 72 531 q 119 542 101 542 l 714 542 l 714 562 q 652 777 714 704 q 472 849 590 849 q 381 835 421 849 q 309 804 342 821 q 251 773 277 788 q 201 759 224 759 q 156 781 171 759 l 105 856 z "},"Ɛ":{"ha":773,"x_min":35,"x_max":790,"o":"m 721 154 q 628 74 676 106 q 531 24 581 42 q 432 -2 482 5 q 331 -10 381 -10 q 224 8 277 -10 q 129 59 172 25 q 61 144 87 93 q 35 263 35 195 q 49 356 35 313 q 90 435 64 399 q 151 499 116 471 q 228 545 186 526 q 170 578 194 558 q 133 620 147 597 q 112 668 118 643 q 106 719 106 693 q 133 831 106 777 q 211 927 160 885 q 335 994 263 969 q 499 1019 408 1019 q 593 1011 550 1019 q 672 988 636 1003 q 737 952 708 973 q 790 905 766 931 l 735 828 q 706 800 719 806 q 681 794 692 794 q 651 804 666 794 q 614 826 636 814 q 558 847 591 838 q 473 857 524 857 q 401 845 431 857 q 353 815 372 834 q 326 769 335 795 q 318 716 318 744 q 352 635 318 664 q 458 607 386 607 l 613 607 l 595 466 l 423 466 q 342 451 376 466 q 287 411 308 435 q 255 357 265 388 q 244 298 244 327 q 254 243 244 269 q 284 197 264 217 q 334 166 303 178 q 406 155 365 155 q 473 163 444 155 q 524 184 502 172 q 563 211 546 197 q 597 238 581 226 q 613 247 604 243 q 631 251 622 251 q 645 249 639 251 q 658 240 652 246 l 721 154 z "},"Ƒ":{"ha":738,"x_min":-182,"x_max":764,"o":"m 353 849 l 318 563 l 646 563 l 626 406 l 299 406 l 259 79 l 253 32 q 225 -81 246 -29 q 169 -170 204 -133 q 85 -228 135 -208 q -30 -249 35 -249 q -78 -248 -57 -249 q -116 -242 -99 -246 q -150 -233 -134 -238 q -182 -221 -165 -228 l -142 -119 q -130 -98 -137 -106 q -115 -87 -123 -90 q -97 -84 -106 -84 q -80 -86 -88 -85 q -61 -91 -72 -90 q -38 -92 -50 -92 q 23 -61 1 -92 q 51 32 44 -29 l 54 58 l 171 1007 l 764 1007 l 744 849 l 353 849 z "},"Ɠ":{"ha":944,"x_min":51,"x_max":1175,"o":"m 934 885 l 865 796 q 826 770 849 775 q 781 781 803 765 q 738 808 758 795 q 693 830 717 820 q 643 844 670 839 q 579 849 615 849 q 449 820 508 849 q 348 738 390 791 q 281 610 305 685 q 258 444 258 535 q 275 319 258 374 q 324 226 292 264 q 401 167 356 188 q 500 147 446 147 q 588 156 550 147 q 661 182 626 166 l 683 362 l 583 362 q 555 372 564 362 q 547 398 545 382 l 561 510 l 884 510 l 833 97 q 753 49 794 69 q 667 15 713 28 q 572 -5 622 2 q 465 -11 522 -11 q 296 23 372 -11 q 166 116 220 56 q 81 258 111 176 q 51 438 51 340 q 92 670 51 564 q 206 854 133 777 q 382 975 280 931 q 608 1018 485 1018 q 701 1011 658 1018 q 781 990 744 1003 q 799 1081 785 1036 q 842 1160 813 1125 q 917 1216 871 1195 q 1031 1238 963 1238 q 1075 1236 1056 1238 q 1111 1230 1094 1234 q 1143 1221 1128 1226 q 1175 1210 1159 1216 l 1136 1108 q 1124 1086 1131 1094 q 1108 1076 1117 1079 q 1091 1073 1100 1073 q 1074 1075 1082 1073 q 1055 1080 1066 1078 q 1032 1081 1044 1081 q 971 1049 992 1081 q 942 956 950 1017 l 934 885 z "},"Ɣ":{"ha":916,"x_min":-16,"x_max":1010,"o":"m 338 167 q 327 157 333 162 q 314 149 321 153 l 540 149 q 517 174 526 159 l 437 323 q 415 288 427 305 q 390 256 403 271 l 338 167 m 575 435 l 822 0 l -16 0 l 344 444 l 43 1008 l 238 1008 q 267 1001 258 1008 q 284 980 275 995 l 490 572 l 773 980 q 817 1007 792 1007 l 1010 1007 l 575 435 z "},"Ɩ":{"ha":453,"x_min":64,"x_max":399,"o":"m 167 1008 l 369 1008 l 274 233 q 280 162 268 184 q 331 140 292 140 l 399 140 l 390 76 q 372 36 387 52 q 336 10 358 20 q 286 -3 314 1 q 231 -8 259 -8 q 151 10 185 -8 q 98 58 118 27 q 71 131 78 89 q 70 222 64 173 l 167 1008 z "},"Ƙ":{"ha":935,"x_min":47,"x_max":998,"o":"m 319 589 l 356 589 q 399 596 381 589 q 434 626 418 603 l 586 867 q 646 937 615 908 q 713 984 678 966 q 789 1009 749 1001 q 874 1017 828 1017 q 950 1010 922 1017 q 998 994 978 1003 l 967 894 q 954 873 961 880 q 939 862 947 865 q 923 859 931 859 q 908 860 915 858 q 888 863 900 861 q 865 865 876 865 q 806 848 833 865 q 760 806 778 832 l 638 605 q 598 563 619 580 q 555 536 577 546 q 595 511 578 527 q 627 470 613 496 l 863 0 l 683 0 q 634 10 649 0 q 609 38 618 20 l 426 403 q 401 431 417 423 q 355 440 385 440 l 301 440 l 247 0 l 47 0 l 170 1008 l 371 1008 l 319 589 z "},"Ɯ":{"ha":1414,"x_min":76,"x_max":1386,"o":"m 1386 1007 l 1263 3 l 1158 3 q 1119 14 1133 3 q 1101 49 1104 26 l 1102 161 q 1045 82 1076 115 q 983 28 1015 49 q 916 -2 951 8 q 847 -11 882 -11 q 771 4 804 -11 q 713 45 738 19 q 670 108 688 72 q 643 188 653 144 q 581 100 615 138 q 508 39 547 63 q 429 1 470 14 q 347 -11 388 -11 q 211 17 267 -11 q 125 98 156 44 q 85 229 94 151 q 87 408 76 307 l 161 1007 l 363 1007 l 288 408 q 287 283 281 334 q 308 200 292 232 q 350 154 324 168 q 408 140 375 140 q 478 163 445 140 q 536 225 510 185 q 578 322 561 265 q 603 447 596 378 l 672 1007 l 875 1007 l 805 447 q 799 308 799 366 q 811 213 800 250 q 845 158 822 176 q 908 140 869 140 q 963 156 935 140 q 1016 207 990 172 q 1067 295 1042 242 q 1111 426 1091 349 l 1185 1007 l 1386 1007 z "}}}
